<svg xmlns="http://www.w3.org/2000/svg" xmlns:xlink="http://www.w3.org/1999/xlink" viewBox="0 0 92 157.31"><defs><style>.partebala-1{fill:none;}.partebala-2{fill:#da923d;}.partebala-3{fill:#71458f;}.partebala-4{clip-path:url(#clip-path);}.partebala-5{fill:#79afbb;}.partebala-6{fill:#9cc4cd;}.partebala-7{fill:#dd9e56;}.partebala-8{fill:#d48032;}.partebala-9{fill:#c1773b;}.partebala-10{fill:#70422d;}.partebala-11{fill:#482b1c;}</style><clipPath id="clip-path"><path class="partebala-1" d="M46,9.37h0C12,9.37-1.83,33.59.19,59.11S27.46,116.8,27.46,116.8H64.54S89.79,84.62,91.81,59.11,80,9.37,46,9.37Z"/></clipPath></defs><title>balao</title><g id="Camada_2" data-name="Camada 2"><g id="main"><g id="balaocomp"><g id="balao"><path class="partebala-2" d="M26.09,118l7.71,19.53a1.26,1.26,0,0,0,2.35-.93l-7.71-19.53a1.26,1.26,0,0,0-2.35.93Z"/><path class="partebala-2" d="M65.91,118,58.2,137.52a1.26,1.26,0,0,1-2.35-.93l7.71-19.53a1.26,1.26,0,0,1,2.35.93Z"/><path class="partebala-3" d="M46,9.37h0C12,9.37-1.83,33.59.19,59.11S27.46,116.8,27.46,116.8H64.54S89.79,84.62,91.81,59.11,80,9.37,46,9.37Z"/><g class="partebala-4"><path class="partebala-5" d="M27.94,116.8s-55.72-91,6.26-110.21c0,0-40.44,23.26,3.62,110.21Z"/><path class="partebala-5" d="M46,0s.74,1.94,1.68,5.35c.48,1.7,1,3.77,1.55,6.14s1.09,5,1.62,8c1.06,5.83,2,12.63,2.6,19.92s.94,15.06,1,22.84S54.11,77.75,53.47,85,51.94,99.13,50.88,105c-.53,2.91-1.08,5.59-1.63,8s-1.08,4.43-1.56,6.13c-1,3.4-1.69,5.35-1.69,5.35s-.74-1.94-1.69-5.35c-.48-1.7-1-3.77-1.56-6.13s-1.09-5-1.63-8c-1.06-5.83-2-12.63-2.6-19.92S37.59,70,37.58,62.2s.32-15.55,1-22.84,1.54-14.09,2.6-19.92c.53-2.92,1.08-5.59,1.62-8S43.83,7,44.32,5.35C45.26,1.94,46,0,46,0Z"/><path class="partebala-5" d="M64.29,116.8S120,25.81,58,6.59c0,0,40.44,23.26-3.62,110.21Z"/></g><path class="partebala-6" d="M79.83,100.93a2.19,2.19,0,0,1-2.19,2.19H14.36a2.19,2.19,0,0,1-2.19-2.19h0a2.19,2.19,0,0,1,2.19-2.19H77.64a2.19,2.19,0,0,1,2.19,2.19Z"/><path class="partebala-6" d="M69.73,116.8A2.19,2.19,0,0,1,67.54,119H24.45a2.19,2.19,0,0,1-2.19-2.19h0a2.19,2.19,0,0,1,2.19-2.19H67.54a2.19,2.19,0,0,1,2.19,2.19Z"/><path class="partebala-7" d="M27.93,135.32v15.26a6.75,6.75,0,0,0,6.73,6.73H57.33a6.75,6.75,0,0,0,6.73-6.73V135.32Z"/><rect class="partebala-8" x="27.93" y="135.32" width="36.13" height="1.63"/><path class="partebala-9" d="M61.94,135.3c-.8,5.24-8.4,5.24-9.2,0H50.67c-.8,5.24-8.4,5.24-9.2,0H39.21c-.8,5.24-8.4,5.24-9.2,0H28.12a6.66,6.66,0,0,0,6.49,6,6.11,6.11,0,0,0,5.72-3.54,6.69,6.69,0,0,0,5.74,3.54,6.07,6.07,0,0,0,5.62-3.36,6.71,6.71,0,0,0,5.65,3.36c3.49.19,6.06-2.78,6.49-6Z"/></g><g id="sacos"><path class="partebala-10" d="M52,137.29a.6.6,0,0,0,.62,0c.19-.1.35-.26.55-.36s.36-.1.45,0a.76.76,0,0,1,0,.24c.09.51,1,.36,1.25.79a.67.67,0,0,1-.1.76,3.32,3.32,0,0,1-.63.52,6.4,6.4,0,0,0-1.71,2.5,2.13,2.13,0,0,0-1.63-.92,3.44,3.44,0,0,0-1.44-1.69,2.22,2.22,0,0,1-1.07-1.88c.47-.33,1.12.44,1.64.2.21-.1.32-.34.49-.51a.94.94,0,0,1,1.33.06A1.36,1.36,0,0,0,52,137.29Z"/><path class="partebala-11" d="M56.62,147.75a4.68,4.68,0,0,1-9.37,0c0-2.59,2.1-7.91,4.68-7.91S56.62,145.17,56.62,147.75Z"/><g id="sacos-2" data-name="sacos"><path class="partebala-10" d="M40,137.29a.6.6,0,0,0,.62,0c.19-.1.35-.26.55-.36s.36-.1.45,0a.76.76,0,0,1,0,.24c.09.51,1,.36,1.25.79a.67.67,0,0,1-.1.76,3.32,3.32,0,0,1-.63.52,6.4,6.4,0,0,0-1.71,2.5,2.13,2.13,0,0,0-1.63-.92,3.44,3.44,0,0,0-1.44-1.69,2.22,2.22,0,0,1-1.07-1.88c.47-.33,1.12.44,1.64.2.21-.1.32-.34.49-.51a.94.94,0,0,1,1.33.06A1.36,1.36,0,0,0,40,137.29Z"/><path class="partebala-11" d="M44.62,147.75a4.68,4.68,0,0,1-9.37,0c0-2.59,2.1-7.91,4.68-7.91S44.62,145.17,44.62,147.75Z"/></g></g></g></g></g></svg>