<svg xmlns="http://www.w3.org/2000/svg" xmlns:xlink="http://www.w3.org/1999/xlink" viewBox="0 0 1024 1553"><defs><style>.cls-1{fill:url(#Gradiente_sem_nome_57);}.cls-2{fill:url(#Gradiente_sem_nome_56);}.cls-3{fill:#fff;}</style><linearGradient id="Gradiente_sem_nome_57" x1="512" y1="787" x2="512" y2="19" gradientUnits="userSpaceOnUse"><stop offset="0" stop-color="#a7bf30"/><stop offset="0.11" stop-color="#b8c82f"/><stop offset="0.35" stop-color="#d6d92d"/><stop offset="0.58" stop-color="#ece52b"/><stop offset="0.8" stop-color="#faed2a"/><stop offset="1" stop-color="#feef2a"/></linearGradient><linearGradient id="Gradiente_sem_nome_56" x1="512" y1="-3527" x2="512" y2="-4295" gradientTransform="translate(1024 -2742) rotate(180)" gradientUnits="userSpaceOnUse"><stop offset="0" stop-color="#a7bf30"/><stop offset="0.24" stop-color="#a4be32"/><stop offset="0.42" stop-color="#9abb37"/><stop offset="0.58" stop-color="#8ab53f"/><stop offset="0.73" stop-color="#73ae4b"/><stop offset="0.87" stop-color="#55a45a"/><stop offset="1" stop-color="#34996b"/></linearGradient></defs><title>bg-4</title><g id="Camada_2" data-name="Camada 2"><g id="main"><g id="fundo"><path class="cls-1" d="M1024,787H0V19H1024Z"/></g><g id="fundo-2" data-name="fundo"><path class="cls-2" d="M0,785H1024v768H0Z"/></g><path class="cls-3" d="M1024,1309.88c-36.81-22.31-77.34-32.57-113.57-6.29-31.58,22.91-34.33,55-64.89,69.17-43.6,20.15-59.67-35.23-112.61-34.59s-63.79,56.61-127.88,81.75c-54.21,21.26-102.61.34-120.25-6.29-50.19-18.87-50.33-41.11-91.62-50.31-46.87-10.44-50.36,17.4-116.43,18.87-36.25.81-76.72,1.7-120.25-31.44-32.2-24.52-37-45.57-59.17-50.31-38-8.14-73.36,43.26-97.34,88V1553H1024Z"/><path class="cls-3" d="M0,258.72c36.81,23.75,77.34,34.66,113.57,6.69,31.58-24.38,34.33-58.58,64.89-73.61,43.6-21.44,59.67,37.49,112.61,36.8s63.79-60.24,127.88-87c54.21-22.63,102.61-.36,120.25,6.69,50.19,20.08,50.33,43.74,91.62,53.53,46.87,11.11,50.36-18.51,116.43-20.08,36.25-.86,76.72-1.81,120.25,33.46,32.2,26.1,37,48.49,59.17,53.53,38,8.66,73.36-46,97.34-93.69V0H0Z"/></g></g></svg>