<svg xmlns="http://www.w3.org/2000/svg" xmlns:xlink="http://www.w3.org/1999/xlink" viewBox="0 0 1024 768"><defs><style>.cls-1{fill:url(#Gradiente_sem_nome_172);}.cls-2{fill:#fff;}</style><linearGradient id="Gradiente_sem_nome_172" x1="512" x2="512" y2="768" gradientUnits="userSpaceOnUse"><stop offset="0" stop-color="#63adda"/><stop offset="0.19" stop-color="#61a9d7"/><stop offset="0.37" stop-color="#5c9ed0"/><stop offset="0.55" stop-color="#538bc3"/><stop offset="0.73" stop-color="#4770b0"/><stop offset="0.9" stop-color="#374e99"/><stop offset="1" stop-color="#2c3689"/></linearGradient></defs><title>bg</title><g id="Camada_2" data-name="Camada 2"><g id="main"><g id="fundo"><path class="cls-1" d="M1024,768H0V0H1024Z"/></g><path id="bg1nuvembaixo" class="cls-2" d="M379,0c45.87,91.33,95.15,119,131.39,127.49,51.54,12.1,101.34-8.7,222.47,0,13.93,1,29.75,2.46,49.27,8.5,55.59,17.2,70.76,54.4,104.51,75.07,26.69,16.35,50.92,28.07,137.36,0V0Z"/><path id="bg1nuvemcima" class="cls-2" d="M1024,664c-30.78-42.51-58.22-92.12-117.08-96.68-57.4-4.44-69.77,38.34-142,46.87-88.43,10.45-102.52-49.76-176.58-29.3-70.65,19.52-64.55,76.17-130.52,87.89-72.6,12.9-87.35-54.42-176.58-41-37.54,5.64-54.67,20.52-90.21,8.79-37.86-12.5-47.57-39-78.7-49.8-24-8.32-60.48-7.3-112.28,41V768H1024Z"/></g></g></svg>