<svg xmlns="http://www.w3.org/2000/svg" xmlns:xlink="http://www.w3.org/1999/xlink" viewBox="0 0 1024 599"><defs><style>.cls-1{fill:url(#Gradiente_sem_nome_16);}</style><linearGradient id="Gradiente_sem_nome_16" x1="707.9" y1="-70.1" x2="253.55" y2="716.85" gradientUnits="userSpaceOnUse"><stop offset="0" stop-color="#001d7e"/><stop offset="1" stop-color="#4a72b2"/></linearGradient></defs><title>bg</title><g id="Camada_2" data-name="Camada 2"><g id="main"><path id="bg" class="cls-1" d="M986.51,112.4c-89.9.63-87.83,5.18-115.23,1.83-47-5.75-54.8-19.34-91.45-14.62-20.3,2.61-17.25,6.7-47.55,12.79a293.27,293.27,0,0,1-91.45,3.66c-26-3.06-39.2-4.8-51.21-14.62C575,89.5,576.43,78.34,562.18,72.19c-13.49-5.82-20.87,1.53-45.73,0,0,0-18.15-1.12-34.75-7.31C448.82,52.61,432.46,16.48,426.32,0H0V570.46a67.74,67.74,0,0,1,29.63-6.73H97.09c15.43,0,30,5.09,41,13.89l14.62-21.75c10.72-15.94,30.53-25.76,52-25.76h67.46c21.44,0,41.24,9.82,52,25.76l27.12,40.34a66.62,66.62,0,0,1,36.45-10.6H455.1A65.82,65.82,0,0,1,495.42,599l20.25-30.12c10.72-15.94,30.53-25.76,52-25.76h67.46c21.44,0,41.24,9.82,52,25.76L704,594.05c11.11-14.06,29.67-22.6,49.64-22.6h67.46c19.07,0,36.85,7.78,48.09,20.72l20-29.74c10.72-15.94,30.53-25.76,52-25.76h67.46a69.27,69.27,0,0,1,15.42,1.73v-426C1015.48,112.34,1002.42,112.29,986.51,112.4Z"/></g></g></svg>