<svg xmlns="http://www.w3.org/2000/svg" xmlns:xlink="http://www.w3.org/1999/xlink" viewBox="0 0 1024 768"><defs><style>.cls-1{fill:url(#Gradiente_sem_nome_16);}.cls-2{fill:#fff;}</style><linearGradient id="Gradiente_sem_nome_16" x1="512" y1="768" x2="512" gradientTransform="translate(1024 768) rotate(180)" gradientUnits="userSpaceOnUse"><stop offset="0" stop-color="#bc3910"/><stop offset="0.2" stop-color="#bd3c10"/><stop offset="0.35" stop-color="#c14512"/><stop offset="0.49" stop-color="#c65614"/><stop offset="0.61" stop-color="#cf6c17"/><stop offset="0.73" stop-color="#d98a1c"/><stop offset="0.84" stop-color="#e6ae21"/><stop offset="0.95" stop-color="#f6d827"/><stop offset="1" stop-color="#feef2a"/></linearGradient></defs><title>bg2-1</title><g id="Camada_2" data-name="Camada 2"><g id="main"><g id="fundo"><path class="cls-1" d="M0,0H1024V768H0Z"/></g><path class="cls-2" d="M1024,524.88c-36.81-22.31-77.34-32.57-113.57-6.29-31.58,22.91-34.33,55-64.89,69.17-43.6,20.15-59.67-35.23-112.61-34.59S669.14,609.79,605,634.93c-54.21,21.26-102.61.34-120.25-6.29-50.19-18.87-50.33-41.11-91.62-50.31-46.87-10.44-50.36,17.4-116.43,18.87-36.25.81-76.72,1.7-120.25-31.44-32.2-24.52-37-45.57-59.17-50.31-38-8.14-73.36,43.26-97.34,88V768H1024Z"/></g></g></svg>