<svg xmlns="http://www.w3.org/2000/svg" xmlns:xlink="http://www.w3.org/1999/xlink" viewBox="0 0 1024 768"><defs><style>.cls-1{fill:url(#Gradiente_sem_nome_12);}.cls-2{fill:#fff;}</style><linearGradient id="Gradiente_sem_nome_12" x1="512" y1="768" x2="512" gradientUnits="userSpaceOnUse"><stop offset="0" stop-color="#bc3910"/><stop offset="0.19" stop-color="#b93913"/><stop offset="0.36" stop-color="#ae391c"/><stop offset="0.51" stop-color="#9c382a"/><stop offset="0.66" stop-color="#84383f"/><stop offset="0.81" stop-color="#64375a"/><stop offset="0.95" stop-color="#3d367b"/><stop offset="1" stop-color="#2c3689"/></linearGradient></defs><title>bg2</title><g id="Camada_2" data-name="Camada 2"><g id="main"><g id="fundo"><path class="cls-1" d="M1024,768H0V0H1024Z"/></g><path class="cls-2" d="M0,193.58c36.81,17.77,77.34,25.93,113.57,5,31.58-18.24,34.33-43.83,64.89-55.08,43.6-16,59.67,28.05,112.61,27.54S354.86,126,419,106c54.21-16.93,102.61-.27,120.25,5,50.19,15,50.33,32.73,91.62,40.06,46.87,8.32,50.36-13.85,116.43-15,36.25-.64,76.72-1.36,120.25,25,32.2,19.53,37,36.28,59.17,40.06,38,6.48,73.36-34.44,97.34-70.1V0H0Z"/><path class="cls-2" d="M1024,521.21c-36.81-22.65-77.34-33.06-113.57-6.38-31.58,23.26-34.33,55.88-64.89,70.22-43.6,20.45-59.67-35.77-112.61-35.11s-63.79,57.46-127.88,83c-54.21,21.58-102.61.35-120.25-6.38-50.19-19.15-50.33-41.73-91.62-51.07-46.87-10.6-50.36,17.66-116.43,19.15-36.25.82-76.72,1.73-120.25-31.92-32.2-24.89-37-46.26-59.17-51.07C59.36,503.38,24,555.55,0,601V768H1024Z"/></g></g></svg>