<svg xmlns="http://www.w3.org/2000/svg" xmlns:xlink="http://www.w3.org/1999/xlink" viewBox="0 0 1024 768"><defs><style>.cls-1{fill:url(#Gradiente_sem_nome_128);}.cls-2{fill:#fff;}</style><linearGradient id="Gradiente_sem_nome_128" x1="512" x2="512" y2="768" gradientUnits="userSpaceOnUse"><stop offset="0" stop-color="#1a1c7e"/><stop offset="0.13" stop-color="#1f1d7c"/><stop offset="0.29" stop-color="#2f1e75"/><stop offset="0.46" stop-color="#482169"/><stop offset="0.65" stop-color="#6b255a"/><stop offset="0.84" stop-color="#972a46"/><stop offset="1" stop-color="#c12e33"/></linearGradient></defs><title>bg2</title><g id="Camada_2" data-name="Camada 2"><g id="main"><rect class="cls-1" width="1024" height="768"/><path class="cls-2" d="M0,0V250c6.43,11.14,26,17,38.84,17H75.39a36,36,0,0,0,31.18-18l18.27-31.65a36,36,0,0,0,2.3-4.79l10.75,24C145.22,252.93,158.75,263,173.4,263h78.12c14.65,0,28.18-10.07,35.51-26.43l17.9-40,9.53,16.5A45.82,45.82,0,0,0,354.13,236h50.44a45.82,45.82,0,0,0,39.68-22.91l13-22.56,20.62,46C485.22,252.93,498.75,263,513.4,263h78.12c14.65,0,28.18-10.07,35.51-26.43l25.11-56.08,11.32,19.6A45.82,45.82,0,0,0,703.13,223h50.44a45.82,45.82,0,0,0,39.68-22.91l9.06-15.69,17.59,39.27c7.32,16.35,20.86,26.43,35.51,26.43h78.12c14.65,0,83.16-6.85,90.48-23.21V0Z"/></g></g></svg>