<svg xmlns="http://www.w3.org/2000/svg" xmlns:xlink="http://www.w3.org/1999/xlink" viewBox="0 0 1024 768"><defs><style>.cls-1{fill:url(#Gradiente_sem_nome_12);}.cls-2{fill:#fff;}</style><linearGradient id="Gradiente_sem_nome_12" x1="512" y1="768" x2="512" gradientUnits="userSpaceOnUse"><stop offset="0" stop-color="#bc3910"/><stop offset="0.19" stop-color="#b93913"/><stop offset="0.36" stop-color="#ae391c"/><stop offset="0.51" stop-color="#9c382a"/><stop offset="0.66" stop-color="#84383f"/><stop offset="0.81" stop-color="#64375a"/><stop offset="0.95" stop-color="#3d367b"/><stop offset="1" stop-color="#2c3689"/></linearGradient></defs><title>bg2</title><g id="Camada_2" data-name="Camada 2"><g id="main"><g id="fundo"><path class="cls-1" d="M1024,768H0V0H1024Z"/></g><path class="cls-2" d="M0,123.85c36.81,11.37,77.34,16.59,113.57,3.2,31.58-11.67,34.33-28,64.89-35.24,43.6-10.26,59.67,17.95,112.61,17.62S354.86,80.6,419,67.79C473.16,57,521.56,67.62,539.2,71c50.19,9.61,50.33,20.94,91.62,25.63,46.87,5.32,50.36-8.86,116.43-9.61,36.25-.41,76.72-.87,120.25,16,32.2,12.49,37,23.21,59.17,25.63,38,4.14,73.36-22,97.34-44.85V0H0Z"/><path class="cls-2" d="M1024,622.13c-36.81-13.39-77.34-19.54-113.57-3.77-31.58,13.75-34.33,33-64.89,41.5-43.6,12.09-59.67-21.14-112.61-20.75s-63.79,34-127.88,49c-54.21,12.76-102.61.2-120.25-3.77-50.19-11.32-50.33-24.66-91.62-30.18-46.87-6.27-50.36,10.44-116.43,11.32-36.25.48-76.72,1-120.25-18.87-32.2-14.71-37-27.34-59.17-30.18-38-4.88-73.36,26-97.34,52.82V768H1024Z"/></g></g></svg>