<svg xmlns="http://www.w3.org/2000/svg" xmlns:xlink="http://www.w3.org/1999/xlink" viewBox="0 0 1024 783"><defs><style>.cls-1{fill:url(#Gradiente_sem_nome_12);}.cls-2{fill:#fff;}</style><linearGradient id="Gradiente_sem_nome_12" x1="512" y1="772" x2="512" y2="4" gradientUnits="userSpaceOnUse"><stop offset="0" stop-color="#bc3910"/><stop offset="0.19" stop-color="#b93913"/><stop offset="0.36" stop-color="#ae391c"/><stop offset="0.51" stop-color="#9c382a"/><stop offset="0.66" stop-color="#84383f"/><stop offset="0.81" stop-color="#64375a"/><stop offset="0.95" stop-color="#3d367b"/><stop offset="1" stop-color="#2c3689"/></linearGradient></defs><title>bg2</title><g id="Camada_2" data-name="Camada 2"><g id="main"><g id="fundo"><path class="cls-1" d="M1024,772H0V4H1024Z"/></g><path class="cls-2" d="M0,207.34c36.81,19,77.34,27.77,113.57,5.36,31.58-19.54,34.33-46.95,64.89-59,43.6-17.18,59.67,30,112.61,29.5S354.86,134.93,419,113.49c54.21-18.13,102.61-.29,120.25,5.36,50.19,16.09,50.33,35.06,91.62,42.9,46.87,8.91,50.36-14.84,116.43-16.09,36.25-.69,76.72-1.45,120.25,26.81,32.2,20.91,37,38.86,59.17,42.9,38,6.94,73.36-36.89,97.34-75.08V0H0Z"/><path class="cls-2" d="M1024,641.72c-36.81-13-77.34-18.93-113.57-3.65-31.58,13.31-34.33,32-64.89,40.2-43.6,11.71-59.67-20.48-112.61-20.1S669.14,691.06,605,705.67c-54.21,12.36-102.61.2-120.25-3.65-50.19-11-50.33-23.89-91.62-29.24-46.87-6.07-50.36,10.11-116.43,11-36.25.47-76.72,1-120.25-18.27-32.2-14.25-37-26.48-59.17-29.24C59.36,631.51,24,661.37,0,687.4V783H1024Z"/></g></g></svg>