<svg xmlns="http://www.w3.org/2000/svg" xmlns:xlink="http://www.w3.org/1999/xlink" viewBox="0 0 1024 768"><defs><style>.cls-1{fill:url(#Gradiente_sem_nome_77);}.cls-2{fill:#fff;}</style><linearGradient id="Gradiente_sem_nome_77" x1="512" x2="512" y2="768" gradientUnits="userSpaceOnUse"><stop offset="0" stop-color="#dfa41d"/><stop offset="0.13" stop-color="#d68123"/><stop offset="0.28" stop-color="#cf6329"/><stop offset="0.43" stop-color="#c94c2d"/><stop offset="0.59" stop-color="#c43b31"/><stop offset="0.77" stop-color="#c23132"/><stop offset="1" stop-color="#c12e33"/></linearGradient></defs><title>bg2down</title><g id="Camada_2" data-name="Camada 2"><g id="main"><rect class="cls-1" width="1024" height="768" transform="translate(1024 768) rotate(180)"/><path class="cls-2" d="M0,768H1024V694.33H942.48a66.29,66.29,0,0,0-23.1,4l-33.28-31.93c-7.32-7-20.86-11.36-35.51-11.36H772.48c-14.65,0-28.18,4.33-35.51,11.36l-22.21,21.3c-7.39-6.85-20.74-11.06-35.17-11.06H601.48c-13.78,0-26.57,3.83-34.13,10.13l-21.24-20.38c-7.32-7-20.86-11.36-35.51-11.36H432.48c-14.65,0-28.18,4.33-35.51,11.36l-32.74,31.41a67.24,67.24,0,0,0-21.64-3.44H264.48c-11.35,0-22,2.61-29.65,7l-30.72-29.48c-7.32-7-20.86-11.36-35.51-11.36H90.48c-14.65,0-83.16,2.94-90.48,10V768Z"/></g></g></svg>