<svg xmlns="http://www.w3.org/2000/svg" xmlns:xlink="http://www.w3.org/1999/xlink" viewBox="0 0 1024 768"><defs><style>.cls-1{fill:url(#Gradiente_sem_nome_57);}.cls-2{fill:#fff;}</style><linearGradient id="Gradiente_sem_nome_57" x1="512" y1="768" x2="512" gradientUnits="userSpaceOnUse"><stop offset="0" stop-color="#a7bf30"/><stop offset="0.11" stop-color="#b8c82f"/><stop offset="0.35" stop-color="#d6d92d"/><stop offset="0.58" stop-color="#ece52b"/><stop offset="0.8" stop-color="#faed2a"/><stop offset="1" stop-color="#feef2a"/></linearGradient></defs><title>bg3-1</title><g id="Camada_2" data-name="Camada 2"><g id="main"><g id="fundo"><path class="cls-1" d="M1024,768H0V0H1024Z"/></g><path class="cls-2" d="M1024,592.77c-36.81-16.08-77.34-23.47-113.57-4.53-31.58,16.51-34.33,39.68-64.89,49.86-43.6,14.52-59.67-25.39-112.61-24.93S669.14,654,605,672.09c-54.21,15.33-102.61.25-120.25-4.53-50.19-13.6-50.33-29.63-91.62-36.26-46.87-7.53-50.36,12.54-116.43,13.6-36.25.58-76.72,1.23-120.25-22.66-32.2-17.67-37-32.84-59.17-36.26C59.36,580.11,24,617.15,0,649.43V768H1024Z"/></g></g></svg>