<svg xmlns="http://www.w3.org/2000/svg" xmlns:xlink="http://www.w3.org/1999/xlink" viewBox="0 0 1024 813"><defs><style>.cls-1{fill:url(#Gradiente_sem_nome_16);}.cls-2{fill:#fff;}</style><linearGradient id="Gradiente_sem_nome_16" x1="-2976" y1="41" x2="-2976" y2="-727" gradientTransform="translate(-2464 54) rotate(180)" gradientUnits="userSpaceOnUse"><stop offset="0" stop-color="#bc3910"/><stop offset="0.2" stop-color="#bd3c10"/><stop offset="0.35" stop-color="#c14512"/><stop offset="0.49" stop-color="#c65614"/><stop offset="0.61" stop-color="#cf6c17"/><stop offset="0.73" stop-color="#d98a1c"/><stop offset="0.84" stop-color="#e6ae21"/><stop offset="0.95" stop-color="#f6d827"/><stop offset="1" stop-color="#feef2a"/></linearGradient></defs><title>bg3</title><g id="Camada_2" data-name="Camada 2"><g id="main"><g id="fundo"><path class="cls-1" d="M0,13H1024V781H0Z"/></g><path class="cls-2" d="M0,255c36.81,23.41,77.34,34.16,113.57,6.6,31.58-24,34.33-57.75,64.89-72.57,43.6-21.14,59.67,37,112.61,36.28S354.86,166,419,139.6c54.21-22.31,102.61-.36,120.25,6.6C589.39,166,589.52,189.32,630.81,199c46.87,11,50.36-18.25,116.43-19.79,36.25-.84,76.72-1.79,120.25,33,32.2,25.73,37,47.8,59.17,52.78,38,8.53,73.36-45.38,97.34-92.36V0H0Z"/><path class="cls-2" d="M1024,605.66c-36.81-19-77.34-27.77-113.57-5.36-31.58,19.54-34.33,46.95-64.89,59-43.6,17.18-59.67-30-112.61-29.5S669.14,678.07,605,699.51c-54.21,18.13-102.61.29-120.25-5.36-50.19-16.09-50.33-35.06-91.62-42.9-46.87-8.91-50.36,14.84-116.43,16.09-36.25.69-76.72,1.45-120.25-26.81-32.2-20.91-37-38.86-59.17-42.9C59.36,590.68,24,634.51,0,672.7V813H1024Z"/></g></g></svg>