<?xml version="1.0" encoding="utf-8"?>
<!-- Generator: Adobe Illustrator 21.0.0, SVG Export Plug-In . SVG Version: 6.00 Build 0)  -->
<svg version="1.1" id="Camada_1" xmlns="http://www.w3.org/2000/svg" xmlns:xlink="http://www.w3.org/1999/xlink" x="0px" y="0px"
	 viewBox="0 0 1024 1534" style="enable-background:new 0 0 1024 1534;" xml:space="preserve">
<style type="text/css">
	.st0{fill:url(#SVGID_1_);}
	.st1{fill:#FFFFFF;}
	.st2{fill:url(#SVGID_2_);}
</style>
<title>bg3</title>
<g id="Camada_2">
	<g id="main">
		<g id="fundo">
			
				<linearGradient id="SVGID_1_" gradientUnits="userSpaceOnUse" x1="936" y1="32" x2="936" y2="800" gradientTransform="matrix(-1 0 0 1 1448 -32)">
				<stop  offset="0" style="stop-color:#BC3910"/>
				<stop  offset="0.2" style="stop-color:#BD3C10"/>
				<stop  offset="0.35" style="stop-color:#C14512"/>
				<stop  offset="0.49" style="stop-color:#C65614"/>
				<stop  offset="0.61" style="stop-color:#CF6C17"/>
				<stop  offset="0.73" style="stop-color:#D98A1C"/>
				<stop  offset="0.84" style="stop-color:#E6AE21"/>
				<stop  offset="0.95" style="stop-color:#F6D827"/>
				<stop  offset="1" style="stop-color:#FEEF2A"/>
			</linearGradient>
			<path class="st0" d="M0,0h1024v768H0V0z"/>
		</g>
		<path class="st1" d="M0,243.1c36.8,22.3,77.3,32.6,113.6,6.3c31.6-22.9,34.3-55,64.9-69.2c43.6-20.1,59.7,35.2,112.6,34.6
			s63.8-56.6,127.9-81.8c54.2-21.3,102.6-0.3,120.3,6.3c50.2,18.9,50.3,41.1,91.6,50.3c46.9,10.4,50.4-17.4,116.4-18.9
			c36.3-0.8,76.7-1.7,120.3,31.4c32.2,24.5,37,45.6,59.2,50.3c38,8.1,73.4-43.3,97.3-88V0H0V243.1z"/>
	</g>
</g>
<g>
	<g id="fundo_3_">
		<linearGradient id="SVGID_2_" gradientUnits="userSpaceOnUse" x1="512.03" y1="1534" x2="512.03" y2="766">
			<stop  offset="0" style="stop-color:#A6BE30"/>
			<stop  offset="0.1097" style="stop-color:#B7C72F"/>
			<stop  offset="0.3457" style="stop-color:#D5D82D"/>
			<stop  offset="0.5767" style="stop-color:#EBE42B"/>
			<stop  offset="0.7983" style="stop-color:#F9EC2A"/>
			<stop  offset="1" style="stop-color:#FDEE2A"/>
		</linearGradient>
		<path class="st2" d="M1024,1534H0V766c167,0,334,0,501,0c174.3,0,348.7,0,523,0C1024,1022,1024,1278,1024,1534z"/>
	</g>
	<path class="st1" d="M1024,1280c-36.8-23.4-77.3-34.2-113.6-6.6c-31.6,24-34.3,57.7-64.9,72.6c-43.6,21.1-59.7-37-112.6-36.3
		c-53.1,0.7-63.8,59.4-127.9,85.8c-54.2,22.3-102.6,0.4-120.2-6.6c-50.2-19.8-50.3-43.1-91.6-52.8c-46.9-11-50.4,18.3-116.4,19.8
		c-36.3,0.8-76.7,1.8-120.2-33c-32.2-25.7-37-47.8-59.2-52.8c-38-8.5-73.4,45.4-97.3,92.4V1535h1024V1280z"/>
</g>
</svg>
