<svg xmlns="http://www.w3.org/2000/svg" xmlns:xlink="http://www.w3.org/1999/xlink" viewBox="0 0 1024 768"><defs><style>.cls-1{fill:url(#Gradiente_sem_nome_48);}.cls-2{fill:#fff;}</style><linearGradient id="Gradiente_sem_nome_48" x1="512" y1="768" x2="512" gradientUnits="userSpaceOnUse"><stop offset="0" stop-color="#a7bf30"/><stop offset="0.24" stop-color="#c4cf2e"/><stop offset="0.55" stop-color="#e4e12c"/><stop offset="0.82" stop-color="#f7eb2a"/><stop offset="1" stop-color="#feef2a"/></linearGradient></defs><title>bg3_1</title><g id="Camada_2" data-name="Camada 2"><g id="main"><g id="fundo"><path class="cls-1" d="M1024,768H0V0H1024Z"/></g><path class="cls-2" d="M0,175.23c36.81,16.08,77.34,23.47,113.57,4.53,31.58-16.51,34.33-39.68,64.89-49.86,43.6-14.52,59.67,25.39,112.61,24.93S354.86,114,419,95.91c54.21-15.33,102.61-.25,120.25,4.53,50.19,13.6,50.33,29.63,91.62,36.26,46.87,7.53,50.36-12.54,116.43-13.6,36.25-.58,76.72-1.23,120.25,22.66,32.2,17.67,37,32.84,59.17,36.26,38,5.86,73.36-31.18,97.34-63.45V0H0Z"/></g></g></svg>