<?xml version="1.0" encoding="utf-8"?>
<!-- Generator: Adobe Illustrator 21.0.0, SVG Export Plug-In . SVG Version: 6.00 Build 0)  -->
<svg version="1.1" id="Camada_1" xmlns="http://www.w3.org/2000/svg" xmlns:xlink="http://www.w3.org/1999/xlink" x="0px" y="0px"
	 viewBox="0 0 1024 1553" style="enable-background:new 0 0 1024 1553;" xml:space="preserve">
<style type="text/css">
	.st0{fill:url(#SVGID_1_);}
	.st1{fill:#FFFFFF;}
</style>
<title>bg5</title>
<g id="Camada_2">
	<g id="main">
		
			<linearGradient id="SVGID_1_" gradientUnits="userSpaceOnUse" x1="512" y1="1" x2="512" y2="1535" gradientTransform="matrix(1 0 0 -1 0 1554)">
			<stop  offset="0" style="stop-color:#3B7E96"/>
			<stop  offset="0.13" style="stop-color:#39868A"/>
			<stop  offset="0.39" style="stop-color:#369079"/>
			<stop  offset="0.67" style="stop-color:#35976E"/>
			<stop  offset="1" style="stop-color:#34996B"/>
		</linearGradient>
		<path class="st0" d="M501,19H0v1534h1024V19H501z"/>
		<path class="st1" d="M1024,1311.1c-36.8-23.6-77.3-34.4-113.6-6.6c-31.6,24.2-34.3,58.1-64.9,73.1
			c-43.6,21.3-59.7-37.2-112.6-36.5s-63.8,59.8-127.9,86.3c-54.2,22.5-102.6,0.4-120.3-6.6c-50.2-19.9-50.3-43.4-91.6-53.1
			c-46.9-11-50.4,18.4-116.4,19.9c-36.3,0.9-76.7,1.8-120.3-33.2c-32.2-25.9-37-48.1-59.2-53.1c-38-8.6-73.4,45.7-97.3,92.9v173.8
			h1024V1311.1z"/>
		<path class="st1" d="M0,258.7c36.8,23.8,77.3,34.7,113.6,6.7c31.6-24.4,34.3-58.6,64.9-73.6c43.6-21.4,59.7,37.5,112.6,36.8
			s63.8-60.2,127.9-87c54.2-22.6,102.6-0.4,120.3,6.7c50.2,20.1,50.3,43.7,91.6,53.5c46.9,11.1,50.4-18.5,116.4-20.1
			c36.3-0.9,76.7-1.8,120.3,33.5c32.2,26.1,37,48.5,59.2,53.5c38,8.7,73.4-46,97.3-93.7V0H0V258.7z"/>
	</g>
</g>
</svg>
