<svg xmlns="http://www.w3.org/2000/svg" xmlns:xlink="http://www.w3.org/1999/xlink" viewBox="0 0 1545 1015"><defs><style>.cls-1{fill:url(#Gradiente_sem_nome_12);}.cls-2{fill:#fff;}</style><linearGradient id="Gradiente_sem_nome_12" x1="772.5" y1="976" x2="772.5" y2="8" gradientUnits="userSpaceOnUse"><stop offset="0" stop-color="#bc3910"/><stop offset="0.19" stop-color="#b93913"/><stop offset="0.36" stop-color="#ae391c"/><stop offset="0.51" stop-color="#9c382a"/><stop offset="0.66" stop-color="#84383f"/><stop offset="0.81" stop-color="#64375a"/><stop offset="0.95" stop-color="#3d367b"/><stop offset="1" stop-color="#2c3689"/></linearGradient></defs><title>bgeg2</title><g id="Camada_2" data-name="Camada 2"><g id="main"><g id="fundo"><path class="cls-1" d="M1545,976H0V8H1545Z"/></g><path class="cls-2" d="M0,251.33c55.54,23.07,116.69,33.67,171.35,6.5,47.65-23.68,51.79-56.91,97.91-71.51,65.79-20.83,90,36.42,169.91,35.75,80.06-.67,96.25-58.52,192.95-84.51,81.79-22,154.82-.35,181.43,6.5,75.73,19.5,75.93,42.49,138.23,52,70.72,10.8,76-18,175.67-19.5,54.7-.83,115.76-1.76,181.43,32.5,48.58,25.35,55.89,47.11,89.27,52,57.31,8.41,110.69-44.72,146.87-91V0H0Z"/><path class="cls-2" d="M1545,834.19c-55.54-16.6-116.69-24.22-171.35-4.68-47.65,17-51.79,40.94-97.91,51.44-65.79,15-90-26.2-169.91-25.72-80.06.48-96.25,42.1-192.95,60.8-81.79,15.81-159.25,8.37-181.43-4.68-76.65-45.1-100.35,5.13-162.65-1.71-70.72-7.77-61.76-54.39-161.44-53.3-54.7.6-137.31,60.61-171.23,8.25-29.44-45.43-73-66.7-106.39-70.22-57.31-6.05-93.57,65-129.76,98.28V1015H1545Z"/></g></g></svg>