<?xml version="1.0" encoding="utf-8"?>
<!-- Generator: Adobe Illustrator 21.0.0, SVG Export Plug-In . SVG Version: 6.00 Build 0)  -->
<svg version="1.1" id="Camada_1" xmlns="http://www.w3.org/2000/svg" xmlns:xlink="http://www.w3.org/1999/xlink" x="0px" y="0px"
	 viewBox="0 0 1781 1553" style="enable-background:new 0 0 1781 1553;" xml:space="preserve">
<style type="text/css">
	.st0{fill:url(#SVGID_1_);}
	.st1{fill:url(#SVGID_2_);}
	.st2{fill:#FFFFFF;}
</style>
<title>bgeg4</title>
<g id="Camada_2">
	<g id="main">
		<g id="fundo">
			
				<linearGradient id="SVGID_1_" gradientUnits="userSpaceOnUse" x1="890.5" y1="767" x2="890.5" y2="1535" gradientTransform="matrix(1 0 0 -1 0 1554)">
				<stop  offset="0" style="stop-color:#A7BF30"/>
				<stop  offset="0.11" style="stop-color:#B8C82F"/>
				<stop  offset="0.35" style="stop-color:#D6D92D"/>
				<stop  offset="0.58" style="stop-color:#ECE52B"/>
				<stop  offset="0.8" style="stop-color:#FAED2A"/>
				<stop  offset="1" style="stop-color:#FEEF2A"/>
			</linearGradient>
			<path class="st0" d="M1781,787H0V19h1781V787z"/>
		</g>
		<g id="fundo-2">
			
				<linearGradient id="SVGID_2_" gradientUnits="userSpaceOnUse" x1="-1116.5" y1="4945" x2="-1116.5" y2="5713" gradientTransform="matrix(-1 0 0 1 -226 -4160)">
				<stop  offset="0" style="stop-color:#A7BF30"/>
				<stop  offset="0.24" style="stop-color:#A4BE32"/>
				<stop  offset="0.42" style="stop-color:#9ABB37"/>
				<stop  offset="0.58" style="stop-color:#8AB53F"/>
				<stop  offset="0.73" style="stop-color:#73AE4B"/>
				<stop  offset="0.87" style="stop-color:#55A45A"/>
				<stop  offset="1" style="stop-color:#34996B"/>
			</linearGradient>
			<path class="st1" d="M0,785h1781v768H0V785z"/>
		</g>
		<path class="st2" d="M1781,1310.9c-64-23.3-134.5-34-197.5-6.6c-54.9,23.9-59.7,57.5-112.9,72.3c-75.8,21.1-103.8-36.8-195.9-36.2
			c-92.3,0.7-110.9,59.2-222.4,85.5c-94.3,22.2-178.5,0.4-209.1-6.6c-87.3-19.7-87.5-43-159.3-52.6c-81.5-10.9-87.6,18.2-202.5,19.7
			c-63,0.8-133.4,1.8-209.1-32.9c-56-25.6-64.4-47.6-102.9-52.6c-66.1-8.5-127.6,45.2-169.3,92v172h1781V1310.9z"/>
		<path class="st2" d="M0,258.7c64,23.8,134.5,34.7,197.5,6.7c54.9-24.4,59.7-58.6,112.9-73.6c75.8-21.4,103.8,37.5,195.9,36.8
			c92.3-0.7,111-60.2,222.4-87c94.3-22.6,178.5-0.4,209.1,6.7c87.3,20.1,87.5,43.7,159.3,53.5c81.5,11.1,87.6-18.5,202.5-20.1
			c63.1-0.9,133.4-1.8,209.1,33.5c56,26.1,64.4,48.5,102.9,53.5c66.1,8.7,127.6-46,169.3-93.7V0H0V258.7z"/>
	</g>
</g>
</svg>
