<svg xmlns="http://www.w3.org/2000/svg" xmlns:xlink="http://www.w3.org/1999/xlink" viewBox="0 0 1578 1086"><defs><style>.cls-1{fill:url(#Gradiente_sem_nome_16);}.cls-2{fill:#fff;}</style><linearGradient id="Gradiente_sem_nome_16" x1="-2547" y1="-706" x2="-2547" y2="-1769.84" gradientTransform="translate(-1758 -706) rotate(180)" gradientUnits="userSpaceOnUse"><stop offset="0" stop-color="#bc3910"/><stop offset="0.2" stop-color="#bd3c10"/><stop offset="0.35" stop-color="#c14512"/><stop offset="0.49" stop-color="#c65614"/><stop offset="0.61" stop-color="#cf6c17"/><stop offset="0.73" stop-color="#d98a1c"/><stop offset="0.84" stop-color="#e6ae21"/><stop offset="0.95" stop-color="#f6d827"/><stop offset="1" stop-color="#feef2a"/></linearGradient></defs><title>bgeg3</title><g id="Camada_2" data-name="Camada 2"><g id="main"><g id="fundo"><path class="cls-1" d="M0,0H1578V1063.84H0Z"/></g><path class="cls-2" d="M0,383.49c56.73,35.2,119.19,51.37,175,9.92,48.67-36.14,52.9-86.83,100-109.11,67.19-31.78,92,55.58,173.54,54.55,81.77-1,98.3-89.29,197.07-128.95,83.54-33.54,158.12-.54,185.3,9.92,77.35,29.76,77.55,64.84,141.18,79.35,72.23,16.47,77.61-27.44,179.42-29.76,55.87-1.27,118.23-2.69,185.3,49.6,49.62,38.68,57.08,71.88,91.18,79.35,58.54,12.83,113.05-68.23,150-138.87V0H0Z"/><path class="cls-2" d="M1578,831c-56.73-23.41-119.19-34.16-175-6.6-48.67,24-52.9,57.75-100,72.57-67.19,21.14-92-37-173.54-36.28-81.77.68-98.3,59.39-197.07,85.76-83.54,22.31-158.12.36-185.3-6.6C669.74,920,669.53,896.68,605.91,887c-72.23-11-77.61,18.25-179.42,19.79-55.87.84-118.23,1.79-185.3-33C191.56,848.11,184.1,826,150,821.06,91.47,812.52,37,866.44,0,913.42V1086H1578Z"/></g></g></svg>