<?xml version="1.0" encoding="utf-8"?>
<!-- Generator: Adobe Illustrator 21.0.0, SVG Export Plug-In . SVG Version: 6.00 Build 0)  -->
<svg version="1.1" id="Camada_1" xmlns="http://www.w3.org/2000/svg" xmlns:xlink="http://www.w3.org/1999/xlink" x="0px" y="0px"
	 viewBox="0 0 1673 957" style="enable-background:new 0 0 1673 957;" xml:space="preserve">
<style type="text/css">
	.st0{fill:url(#SVGID_1_);}
	.st1{fill:#FFFFFF;}
</style>
<title>bgeg5</title>
<g id="Camada_2">
	<g id="main">
		
			<linearGradient id="SVGID_1_" gradientUnits="userSpaceOnUse" x1="836.5001" y1="-707" x2="836.5001" y2="235.5" gradientTransform="matrix(1 0 0 1 0 712)">
			<stop  offset="0" style="stop-color:#3B7E96"/>
			<stop  offset="0.3026" style="stop-color:#395D8A"/>
			<stop  offset="0.67" style="stop-color:#54426E"/>
			<stop  offset="1" style="stop-color:#845E6B"/>
		</linearGradient>
		<path class="st0" d="M818.5,5H0v942.5h1673V5H818.5z"/>
		<path class="st1" d="M1673,713.9c-60.1-22.3-126.4-32.6-185.5-6.3c-51.6,22.9-56.1,55-106,69.2c-71.2,20.2-97.5-35.2-184-34.6
			c-86.7,0.7-104.2,56.6-208.9,81.8c-88.6,21.3-167.6,0.3-196.5-6.3c-82-18.9-82.2-41.1-149.7-50.3c-76.6-10.4-82.3,17.4-190.2,18.9
			c-59.2,0.8-125.4,1.7-196.5-31.4c-52.6-24.5-60.5-45.6-96.7-50.3c-62.1-8.1-119.9,43.3-159,88V957h1673V713.9z"/>
		<path class="st1" d="M0,235.3c60.1,21.6,126.4,31.5,185.5,6.1c51.6-22.2,56.1-53.3,106-66.9c71.2-19.5,97.5,34.1,184,33.5
			c86.7-0.6,104.2-54.8,208.9-79.1c88.5-20.6,167.7-0.3,196.5,6.1c82,18.3,82.2,39.8,149.7,48.7c76.6,10.1,82.3-16.8,190.2-18.3
			c59.2-0.8,125.3-1.6,196.5,30.4c52.6,23.7,60.5,44.1,96.7,48.7c62.1,7.9,119.9-41.8,159-85.2V0H0V235.3z"/>
	</g>
</g>
</svg>
