<?xml version="1.0" encoding="utf-8"?>
<!-- Generator: Adobe Illustrator 21.0.0, SVG Export Plug-In . SVG Version: 6.00 Build 0)  -->
<svg version="1.1" id="Camada_1" xmlns="http://www.w3.org/2000/svg" xmlns:xlink="http://www.w3.org/1999/xlink" x="0px" y="0px"
	 viewBox="0 0 1673 1553" style="enable-background:new 0 0 1673 1553;" xml:space="preserve">
<style type="text/css">
	.st0{fill:url(#SVGID_1_);}
	.st1{fill:#FFFFFF;}
</style>
<title>bgeg5</title>
<g id="Camada_2">
	<g id="main">
		
			<linearGradient id="SVGID_1_" gradientUnits="userSpaceOnUse" x1="836.5" y1="841" x2="836.5" y2="-693" gradientTransform="matrix(1 0 0 1 0 712)">
			<stop  offset="0" style="stop-color:#3B7E96"/>
			<stop  offset="0.13" style="stop-color:#39868A"/>
			<stop  offset="0.39" style="stop-color:#369079"/>
			<stop  offset="0.67" style="stop-color:#35976E"/>
			<stop  offset="1" style="stop-color:#34996B"/>
		</linearGradient>
		<path class="st0" d="M818.5,19H0v1534h1673V19H818.5z"/>
		<path class="st1" d="M1673,1100.1c-60.1-23.5-126.4-34.3-185.5-6.6c-51.6,24.1-56.1,57.9-106,72.9c-71.2,21.3-97.5-37.1-184-36.4
			c-86.7,0.7-104.2,59.6-208.9,86.1c-88.6,22.4-167.6,0.3-196.5-6.6c-82-19.9-82.2-43.3-149.7-53c-76.6-10.9-82.3,18.3-190.2,19.9
			c-59.2,0.8-125.4,1.8-196.5-33.1c-52.6-25.8-60.5-48-96.7-53c-62.1-8.5-119.9,45.6-159,92.6V1567h1673V1311.1z"/>
		<path class="st1" d="M0,380.9c60.1,21.6,126.4,31.5,185.5,6.1c51.6-22.2,56.1-53.3,106-66.9c71.2-19.5,97.5,34.1,184,33.5
			c86.7-0.6,104.2-54.8,208.9-79.1c88.5-20.6,167.7-0.3,196.5,6.1c82,18.3,82.2,39.8,149.7,48.7c76.6,10.1,82.3-16.8,190.2-18.3
			c59.2-0.8,125.3-1.6,196.5,30.4c52.6,23.7,60.5,44.1,96.7,48.7c62.1,7.9,119.9-41.8,159-85.2V-14.4H0V220.9z"/>
	</g>
</g>
</svg>
