<svg xmlns="http://www.w3.org/2000/svg" xmlns:xlink="http://www.w3.org/1999/xlink" viewBox="0 0 1545 941"><defs><style>.cls-1{fill:url(#Gradiente_sem_nome_12);}.cls-2{fill:#fff;}</style><linearGradient id="Gradiente_sem_nome_12" x1="772.5" y1="941" x2="772.5" gradientUnits="userSpaceOnUse"><stop offset="0" stop-color="#bc3910"/><stop offset="0.19" stop-color="#b93913"/><stop offset="0.36" stop-color="#ae391c"/><stop offset="0.51" stop-color="#9c382a"/><stop offset="0.66" stop-color="#84383f"/><stop offset="0.81" stop-color="#64375a"/><stop offset="0.95" stop-color="#3d367b"/><stop offset="1" stop-color="#2c3689"/></linearGradient></defs><title>bgeg2</title><g id="Camada_2" data-name="Camada 2"><g id="main"><g id="fundo"><path class="cls-1" d="M1545,941H0V0H1545Z"/></g><path class="cls-2" d="M0,237.18C55.54,259,116.69,269,171.35,243.32c47.65-22.35,51.79-53.7,97.91-67.48,65.79-19.66,90,34.37,169.91,33.74,80.06-.63,96.25-55.23,192.95-79.75,81.79-20.74,154.82-.33,181.43,6.13,75.73,18.41,75.93,40.1,138.23,49.08,70.72,10.19,76-17,175.67-18.4,54.7-.79,115.76-1.66,181.43,30.67,48.58,23.92,55.89,44.46,89.27,49.08,57.31,7.94,110.69-42.2,146.87-85.89V0H0Z"/><path class="cls-2" d="M1545,762.27c-55.54-16.4-116.69-23.94-171.35-4.62-47.65,16.84-51.79,40.47-97.91,50.85-65.79,14.81-90-25.9-169.91-25.43-80.06.48-96.25,41.62-192.95,60.1-81.79,15.63-159.25,8.27-181.43-4.62-76.65-44.58-100.35,5.07-162.65-1.69-70.72-7.68-61.76-53.76-161.44-52.69-54.7.59-137.31,59.91-171.23,8.15-29.44-44.91-73-65.93-106.39-69.41-57.31-6-93.57,64.23-129.76,97.15V941H1545Z"/></g></g></svg>