<svg xmlns="http://www.w3.org/2000/svg" xmlns:xlink="http://www.w3.org/1999/xlink" viewBox="0 0 320 480"><defs><style>.cls-1{fill:url(#Gradiente_sem_nome_172);}.cls-2{fill:#fff;}</style><linearGradient id="Gradiente_sem_nome_172" x1="160" x2="160" y2="480" gradientUnits="userSpaceOnUse"><stop offset="0" stop-color="#63adda"/><stop offset="0.19" stop-color="#61a9d7"/><stop offset="0.37" stop-color="#5c9ed0"/><stop offset="0.55" stop-color="#538bc3"/><stop offset="0.73" stop-color="#4770b0"/><stop offset="0.9" stop-color="#374e99"/><stop offset="1" stop-color="#2c3689"/></linearGradient></defs><title>bgm</title><g id="Camada_2" data-name="Camada 2"><g id="main"><rect class="cls-1" width="320" height="480"/><path class="cls-2" d="M131,0c-3.86,34.79,3.81,48.85,12.22,55,13.64,10,29.42-.51,58.92,7.86,19.17,5.44,25.54,13.59,39.28,21C260.38,94,269.89,106.67,320,93V0Z"/><path class="cls-2" d="M0,429c55-16.32,81.71-15.48,96-11.6,12.71,3.45,11.66,8.25,29,13,21,5.74,48.59,5.87,70,2.32,22.44-3.72,21.89-8.78,42-10.67,23.74-2.23,44.43,3,53,5.1,25.18,6.31,25.38,16.12,30,20.42V480H0Z"/></g></g></svg>