<?xml version="1.0" encoding="utf-8"?>
<!-- Generator: Adobe Illustrator 21.0.0, SVG Export Plug-In . SVG Version: 6.00 Build 0)  -->
<svg version="1.1" id="Camada_1" xmlns="http://www.w3.org/2000/svg" xmlns:xlink="http://www.w3.org/1999/xlink" x="0px" y="0px"
	 viewBox="0 0 320 480" style="enable-background:new 0 0 320 480;" xml:space="preserve">
<style type="text/css">
	.st0{fill:url(#SVGID_1_);}
	.st1{fill:#FFFFFF;}
</style>
<title>bgm</title>
<g id="Camada_2">
	<g id="main">
		
			<linearGradient id="SVGID_1_" gradientUnits="userSpaceOnUse" x1="160" y1="482" x2="160" y2="2" gradientTransform="matrix(1 0 0 -1 0 482)">
			<stop  offset="0" style="stop-color:#63ADDA"/>
			<stop  offset="0.19" style="stop-color:#61A9D7"/>
			<stop  offset="0.37" style="stop-color:#5C9ED0"/>
			<stop  offset="0.55" style="stop-color:#538BC3"/>
			<stop  offset="0.73" style="stop-color:#4770B0"/>
			<stop  offset="0.9" style="stop-color:#374E99"/>
			<stop  offset="1" style="stop-color:#2C3689"/>
		</linearGradient>
		<rect class="st0" width="320" height="480"/>
		<path class="st1" d="M131,0c-3.9,34.8,3.8,48.8,12.2,55c13.6,10,29.4-0.5,58.9,7.9c19.2,5.4,25.5,13.6,39.3,21
			c19,10.1,28.5,22.8,78.6,9.1V0H131z"/>
		<path class="st1" d="M0,429c55-16.3,81.7-15.5,96-11.6c12.7,3.5,11.7,8.3,29,13c21,5.7,48.6,5.9,70,2.3c22.4-3.7,21.9-8.8,42-10.7
			c23.7-2.2,44.4,3,53,5.1c25.2,6.3,25.4,16.1,30,20.4V480H0V429z"/>
	</g>
</g>
</svg>
