<svg xmlns="http://www.w3.org/2000/svg" xmlns:xlink="http://www.w3.org/1999/xlink" viewBox="0 0 320 407.71"><defs><style>.cls-1{fill:url(#Gradiente_sem_nome_16);}</style><linearGradient id="Gradiente_sem_nome_16" y1="203.85" x2="320" y2="203.85" gradientUnits="userSpaceOnUse"><stop offset="0" stop-color="#001d7e"/><stop offset="1" stop-color="#4a72b2"/></linearGradient></defs><title>bgm</title><g id="Camada_2" data-name="Camada 2"><g id="main"><path class="cls-1" d="M234.3,45.66c-19.91-2.1-28.4,9.29-45,13C153.47,66.66,103,33.67,81.64,0H0V397a28.85,28.85,0,0,1,6.11,4.18l10.12-17.52a31.93,31.93,0,0,1,27.65-16h35.7a31.93,31.93,0,0,1,27.65,16l8.26,14.31a28.76,28.76,0,0,1,22.34-10.66H170a28.76,28.76,0,0,1,19.3,7.45l6.1-10.57A33,33,0,0,1,224,367.66h36.88a33,33,0,0,1,28.57,16.49L303,407.71a33,33,0,0,1,17-12.37V81.86a119.77,119.77,0,0,1-33.7-8.2C260.72,63.06,256,48,234.3,45.66Z"/></g></g></svg>