<?xml version="1.0" encoding="utf-8"?>
<!-- Generator: Adobe Illustrator 21.0.0, SVG Export Plug-In . SVG Version: 6.00 Build 0)  -->
<svg version="1.1" id="Camada_1" xmlns="http://www.w3.org/2000/svg" xmlns:xlink="http://www.w3.org/1999/xlink" x="0px" y="0px"
	 viewBox="0 0 320 480" style="enable-background:new 0 0 320 480;" xml:space="preserve">
<style type="text/css">
	.st0{fill:url(#SVGID_1_);}
	.st1{fill:#FFFFFF;}
</style>
<title>bgm2</title>
<g id="Camada_2">
	<g id="main">
		
			<linearGradient id="SVGID_1_" gradientUnits="userSpaceOnUse" x1="160" y1="2" x2="160" y2="482" gradientTransform="matrix(1 0 0 -1 0 482)">
			<stop  offset="0" style="stop-color:#BC3910"/>
			<stop  offset="0.2" style="stop-color:#B93913"/>
			<stop  offset="0.37" style="stop-color:#AF391B"/>
			<stop  offset="0.52" style="stop-color:#9E3829"/>
			<stop  offset="0.66" style="stop-color:#86383E"/>
			<stop  offset="0.8" style="stop-color:#673758"/>
			<stop  offset="0.93" style="stop-color:#413677"/>
			<stop  offset="1" style="stop-color:#2C3689"/>
		</linearGradient>
		<rect class="st0" width="320" height="480"/>
		<path class="st1" d="M320,53c-14.5,9.7-34.9,19.7-55.2,14.8c-15.3-3.7-18.3-13-35.9-19.1c-23.2-8.1-31.4,3.4-60.7,1.7
			c-44.1-2.5-54.2-30.1-82.8-22.6c-18.5,4.9-20,18-40.5,21.7C27.5,52.7,11.3,46.2,0,39.9V0h320V53z"/>
		<path class="st1" d="M0,432c14.5-8.8,34.9-17.8,55.2-13.4C70.5,422,73.5,430.4,91,436c23.2,7.4,31.4-3,60.7-1.6
			c44.1,2.2,54.2,27.3,82.8,20.5c18.5-4.4,20-16.3,40.5-19.7c17.5-2.9,33.7,3,45.1,8.7V480H0V432z"/>
	</g>
</g>
</svg>
