<svg xmlns="http://www.w3.org/2000/svg" xmlns:xlink="http://www.w3.org/1999/xlink" viewBox="0 0 320 480"><defs><style>.cls-1{fill:url(#Gradiente_sem_nome_11);}.cls-2{fill:#fff;}</style><linearGradient id="Gradiente_sem_nome_11" x1="160" y1="480" x2="160" gradientUnits="userSpaceOnUse"><stop offset="0" stop-color="#bc3910"/><stop offset="0.2" stop-color="#b93913"/><stop offset="0.37" stop-color="#af391b"/><stop offset="0.52" stop-color="#9e3829"/><stop offset="0.66" stop-color="#86383e"/><stop offset="0.8" stop-color="#673758"/><stop offset="0.93" stop-color="#413677"/><stop offset="1" stop-color="#2c3689"/></linearGradient></defs><title>bgm2</title><g id="Camada_2" data-name="Camada 2"><g id="main"><rect class="cls-1" width="320" height="480"/><path class="cls-2" d="M320,53c-14.54,9.71-34.92,19.66-55.17,14.76-15.32-3.71-18.31-13-35.86-19.1-23.24-8.14-31.43,3.36-60.69,1.74-44.06-2.45-54.21-30.1-82.76-22.57-18.48,4.88-20,18-40.46,21.7C27.55,52.65,11.32,46.19,0,39.93V0H320Z"/><path class="cls-2" d="M0,434c14.54-8.44,34.92-17.1,55.17-12.83,15.32,3.23,18.31,11.26,35.86,16.61,23.24,7.08,31.43-2.92,60.69-1.51,44.06,2.13,54.21,26.18,82.76,19.63,18.48-4.24,20-15.64,40.46-18.87,17.51-2.76,33.74,2.86,45.06,8.3V480H0Z"/></g></g></svg>