<?xml version="1.0" encoding="utf-8"?>
<!-- Generator: Adobe Illustrator 21.0.0, SVG Export Plug-In . SVG Version: 6.00 Build 0)  -->
<svg version="1.1" id="Camada_1" xmlns="http://www.w3.org/2000/svg" xmlns:xlink="http://www.w3.org/1999/xlink" x="0px" y="0px"
	 viewBox="0 0 320 480" style="enable-background:new 0 0 320 480;" xml:space="preserve">
<style type="text/css">
	.st0{fill:url(#SVGID_1_);}
	.st1{fill:#FFFFFF;}
</style>
<title>bgm3</title>
<g id="Camada_2">
	<g id="main">
		
			<linearGradient id="SVGID_1_" gradientUnits="userSpaceOnUse" x1="160" y1="479.7922" x2="160" y2="-0.2078" gradientTransform="matrix(1 0 0 -1 0 482)">
			<stop  offset="0" style="stop-color:#BC3910"/>
			<stop  offset="0.25" style="stop-color:#BD3C10"/>
			<stop  offset="0.4" style="stop-color:#C04412"/>
			<stop  offset="0.53" style="stop-color:#C55214"/>
			<stop  offset="0.64" style="stop-color:#CD6717"/>
			<stop  offset="0.74" style="stop-color:#D6811A"/>
			<stop  offset="0.84" style="stop-color:#E2A11F"/>
			<stop  offset="0.92" style="stop-color:#EFC724"/>
			<stop  offset="1" style="stop-color:#FEEF2A"/>
		</linearGradient>
		<rect x="0" y="2.2" class="st0" width="320" height="480"/>
		<path class="st1" d="M320,86.4c-14.5,16.2-34.9,32.9-55.2,24.7c-15.3-6.2-18.3-21.7-35.9-31.9c-23.2-13.6-31.4,5.6-60.7,2.9
			c-44.1-4.1-54.2-50.4-82.8-37.8c-18.5,8.2-20,30.1-40.5,36.3c-17.5,5.3-33.7-5.5-45.1-16V-2.2h320V86.4z"/>
	</g>
</g>
<path class="st1" d="M0,393.5c14.5-16.6,34.9-33.7,55.2-25.3c15.3,6.4,18.3,22.2,35.9,32.7c23.2,13.9,31.4-5.8,60.7-3
	c44.1,4.2,54.2,51.5,82.8,38.6c18.5-8.4,20-30.8,40.5-37.2c17.5-5.4,33.7,5.6,45.1,16.3v68.4H0V393.5z"/>
</svg>
