<?xml version="1.0" encoding="utf-8"?>
<!-- Generator: Adobe Illustrator 21.0.0, SVG Export Plug-In . SVG Version: 6.00 Build 0)  -->
<svg version="1.1" id="Camada_1" xmlns="http://www.w3.org/2000/svg" xmlns:xlink="http://www.w3.org/1999/xlink" x="0px" y="0px"
	 viewBox="0 0 320 957" style="enable-background:new 0 0 320 957;" xml:space="preserve">
<style type="text/css">
	.st0{fill:url(#SVGID_1_);}
	.st1{fill:url(#SVGID_2_);}
	.st2{fill:#FFFFFF;}
</style>
<title>bgm3</title>
<g>
	<g>
		<linearGradient id="SVGID_1_" gradientUnits="userSpaceOnUse" x1="160.0005" y1="482.0001" x2="160.0005" y2="2.0001">
			<stop  offset="0" style="stop-color:#A6BE30"/>
			<stop  offset="0.2418" style="stop-color:#C3CE2E"/>
			<stop  offset="0.5541" style="stop-color:#E3E02C"/>
			<stop  offset="0.818" style="stop-color:#F6EA2A"/>
			<stop  offset="1" style="stop-color:#FDEE2A"/>
		</linearGradient>
		<rect x="0" y="2" class="st0" width="320" height="480"/>
	</g>
	<g>
		<linearGradient id="SVGID_2_" gradientUnits="userSpaceOnUse" x1="160" y1="477.0001" x2="160" y2="957.0001">
			<stop  offset="0" style="stop-color:#A6BE30"/>
			<stop  offset="0.2368" style="stop-color:#A3BD32"/>
			<stop  offset="0.418" style="stop-color:#99BA37"/>
			<stop  offset="0.5807" style="stop-color:#89B43F"/>
			<stop  offset="0.7327" style="stop-color:#72AD4B"/>
			<stop  offset="0.8757" style="stop-color:#54A35A"/>
			<stop  offset="1" style="stop-color:#34986B"/>
		</linearGradient>
		<rect y="477" class="st1" width="320" height="480"/>
		<path class="st2" d="M0,836.5c14.5-22.1,34.9-44.7,55.2-33.6c15.3,8.4,18.3,29.5,35.9,43.5c23.2,18.5,31.4-7.6,60.7-4
			c44.1,5.6,54.2,68.5,82.8,51.4c18.5-11.1,20-40.9,40.5-49.4c17.5-7.2,33.7,7.5,45.1,21.7V957H0V836.5z"/>
	</g>
	<path class="st2" d="M320,95.2c-14.5,17.4-34.9,35.3-55.2,26.5c-15.3-6.7-18.3-23.3-35.9-34.3c-23.2-14.6-31.4,6-60.7,3.1
		c-44.1-4.4-54.2-54.1-82.8-40.6c-18.5,8.8-20,32.3-40.5,39C27.5,94.6,11.3,83,0,71.8V0h320V95.2z"/>
</g>
</svg>
