<svg xmlns="http://www.w3.org/2000/svg" xmlns:xlink="http://www.w3.org/1999/xlink" viewBox="0 0 320 957"><defs><style>.cls-1{fill:url(#Gradiente_sem_nome_64);}.cls-2{fill:#fff;}</style><linearGradient id="Gradiente_sem_nome_64" x1="160" y1="2" x2="160" y2="957" gradientTransform="translate(320 959) rotate(180)" gradientUnits="userSpaceOnUse"><stop offset="0" stop-color="#3b7e96"/><stop offset="0.13" stop-color="#39868a"/><stop offset="0.39" stop-color="#369079"/><stop offset="0.67" stop-color="#35976e"/><stop offset="1" stop-color="#34996b"/></linearGradient></defs><title>bgm5</title><g id="Camada_2" data-name="Camada 2"><g id="main"><polygon class="cls-1" points="0 957 320 957 320 482 320 482 320 2 0 2 0 477 0 477 0 957"/><path class="cls-2" d="M0,836.52c14.54-22.09,34.92-44.74,55.17-33.58,15.32,8.44,18.31,29.47,35.86,43.45,23.24,18.51,31.43-7.65,60.69-4,44.06,5.56,54.21,68.5,82.76,51.35,18.48-11.1,20-40.94,40.46-49.38,17.51-7.22,33.74,7.47,45.06,21.73V957H0Z"/><path class="cls-2" d="M320,95.16c-14.54,17.44-34.92,35.34-55.17,26.52C249.51,115,246.52,98.4,229,87.36c-23.24-14.62-31.43,6-60.69,3.12-44.06-4.4-54.21-54.1-82.76-40.56-18.48,8.77-20,32.33-40.46,39C27.55,94.62,11.32,83,0,71.76V0H320Z"/></g></g></svg>