<?xml version="1.0" encoding="utf-8"?>
<!-- Generator: Adobe Illustrator 21.0.0, SVG Export Plug-In . SVG Version: 6.00 Build 0)  -->
<svg version="1.1" id="Camada_1" xmlns="http://www.w3.org/2000/svg" xmlns:xlink="http://www.w3.org/1999/xlink" x="0px" y="0px"
	 viewBox="0 0 320 478.5" style="enable-background:new 0 0 320 478.5;" xml:space="preserve">
<style type="text/css">
	.st0{fill:url(#SVGID_1_);}
	.st1{fill:#FFFFFF;}
</style>
<title>bgm5</title>
<g id="Camada_2">
	<g id="main">
		
			<linearGradient id="SVGID_1_" gradientUnits="userSpaceOnUse" x1="-114" y1="-117" x2="-114" y2="361.5" gradientTransform="matrix(-1 0 0 1 46 117)">
			<stop  offset="0" style="stop-color:#3B7E96"/>
			<stop  offset="0.3026" style="stop-color:#395D8A"/>
			<stop  offset="0.67" style="stop-color:#54426E"/>
			<stop  offset="1" style="stop-color:#845E6B"/>
		</linearGradient>
		<polygon class="st0" points="0,478.5 320,478.5 320,240.5 320,240.5 320,0 0,0 0,238 0,238 		"/>
		<path class="st1" d="M0,358c14.5-22.1,34.9-44.7,55.2-33.6c15.3,8.4,18.3,29.5,35.9,43.5c23.2,18.5,31.4-7.7,60.7-4
			c44.1,5.6,54.2,68.5,82.8,51.3c18.5-11.1,20-40.9,40.5-49.4c17.5-7.2,33.7,7.5,45.1,21.7v90.9H0V358z"/>
		<path class="st1" d="M320,95.2c-14.5,17.4-34.9,35.3-55.2,26.5c-15.3-6.7-18.3-23.3-35.8-34.3c-23.2-14.6-31.4,6-60.7,3.1
			c-44.1-4.4-54.2-54.1-82.8-40.6c-18.5,8.8-20,32.3-40.5,39C27.5,94.6,11.3,83,0,71.8V0h320V95.2z"/>
	</g>
</g>
</svg>
