<svg xmlns="http://www.w3.org/2000/svg" viewBox="0 0 71 41"><defs><style>.cls-1{fill:#fff;}.cls-2{fill:#5a6cab;}</style></defs><title>button</title><g id="Camada_2" data-name="Camada 2"><g id="main"><path id="minicloud" class="cls-1" d="M61.16,14.46A9.6,9.6,0,0,0,52.34,8,8.74,8.74,0,0,0,50,8.33C49.47,3.64,45.83,0,41.42,0a8.67,8.67,0,0,0-8,5.77A8.34,8.34,0,0,0,26.85,2c-5.2,0-9.43,5.88-9.55,13.18a11.31,11.31,0,0,0-5-1.18C5.5,14,0,20,0,27.5S5.5,41,12.29,41a11.41,11.41,0,0,0,6.35-2,17.33,17.33,0,0,0,8.21,2,16.56,16.56,0,0,0,9.55-2.8A13,13,0,0,0,44.6,41a13.32,13.32,0,0,0,6.7-1.76A12.9,12.9,0,0,0,57.8,41a13.53,13.53,0,0,0,3.36-26.54Z"/><g id="seta"><path class="cls-2" d="M34.94,12.53V28.78a1.56,1.56,0,0,0,3.13,0V12.53a1.56,1.56,0,0,0-3.12,0Z"/><path class="cls-2" d="M27.9,24.57l7.5,7.5a1.59,1.59,0,0,0,2.21,0l7.5-7.5a1.56,1.56,0,0,0-2.21-2.21l-7.5,7.5H37.6l-7.5-7.5a1.56,1.56,0,0,0-2.21,2.21Z"/></g></g></g></svg>