<?xml version="1.0" encoding="utf-8"?>
<!-- Generator: Adobe Illustrator 21.0.0, SVG Export Plug-In . SVG Version: 6.00 Build 0)  -->
<svg version="1.1" id="Camada_1" xmlns="http://www.w3.org/2000/svg" xmlns:xlink="http://www.w3.org/1999/xlink" x="0px" y="0px"
	 viewBox="0 0 382 382" style="enable-background:new 0 0 382 382;" xml:space="preserve">
<style type="text/css">
	.st0{fill:#426BA2;}
	.st1{fill:#C94C1B;}
	.st2{fill:url(#SVGID_1_);}
	.st3{fill:url(#SVGID_2_);}
	.st4{fill:url(#SVGID_3_);}
</style>
<title>logocc</title>
<g>
	
		<image style="overflow:visible;opacity:0.4;" width="133" height="132" xlink:href="C2B27067.png"  transform="matrix(1 0 0 1 85.5553 102.5553)">
	</image>
	<g>
		<path class="st0" d="M179.5,159.8c-3.7-23.6-32.9-38.1-53.5-19.7c-21.7,19.3-9,51,14.9,55.7l-2.5,20c-11.9-1.8-23.4-7.5-32-17.3
			c-19.7-22-17.8-55.9,4.2-75.6s55.9-17.8,75.6,4.2c8.3,9.2,12.7,20.7,13.5,32.2L179.5,159.8z"/>
	</g>
</g>
<g>
	
		<image style="overflow:visible;opacity:0.4;" width="133" height="132" xlink:href="C2B27065.png"  transform="matrix(1 0 0 1 172.5553 100.5553)">
	</image>
	<g>
		<path class="st1" d="M200.1,163.4c3.7,23.6,32.9,38.1,53.5,19.7c21.7-19.3,9-51-14.9-55.7l2.5-20c11.9,1.8,23.4,7.5,32,17.3
			c19.7,22,17.8,55.9-4.2,75.6c-22,19.7-55.9,17.8-75.6-4.2c-8.3-9.2-12.7-20.7-13.5-32.2L200.1,163.4z"/>
	</g>
</g>
<g>
	
		<image style="overflow:visible;opacity:0.4;" width="277" height="143" xlink:href="C2B2706B.png"  transform="matrix(1 0 0 1 58.5553 188.5553)">
	</image>
	<g>
		<g>
			
				<linearGradient id="SVGID_1_" gradientUnits="userSpaceOnUse" x1="146.2809" y1="177.7059" x2="146.2809" y2="88.6847" gradientTransform="matrix(1 0 0 -1 0 384)">
				<stop  offset="0" style="stop-color:#FFFFFF"/>
				<stop  offset="1" style="stop-color:#D4D7EB"/>
			</linearGradient>
			<path class="st2" d="M206.4,225.9c-0.9,0-1.8,0.1-2.7,0.2c-4.7-5.7-11.2-9.3-18.3-9.3c-3.2,0-6.2,0.7-9,2
				c-1.8,0.3-3.6,0.9-5.2,1.7c-4.1-8.5-11.5-14.2-20-14.2c-6.6,0-12.4,3.3-16.7,8.8c-3.3-2.7-7.3-4.2-11.5-4.2
				c-11.4,0-20.7,11.1-21.6,25.1c-3.8-4.4-8.9-7.1-14.5-7.1c-11.9,0-21.7,12.2-21.7,27.1c0,15,9.7,27.1,21.7,27.1
				c4.9,0,9.4-2.1,12.9-5.5c4.5,7.9,11.8,13,20.1,13c6.1,0,11.5-2.7,15.8-7.3c4.1,4.5,9.5,7.3,15.3,7.3c4.1,0,7.9-1.3,11.2-3.6
				c5.2,5.1,11.7,8.1,18.8,8.1c10.5,0,19.7-6.6,25.2-16.6l0,0c11.6,0,21-11.9,21-26.4S218,225.9,206.4,225.9z"/>
			
				<linearGradient id="SVGID_2_" gradientUnits="userSpaceOnUse" x1="235.718" y1="188.4914" x2="235.718" y2="99.4701" gradientTransform="matrix(1 0 0 -1 0 384)">
				<stop  offset="0" style="stop-color:#FFFFFF"/>
				<stop  offset="1" style="stop-color:#D4D7EB"/>
			</linearGradient>
			<path class="st3" d="M295.9,215.1c-0.9,0-1.8,0.1-2.7,0.2c-4.7-5.7-11.2-9.3-18.3-9.3c-3.2,0-6.2,0.7-9,2
				c-1.8,0.3-3.6,0.9-5.2,1.7c-4.1-8.5-11.5-14.2-20-14.2c-6.6,0-12.4,3.3-16.7,8.8c-3.3-2.7-7.3-4.2-11.5-4.2
				c-11.4,0-20.7,11.1-21.6,25.1c-3.8-4.4-8.9-7.1-14.5-7.1c-11.9,0-21.7,12.2-21.7,27.1c0,15,9.7,27.1,21.7,27.1
				c4.9,0,9.4-2.1,12.9-5.5c4.5,7.9,11.8,13,20.1,13c6.1,0,11.5-2.7,15.8-7.3c4.1,4.5,9.5,7.3,15.3,7.3c4.1,0,7.9-1.3,11.2-3.6
				c5.2,5.1,11.7,8.1,18.8,8.1c10.5,0,19.7-6.6,25.2-16.6l0,0c11.6,0,21-11.9,21-26.4C316.9,227,307.5,215.1,295.9,215.1z"/>
			
				<linearGradient id="SVGID_3_" gradientUnits="userSpaceOnUse" x1="-1666.0664" y1="160.2098" x2="-1666.0664" y2="71.1886" gradientTransform="matrix(-0.8922 0 0 -1 -1286.6713 384)">
				<stop  offset="0" style="stop-color:#FFFFFF"/>
				<stop  offset="1" style="stop-color:#D4D7EB"/>
			</linearGradient>
			<path class="st4" d="M146.2,243.4c0.8,0,1.6,0.1,2.4,0.2c4.2-5.7,10-9.3,16.3-9.3c2.8,0,5.6,0.7,8,2c1.6,0.3,3.2,0.9,4.6,1.7
				c3.7-8.5,10.3-14.2,17.8-14.2c5.8,0,11.1,3.3,14.9,8.8c3-2.7,6.6-4.2,10.3-4.2c10.2,0,18.5,11.1,19.2,25.1
				c3.4-4.4,8-7.1,12.9-7.1c10.6,0,19.3,12.2,19.3,27.1c0,14.9-8.6,27.1-19.3,27.1c-4.3,0-8.4-2.1-11.6-5.5c-4,7.9-10.5,13-17.9,13
				c-5.4,0-10.3-2.7-14.1-7.3c-3.7,4.5-8.5,7.3-13.7,7.3c-3.7,0-7.1-1.3-10-3.6c-4.6,5.1-10.5,8.1-16.8,8.1
				c-9.3,0-17.6-6.6-22.5-16.6l0,0c-10.4,0-18.8-11.9-18.8-26.4C127.4,255.3,135.8,243.4,146.2,243.4z"/>
		</g>
	</g>
</g>
</svg>
