<svg class="logocc position-absolute mt-5" version="1.1" id="Camada_1" xmlns="http://www.w3.org/2000/svg" xmlns:xlink="http://www.w3.org/1999/xlink" x="0px" y="0px"
	 viewBox="0 0 382 382" style="enable-background:new 0 0 382 382;" xml:space="preserve">
<style type="text/css">
	.cc0{fill:url(#SVGID_1_);}
	.cc1{fill:url(#SVGID_2_);}
	.cc2{opacity:0.47;}
	.cc3{fill:#426BA2;}
	.cc4{fill:#C94C1B;}
	.cc5{fill:url(#SVGID_3_);}
</style>
<title>logocc</title>
<g>
	<linearGradient id="SVGID_1_" gradientUnits="userSpaceOnUse" x1="137.0681" y1="214.2919" x2="137.0681" y2="321.625">
		<stop  offset="0" style="stop-color:#FFFFFF"/>
		<stop  offset="1" style="stop-color:#D4D7EB"/>
	</linearGradient>
	<path class="cc0" d="M209.5,237.9c-1.1,0-2.2,0.1-3.2,0.3c-5.7-6.9-13.5-11.2-22.1-11.2c-3.8,0-7.5,0.8-10.9,2.4
		c-2.2,0.4-4.3,1.1-6.3,2c-5-10.2-13.9-17.1-24.1-17.1c-7.9,0-15,4-20.1,10.6c-4-3.2-8.8-5.1-13.9-5.1c-13.7,0-25,13.4-26,30.3
		c-4.6-5.3-10.7-8.5-17.5-8.5c-14.4,0-26.1,14.7-26.1,32.7c0,18.1,11.7,32.7,26.1,32.7c5.9,0,11.3-2.5,15.6-6.6
		c5.4,9.5,14.2,15.7,24.2,15.7c7.3,0,13.9-3.3,19.1-8.8c5,5.4,11.4,8.8,18.5,8.8c4.9,0,9.5-1.6,13.5-4.3c6.3,6.1,14.1,9.8,22.7,9.8
		c12.6,0,23.7-7.9,30.4-20c0,0,0,0,0,0c14,0,25.3-14.3,25.3-31.8S223.5,237.9,209.5,237.9z"/>
	<linearGradient id="SVGID_2_" gradientUnits="userSpaceOnUse" x1="244.9319" y1="201.2501" x2="244.9319" y2="308.5832">
		<stop  offset="0" style="stop-color:#FFFFFF"/>
		<stop  offset="1" style="stop-color:#D4D7EB"/>
	</linearGradient>
	<path class="cc1" d="M317.3,224.9c-1.1,0-2.2,0.1-3.2,0.3c-5.7-6.9-13.5-11.2-22.1-11.2c-3.8,0-7.5,0.8-10.9,2.4
		c-2.2,0.4-4.3,1.1-6.3,2c-5-10.2-13.9-17.1-24.1-17.1c-7.9,0-15,4-20.1,10.6c-4-3.2-8.8-5.1-13.9-5.1c-13.7,0-25,13.4-26,30.3
		c-4.6-5.3-10.7-8.5-17.5-8.5c-14.4,0-26.1,14.7-26.1,32.7c0,18.1,11.7,32.7,26.1,32.7c5.9,0,11.3-2.5,15.6-6.6
		c5.4,9.5,14.2,15.7,24.2,15.7c7.3,0,13.9-3.3,19.1-8.8c5,5.4,11.4,8.8,18.5,8.8c4.9,0,9.5-1.6,13.5-4.3c6.3,6.1,14.1,9.8,22.7,9.8
		c12.6,0,23.7-7.9,30.4-20c0,0,0,0,0,0c14,0,25.3-14.3,25.3-31.8C342.7,239.2,331.3,224.9,317.3,224.9z"/>
	<g>
		<g class="cc2">

				<image style="overflow:visible;" width="306" height="204" xlink:href="C2B27063.png"  transform="matrix(1 0 0 1 39.5 52.3634)">
			</image>
		</g>
		<g>
			<path class="cc3" d="M177.1,149.3c-4.4-28.5-39.6-45.9-64.5-23.7c-26.1,23.3-10.9,61.5,18,67.1l-3,24.1
				c-14.4-2.2-28.2-9.1-38.6-20.8c-23.7-26.5-21.4-67.4,5.1-91.1s67.4-21.4,91.1,5.1c10,11.1,15.3,24.9,16.3,38.8L177.1,149.3z"/>
			<path class="cc4" d="M201.9,153.6c4.4,28.5,39.6,45.9,64.5,23.7c26.1-23.3,10.9-61.5-18-67.1l3-24.1c14.4,2.2,28.2,9.1,38.6,20.8
				c23.7,26.5,21.4,67.4-5.1,91.1c-26.5,23.7-67.4,21.4-91.1-5.1c-10-11.1-15.3-24.9-16.3-38.8L201.9,153.6z"/>
		</g>
	</g>

		<linearGradient id="SVGID_3_" gradientUnits="userSpaceOnUse" x1="-1424.2416" y1="187.7889" x2="-1424.2416" y2="295.122" gradientTransform="matrix(-0.8922 0 0 1 -1086.098 0)">
		<stop  offset="0" style="stop-color:#FFFFFF"/>
		<stop  offset="1" style="stop-color:#D4D7EB"/>
	</linearGradient>
	<path class="cc5" d="M120,211.4c1,0,1.9,0.1,2.9,0.3c5.1-6.9,12.1-11.2,19.7-11.2c3.4,0,6.7,0.8,9.7,2.4c1.9,0.4,3.8,1.1,5.6,2
		c4.4-10.2,12.4-17.1,21.5-17.1c7,0,13.4,4,17.9,10.6c3.6-3.2,7.9-5.1,12.4-5.1c12.3,0,22.3,13.4,23.2,30.3
		c4.1-5.3,9.6-8.5,15.6-8.5c12.8,0,23.3,14.7,23.3,32.7s-10.4,32.7-23.3,32.7c-5.2,0-10.1-2.5-14-6.6c-4.8,9.5-12.7,15.7-21.6,15.7
		c-6.5,0-12.4-3.3-17-8.8c-4.4,5.4-10.2,8.8-16.5,8.8c-4.4,0-8.5-1.6-12.1-4.3c-5.6,6.1-12.6,9.8-20.2,9.8c-11.2,0-21.2-7.9-27.1-20
		c0,0,0,0,0,0c-12.5,0-22.6-14.3-22.6-31.8S107.5,211.4,120,211.4z"/>
</g>
</svg>