<?xml version="1.0" encoding="utf-8"?>
<!-- Generator: Adobe Illustrator 21.0.0, SVG Export Plug-In . SVG Version: 6.00 Build 0)  -->
<svg version="1.1" id="Camada_1" xmlns="http://www.w3.org/2000/svg" xmlns:xlink="http://www.w3.org/1999/xlink" x="0px" y="0px"
	 viewBox="0 0 382 382" style="enable-background:new 0 0 382 382;" xml:space="preserve">
<style type="text/css">
	.ufc0{fill:url(#SVGID_1_);}
	.ufc1{fill:url(#SVGID_2_);}
	.ufc2{opacity:0.44;}
	.ufc3{fill-rule:evenodd;clip-rule:evenodd;fill:#1E1C1F;}
	.ufc4{clip-path:url(#SVGID_4_);}
	.ufc5{clip-path:url(#SVGID_8_);}
	.ufc6{clip-path:url(#SVGID_12_);}
	.ufc7{clip-path:url(#SVGID_16_);}
	.ufc8{clip-path:url(#SVGID_20_);}
	.ufc9{clip-path:url(#SVGID_24_);}
	.ufc10{clip-path:url(#SVGID_28_);}
	.ufc11{clip-path:url(#SVGID_32_);}
	.ufc12{clip-path:url(#SVGID_36_);}
	.ufc13{clip-path:url(#SVGID_40_);}
	.ufc14{clip-path:url(#SVGID_44_);}
	.ufc15{clip-path:url(#SVGID_48_);}
	.ufc16{clip-path:url(#SVGID_52_);}
	.ufc17{fill-rule:evenodd;clip-rule:evenodd;fill:#CEB64D;}
	.ufc18{clip-path:url(#SVGID_56_);}
	.ufc19{clip-path:url(#SVGID_60_);}
	.ufc20{clip-path:url(#SVGID_64_);}
	.ufc21{fill-rule:evenodd;clip-rule:evenodd;fill:#FFFFFF;}
	.ufc22{fill-rule:evenodd;clip-rule:evenodd;fill:#4D863E;}
	.ufc23{clip-path:url(#SVGID_68_);}
	.ufc24{fill:url(#SVGID_71_);}
</style>
<title>logoufc</title>
<g>
	<linearGradient id="SVGID_1_" gradientUnits="userSpaceOnUse" x1="128.7505" y1="222.6666" x2="128.7505" y2="329.9997">
		<stop  offset="0" style="stop-color:#FFFFFF"/>
		<stop  offset="1" style="stop-color:#D4D7EB"/>
	</linearGradient>
	<path class="ufc0" d="M201.2,246.3c-1.1,0-2.2,0.1-3.2,0.3c-5.7-6.9-13.5-11.2-22.1-11.2c-3.8,0-7.5,0.8-10.9,2.4
		c-2.2,0.4-4.3,1.1-6.3,2c-5-10.2-13.9-17.1-24.1-17.1c-7.9,0-15,4-20.1,10.6c-4-3.2-8.8-5.1-13.9-5.1c-13.7,0-25,13.4-26,30.3
		c-4.6-5.3-10.7-8.5-17.5-8.5C42.7,250,31,264.6,31,282.7c0,18.1,11.7,32.7,26.1,32.7c5.9,0,11.3-2.5,15.6-6.6
		c5.4,9.5,14.2,15.7,24.2,15.7c7.3,0,13.9-3.3,19.1-8.8c5,5.4,11.4,8.8,18.5,8.8c4.9,0,9.5-1.6,13.5-4.3c6.3,6.1,14.1,9.8,22.7,9.8
		c12.6,0,23.7-7.9,30.4-20c0,0,0,0,0,0c14,0,25.3-14.3,25.3-31.8C226.5,260.6,215.2,246.3,201.2,246.3z"/>
	<linearGradient id="SVGID_2_" gradientUnits="userSpaceOnUse" x1="255.2502" y1="216.9166" x2="255.2502" y2="324.2497">
		<stop  offset="0" style="stop-color:#FFFFFF"/>
		<stop  offset="1" style="stop-color:#D4D7EB"/>
	</linearGradient>
	<path class="ufc1" d="M327.7,240.6c-1.1,0-2.2,0.1-3.2,0.3c-5.7-6.9-13.5-11.2-22.1-11.2c-3.8,0-7.5,0.8-10.9,2.4
		c-2.2,0.4-4.3,1.1-6.3,2c-5-10.2-13.9-17.1-24.1-17.1c-7.9,0-15,4-20.1,10.6c-4-3.2-8.8-5.1-13.9-5.1c-13.7,0-25,13.4-26,30.3
		c-4.6-5.3-10.7-8.5-17.5-8.5c-14.4,0-26.1,14.7-26.1,32.7s11.7,32.7,26.1,32.7c5.9,0,11.3-2.5,15.6-6.6
		c5.4,9.5,14.2,15.7,24.2,15.7c7.3,0,13.9-3.3,19.1-8.8c5,5.4,11.4,8.8,18.5,8.8c4.9,0,9.5-1.6,13.5-4.3c6.3,6.1,14.1,9.8,22.7,9.8
		c12.6,0,23.7-7.9,30.4-20c0,0,0,0,0,0c14,0,25.3-14.3,25.3-31.8S341.7,240.6,327.7,240.6z"/>
	<g class="ufc2">
		<image style="overflow:visible;" width="271" height="312" xlink:href="FEAE293E.png"  transform="matrix(1 0 0 1 60 -2.97)">
		</image>
	</g>
	<g>
		<g>
			<path class="ufc3" d="M105.7,205.4c-1.2-0.1-2.3-0.5-3.2-1.4c-1.4-1.4-1.5-3.5-1.2-5.4c0.3-2.2,0.9-4.4,1.5-6.5
				c1.6-5.5,3.5-10.9,4.5-16.6c0.9-5.1,1.1-10.6-0.8-15.5c-0.1-0.3-0.2-0.5-0.3-0.8c-0.4-1-0.5-2,0.5-2.8c1-0.8,2-0.5,2.9,0.2
				c0.3,0.2,0.5,0.4,0.8,0.6c3,2.3,6.4,5.3,8.8,8.7c0.6-1.4,1.3-2.7,1.9-4.1c1.9-4.1,2.9-7.4,3-12c0-0.2,0-0.5,0-0.7
				c0.1-1,0.5-1.8,1.5-2.2c1-0.3,1.9,0.1,2.5,0.8c0.2,0.3,0.4,0.5,0.5,0.8l0.1,0.1l0,0.1c4.1,9.9,3.3,18.1,0.8,28
				c1.4-0.1,2.9-0.2,4.3-0.4c0.9-0.1,1.7-0.1,2.5,0.6c0.8,0.7,0.7,1.4,0.8,2.3c0.1,3.1,0.3,6.3,0.4,9.4c0.4,9,3.7,16.8,10.1,22.8
				l-0.2-6.1c-3.7-4.7-5.6-10.4-5.9-16.8l-3.8-87.5l1.9-0.3c1.6-0.2,3.2-0.4,4.8-0.6l-0.3-9.9c-0.4-0.1-0.7-0.4-1-0.7
				c-0.5-0.6-0.6-1.1-0.6-1.8c-4.8-2.1-4.5-9.5,0.7-10.8l0.1,0l0.1,0c0.9-0.1,1.7-0.3,2.6-0.4l0.3-0.3c-1.9-1.7-3.7-3.4-5.3-5.5
				c-0.3-0.4-0.5-0.8-0.8-1.1c-1-1.2-1.7-2.7-1.8-4.2c-0.1-2,0.8-3.7,2.1-5.1c0.6-0.6,1-1.2,1.6-1.8c1.4-1.6,2.3-2.9,2.6-5
				c0-0.1,0-0.2,0-0.3c0-0.1,0-0.2,0-0.3c0.1-0.7,0.5-1.2,1.1-1.5c0.7-0.2,1.3,0,1.8,0.5c0.1,0.1,0.2,0.2,0.3,0.3
				c0.1,0.2,0.3,0.3,0.4,0.5c1-1.9,2.3-3.7,3.9-5.2c1.5-1.5,3.1-2.4,4.9-3.4c2.9-1.5,4.9-5.2,4.5-8.5c0-0.1,0-0.2,0-0.3
				c-0.1-0.8,0.1-1.5,0.9-1.9c0.8-0.4,1.6-0.1,2.1,0.5c0.1,0.1,0.2,0.2,0.2,0.3c1.7,2.1,3.2,4.2,3.3,7c0,1.5-0.4,2.6-1,3.9
				c-0.3,0.7-0.7,1.5-0.8,2.3c-0.1,0.5,0,1,0.2,1.3c1.2-0.9,2.2-2,2.5-3.6c0.2-0.9,0.6-1.7,1.8-1.7c0.8,0,1.4,0.6,1.6,1.3
				c0,0.1,0.1,0.2,0.1,0.4c1.4,3.4,1.1,6.7-0.4,10c-0.4,0.9-0.8,1.8-1.3,2.6c-0.4,0.7-0.9,1.7-1,2.5c0,0.1,0.1,0.3,0.2,0.4
				c1.7,2,2.7,4.4,2.4,7.1c-0.5,3.7-3.6,6.6-6.8,8.7l0.2,0.3c0.9,0.1,1.9,0.3,2.8,0.4l0.1,0l0.1,0c5.3,1.4,5.5,8.9,0.5,10.9
				c0,0.6-0.1,1.1-0.6,1.7c-0.3,0.3-0.6,0.5-1,0.7l-0.2,7.7c4.4-0.3,8.8-0.5,13.2-0.6l-0.2-7c-0.4-0.1-0.7-0.4-1-0.7
				c-0.5-0.6-0.6-1.1-0.6-1.8c-4.8-2.1-4.5-9.5,0.7-10.8l0.1,0l0.1,0c0.9-0.1,1.7-0.3,2.6-0.4l0.9-1.1l-0.4,0.6
				c-1.8-1.6-3.6-3.3-5-5.3c-0.3-0.4-0.5-0.8-0.8-1.1c-1-1.2-1.7-2.7-1.8-4.2c-0.1-2,0.8-3.7,2.1-5.1c0.6-0.6,1-1.2,1.6-1.8
				c1.4-1.6,2.3-2.9,2.6-5c0-0.1,0-0.2,0-0.3c0-0.1,0-0.2,0-0.3c0.1-0.7,0.5-1.2,1.1-1.5c0.7-0.2,1.4,0,1.8,0.5
				c0.1,0.1,0.2,0.2,0.3,0.3c0.1,0.2,0.3,0.3,0.4,0.5c1-1.9,2.3-3.7,3.9-5.2c1.5-1.5,3.1-2.4,4.9-3.4c2.9-1.5,4.9-5.2,4.5-8.5
				c0-0.1,0-0.2,0-0.3c-0.1-0.8,0.1-1.5,0.9-1.9c0.8-0.4,1.6-0.1,2.1,0.5c0.1,0.1,0.2,0.2,0.2,0.3c1.7,2.1,3.2,4.2,3.3,7
				c0,1.5-0.4,2.6-1,3.9c-0.3,0.7-0.7,1.5-0.8,2.3c-0.1,0.5,0,1,0.2,1.3c1.2-0.9,2.2-2,2.5-3.6c0.2-0.9,0.6-1.7,1.8-1.7
				c0.8,0,1.4,0.6,1.6,1.3c0,0.1,0.1,0.2,0.1,0.4c1.4,3.4,1.1,6.7-0.4,10c-0.4,0.9-0.8,1.8-1.3,2.6c-0.4,0.7-0.9,1.7-1,2.5
				c0,0.1,0.1,0.3,0.2,0.4c1.7,2,2.7,4.4,2.3,7.1c-0.6,3.8-3.8,6.8-7.1,8.8l-0.6-0.8l0.7,0.9c0.9,0.1,1.9,0.3,2.8,0.4l0.1,0l0.1,0
				c5.3,1.4,5.5,8.9,0.5,10.9c0,0.6-0.1,1.1-0.6,1.7c-0.3,0.3-0.6,0.5-1,0.7l-0.2,7c4.4,0.1,8.8,0.4,13.2,0.7l-0.2-7.7
				c-0.4-0.1-0.7-0.4-1-0.7c-0.5-0.6-0.6-1.1-0.6-1.8c-4.8-2.1-4.5-9.5,0.7-10.8l0.1,0l0.1,0c0.9-0.1,1.7-0.3,2.6-0.4l0.4-0.5
				c-1.9-1.6-3.6-3.4-5.1-5.4c-0.3-0.4-0.5-0.8-0.8-1.1c-1-1.2-1.7-2.7-1.8-4.2c-0.1-2,0.8-3.7,2.1-5.1c0.6-0.6,1-1.2,1.6-1.8
				c1.4-1.6,2.3-2.9,2.6-5c0-0.1,0-0.2,0-0.3c0-0.1,0-0.2,0-0.3c0.1-0.7,0.5-1.2,1.1-1.5c0.7-0.2,1.4,0,1.8,0.5
				c0.1,0.1,0.2,0.2,0.3,0.3c0.1,0.2,0.3,0.3,0.4,0.5c1-1.9,2.3-3.7,3.9-5.2c1.5-1.5,3.1-2.4,4.9-3.4c2.9-1.5,4.9-5.2,4.5-8.5
				c0-0.1,0-0.2,0-0.3c-0.1-0.8,0.1-1.5,0.9-1.9c0.8-0.4,1.6-0.1,2.1,0.5c0.1,0.1,0.2,0.2,0.2,0.3c1.7,2.1,3.2,4.2,3.3,7
				c0,1.5-0.4,2.6-1,3.9c-0.3,0.7-0.7,1.5-0.8,2.3c-0.1,0.5,0,1,0.2,1.3c1.2-0.9,2.2-2,2.5-3.6c0.2-0.9,0.6-1.7,1.8-1.7
				c0.8,0,1.4,0.6,1.6,1.3c0,0.1,0.1,0.2,0.1,0.4c1.4,3.4,1.1,6.7-0.4,10c-0.4,0.9-0.8,1.8-1.3,2.6c-0.4,0.7-0.9,1.7-1,2.5
				c0,0.1,0.1,0.3,0.2,0.4c1.7,2,2.7,4.4,2.3,7.1c-0.6,3.8-3.7,6.7-7,8.8l0.1,0.2c0.9,0.1,1.9,0.3,2.8,0.4l0.1,0l0.1,0
				c5.3,1.4,5.5,8.9,0.5,10.9c0,0.6-0.1,1.1-0.6,1.7c-0.3,0.3-0.6,0.5-1,0.7l-0.3,9.9c1.7,0.2,3.3,0.4,5,0.6l1.9,0.3l-3.8,87.5
				c-0.3,6.5-2.3,12.3-6.1,17l-0.2,6.1c6.5-6,9.9-13.9,10.3-23c0.1-3.1,0.3-6.3,0.4-9.4c0-0.9,0-1.6,0.8-2.3
				c0.8-0.7,1.5-0.7,2.5-0.6c1.4,0.1,2.9,0.2,4.3,0.4c-2.5-9.8-3.3-18.1,0.8-28l0-0.1l0.1-0.1c0.2-0.3,0.3-0.6,0.5-0.8
				c0.6-0.8,1.5-1.2,2.5-0.8c1,0.3,1.5,1.2,1.5,2.2c0,0.2,0,0.5,0,0.7c0.1,4.5,1.1,7.9,3,12c0.6,1.4,1.3,2.8,1.9,4.1
				c2.3-3.4,5.7-6.4,8.8-8.7c0.3-0.2,0.5-0.4,0.8-0.6c0.8-0.7,1.9-0.9,2.9-0.2c1,0.8,0.9,1.8,0.5,2.8c-0.1,0.3-0.2,0.5-0.3,0.8
				c-1.9,4.9-1.7,10.4-0.8,15.5c1,5.7,2.8,11.1,4.5,16.6c0.6,2.1,1.3,4.4,1.5,6.5c0.2,1.9,0.1,4-1.2,5.4c-0.9,0.9-2,1.3-3.2,1.4v0
				l-10.6,1v0c-3.6,10.5-10.1,19.6-19.3,26.7c-4.1,3.1-8.4,5.6-12.9,7.7l-0.3,10.6c0.9-0.1,1.7,0,2.5,0l1.8,0l-0.1,1.8
				c0,1-0.4,1.9-1.1,2.6c-0.6,0.6-1.3,0.8-2,1.2c-0.3,0.2-0.7,0.3-0.9,0.6c0,0,0,0.1,0,0.1c0,0.1,0,0.2,0,0.3
				c-0.1,1.4,0.2,2.7-1.1,3.8c-0.5,0.4-1,0.6-1.6,0.7c-0.7,1.8-2.6,2.8-4.5,2.8c-1.9,0-3.8-1-4.5-2.8c-0.6-0.1-1.1-0.3-1.6-0.7
				c-0.2-0.2-0.4-0.4-0.6-0.7c-0.4-0.7-0.5-1.4-0.4-2.2c0-0.3,0.1-1-0.1-1.3c-0.2-0.3-0.5-0.5-0.9-0.6c-0.7-0.4-1.4-0.6-2-1.2
				c-0.7-0.7-1.1-1.6-1.1-2.6l-0.1-1.8l1.8,0c0.7,0,1.5,0,2.3,0l-0.2-5.7c-7.1,1.7-14.5,2.6-21.9,2.9l-0.2,6.6c0.9-0.1,1.8,0,2.6,0
				l1.8,0l-0.1,1.8c0,1-0.4,1.9-1.1,2.6c-0.6,0.6-1.3,0.8-2,1.2c-0.3,0.2-0.7,0.3-0.9,0.6c0,0,0,0.1,0,0.1c0,0.1,0,0.2,0,0.3
				c-0.1,1.5,0.2,2.7-1.1,3.8c-0.5,0.4-1,0.6-1.6,0.7c-0.7,1.8-2.6,2.8-4.5,2.8c-1.9,0-3.8-1-4.5-2.8c-0.6-0.1-1.1-0.3-1.6-0.7
				c-0.2-0.2-0.4-0.4-0.6-0.7c-0.4-0.7-0.5-1.4-0.4-2.2c0-0.3,0.1-1-0.1-1.3c-0.2-0.3-0.5-0.5-0.9-0.6c-0.7-0.4-1.4-0.6-2-1.2
				c-0.7-0.7-1.1-1.6-1.1-2.6l-0.1-1.8l1.8,0c0.7,0,1.6,0,2.4,0l-0.2-6.6c-7.3-0.3-14.7-1.2-21.9-2.9l-0.2,5.8c0.9-0.1,1.7,0,2.5,0
				l1.8,0l-0.1,1.8c0,1-0.4,1.9-1.1,2.6c-0.6,0.6-1.3,0.8-2,1.2c-0.3,0.2-0.7,0.3-0.9,0.6c0,0,0,0.1,0,0.1c0,0.1,0,0.2,0,0.3
				c-0.1,1.4,0.2,2.7-1.1,3.8c-0.5,0.4-1,0.6-1.6,0.7c-0.7,1.8-2.6,2.8-4.5,2.8c-1.9,0-3.8-1-4.5-2.8c-0.6-0.1-1.1-0.3-1.6-0.7
				c-0.2-0.2-0.4-0.4-0.6-0.7c-0.4-0.7-0.5-1.4-0.4-2.2c0-0.3,0.1-1-0.1-1.3c-0.2-0.3-0.5-0.5-0.9-0.6c-0.7-0.4-1.4-0.6-2-1.2
				c-0.7-0.7-1.1-1.6-1.1-2.6l-0.1-1.8l1.8,0c0.7,0,1.5,0,2.3,0l-0.3-10.7c-4.5-2-8.8-4.5-12.8-7.6c-9.2-7-15.8-16.2-19.3-26.6v0
				L105.7,205.4L105.7,205.4L105.7,205.4z M163.6,220.6c6.5,2.2,13.6,3.2,20.4,3.6l-0.1-4.1c-6.7-0.4-13.8-1.5-20.2-3.8L163.6,220.6
				L163.6,220.6z M199.7,224.2c6.9-0.4,13.9-1.4,20.4-3.5l-0.1-4.3c-6.4,2.2-13.5,3.3-20.2,3.7L199.7,224.2L199.7,224.2z"/>
			<g>
				<defs>
					<path id="SVGID_3_" d="M183.6,74.8c-1.8-1.6-3.5-3.2-4.9-5.2c-0.3-0.4-0.5-0.7-0.8-1.1c-1-1.2-1.5-2.4-1.5-3.4
						c-0.1-1.4,0.5-2.7,1.7-3.9c0.6-0.6,1-1.2,1.6-1.8c2.8-3.2,2.9-4.8,3.1-6.8c1.3,1.6,1.4,2.3,1.6,4.6c1.5-4.2,3.5-7,5.3-8.8
						c1.4-1.4,2.8-2.2,4.5-3.1c3.7-1.9,6.1-6.7,5.3-10.7c1.5,1.9,3.2,3.8,3.3,6.5c0.1,2.4-1.5,3.8-1.8,6c-0.1,1,0.1,1.8,0.5,2.5
						c-0.9,1-2.7,2.6-2.5,4.1c1.1-1.2,2.8-2.2,4.1-3.3c2-1.3,3.6-2.9,4-5.6c1.4,3,1.5,5.9-0.1,9.5c-0.6,1.6-2.1,3.9-2.4,5.5
						c-0.1,0.7,0.1,1.2,0.5,1.7c4.6,5.3,0.9,10.3-4.5,13.6c-0.9-0.6-2.4-0.7-3.3-0.8c-1.8-0.2-3.5-0.2-5.3-0.2c-1.8,0-3.5,0-5.3,0.2
						C185.8,74.3,184.5,74.4,183.6,74.8L183.6,74.8z"/>
				</defs>
				<clipPath id="SVGID_4_">
					<use xlink:href="#SVGID_3_"  style="overflow:visible;"/>
				</clipPath>
				<g class="ufc4">
					<defs>
						<rect id="SVGID_5_" x="176.3" y="34.5" width="33.4" height="40.6"/>
					</defs>
					<clipPath id="SVGID_6_">
						<use xlink:href="#SVGID_5_"  style="overflow:visible;"/>
					</clipPath>
					<g transform="matrix(1 0 0 1 1.525879e-05 0)" style="clip-path:url(#SVGID_6_);">
						
							<image style="overflow:visible;" width="32" height="35" xlink:href="FEAE2942.png"  transform="matrix(1.3007 0 0 -1.3007 172.7604 77.664)">
						</image>
					</g>
				</g>
			</g>
			<g>
				<defs>
					<path id="SVGID_7_" d="M147.2,74.9c-1.8-1.6-3.6-3.3-5.1-5.3c-0.3-0.4-0.5-0.7-0.8-1.1c-1-1.2-1.5-2.4-1.5-3.4
						c-0.1-1.4,0.5-2.7,1.7-3.9c0.6-0.6,1-1.2,1.6-1.8c2.8-3.2,2.9-4.8,3.1-6.8c1.3,1.6,1.4,2.3,1.6,4.6c1.5-4.2,3.5-7,5.3-8.8
						c1.4-1.4,2.8-2.2,4.5-3.1c3.7-1.9,6.1-6.7,5.3-10.7c1.5,1.9,3.2,3.8,3.3,6.5c0.1,2.4-1.5,3.8-1.8,6c-0.1,1,0.1,1.8,0.5,2.5
						c-0.9,1-2.7,2.6-2.5,4.1c1.1-1.2,2.8-2.2,4.1-3.3c2-1.3,3.6-2.9,4-5.6c1.4,3,1.5,5.9-0.1,9.5c-0.6,1.6-2.1,3.9-2.4,5.5
						c-0.1,0.7,0.1,1.2,0.5,1.7c4.5,5.3,1,10.2-4.4,13.5c-0.9-0.5-2.2-0.6-3.1-0.7c-1.8-0.2-3.5-0.2-5.3-0.2c-1.8,0-3.5,0-5.3,0.2
						C149.6,74.3,148.1,74.4,147.2,74.9L147.2,74.9z"/>
				</defs>
				<clipPath id="SVGID_8_">
					<use xlink:href="#SVGID_7_"  style="overflow:visible;"/>
				</clipPath>
				<g class="ufc5">
					<defs>
						<rect id="SVGID_9_" x="139.7" y="34.5" width="33.3" height="40.4"/>
					</defs>
					<clipPath id="SVGID_10_">
						<use xlink:href="#SVGID_9_"  style="overflow:visible;"/>
					</clipPath>
					<g style="clip-path:url(#SVGID_10_);">
						
							<image style="overflow:visible;" width="32" height="35" xlink:href="FEAE2945.png"  transform="matrix(1.3007 0 0 -1.3007 136.8403 77.6361)">
						</image>
					</g>
				</g>
			</g>
			<g>
				<defs>
					<path id="SVGID_11_" d="M169.5,49.9c-1.9,3.3-6.9,3.9-9.1,7.1c-2,2.8-1.3,7.3,0.3,9.9c0-0.2,0-0.4,0-0.6c0-0.9,0.1-3.9,0.4-4.8
						c0.7-2.6,2.9-3.3,4.8-5.4c0.8-0.9,1.4-1.8,2.2-2.8c0.3-0.3,0.5-0.6,0.7-1C169,51.6,169.3,50.9,169.5,49.9L169.5,49.9z
						 M149.2,74.3c-1.9-1.4-3.9-3.6-4.9-6.7c-0.6-2-0.2-3.3,0.6-5.2c0.7-1.8,1.5-3.6,1.3-6.2c0.7,1.6,1.9,3.7,2.2,6.2
						c-0.8,0.6-1.5,1.3-2,2.1c-0.9,2.1-0.9,4.2-0.2,6.1c0-0.4,0-0.8,0-1.1c0.1-1.7,0.5-3.1,1.6-4.2c-0.2,1.8,0.3,3.3,0.9,4.4
						c0.2,0.3,0.3,0.6,0.5,0.9c-0.3-0.9-0.4-1.8-0.4-2.6c0-0.9,0.2-1.6,0.5-2.4c0.6-1.4,1.6-2.6,2.9-3.7c3.4-2.7,3.4-5.2,3.6-7.4
						c-0.8,1.9-1.5,3.8-3.7,5.3c-0.3,0.2-0.7,0.5-1.1,0.7c-0.6,0.3-1.2,0.7-1.7,1.1c1.2-3.1,3.2-6.1,5.5-7.9
						c0.9-0.7,1.7-1.6,2.6-2.4c0.5-0.4,1-0.9,1.4-1.3c2.6-2.8,3.1-5.6,3.8-8.4c0.4,3.1,1.1,6.5-3.1,11.2c-1.1,1.4-2,2.8-2.6,4.3
						c-0.6,1.6-0.2,2,0.3,3.6c0.7,1.8,1.1,3.8,0.8,6.3c-0.3,3.6-1.9,5.5-3.6,7c-0.6,0-1.2,0-1.9,0h0c-0.8,0-1.5,0.1-2.3,0.1
						C150.1,74.3,149.7,74.3,149.2,74.3C149.2,74.3,149.2,74.3,149.2,74.3L149.2,74.3z M160.9,74.3c4.9-3.2,8.9-8.4,2.7-13.6
						c0.9,4.7-2.1,10.3-6.1,13.4C158.6,74.1,159.8,74.2,160.9,74.3L160.9,74.3z"/>
				</defs>
				<clipPath id="SVGID_12_">
					<use xlink:href="#SVGID_11_"  style="overflow:visible;"/>
				</clipPath>
				<g class="ufc6">
					<defs>
						<rect id="SVGID_13_" x="143.7" y="41.6" width="26.1" height="32.7"/>
					</defs>
					<clipPath id="SVGID_14_">
						<use xlink:href="#SVGID_13_"  style="overflow:visible;"/>
					</clipPath>
					<g style="clip-path:url(#SVGID_14_);">
						
							<image style="overflow:visible;" width="28" height="30" xlink:href="FEAE2946.png"  transform="matrix(1.3007 0 0 -1.3007 140.9212 78.0304)">
						</image>
					</g>
				</g>
			</g>
			<g>
				<defs>
					<path id="SVGID_15_" d="M219.7,74.8c-1.8-1.6-3.5-3.2-5-5.2c-0.3-0.4-0.5-0.7-0.8-1.1c-1-1.2-1.5-2.4-1.5-3.4
						c-0.1-1.4,0.5-2.7,1.7-3.9c0.6-0.6,1-1.2,1.6-1.8c2.8-3.2,2.9-4.8,3.1-6.8c1.3,1.6,1.4,2.3,1.6,4.6c1.5-4.2,3.5-7,5.3-8.8
						c1.4-1.4,2.8-2.2,4.5-3.1c3.7-1.9,6.1-6.7,5.3-10.7c1.5,1.9,3.2,3.8,3.3,6.5c0.1,2.4-1.5,3.8-1.8,6c-0.1,1,0.1,1.8,0.5,2.5
						c-0.9,1-2.7,2.6-2.5,4.1c1.1-1.2,2.8-2.2,4.1-3.3c2-1.3,3.6-2.9,4-5.6c1.4,3,1.5,5.9-0.1,9.5c-0.6,1.6-2.1,3.9-2.4,5.5
						c-0.1,0.7,0.1,1.2,0.5,1.7c4.6,5.3,1,10.2-4.5,13.6c-0.9-0.5-2.3-0.6-3.2-0.7c-1.8-0.2-3.5-0.2-5.3-0.2c-1.8,0-3.5,0-5.3,0.2
						C221.9,74.3,220.6,74.4,219.7,74.8L219.7,74.8z"/>
				</defs>
				<clipPath id="SVGID_16_">
					<use xlink:href="#SVGID_15_"  style="overflow:visible;"/>
				</clipPath>
				<g class="ufc7">
					<defs>
						<rect id="SVGID_17_" x="212.3" y="34.5" width="33.3" height="40.5"/>
					</defs>
					<clipPath id="SVGID_18_">
						<use xlink:href="#SVGID_17_"  style="overflow:visible;"/>
					</clipPath>
					<g style="clip-path:url(#SVGID_18_);">
						
							<image style="overflow:visible;" width="32" height="35" xlink:href="FEAE2944.png"  transform="matrix(1.3007 0 0 -1.3007 208.4028 77.6545)">
						</image>
					</g>
				</g>
			</g>
			<g>
				<defs>
					<path id="SVGID_19_" d="M206,49.9c-1.9,3.3-6.9,3.9-9.1,7.1c-2,2.8-1.3,7.3,0.2,9.9c0-0.2,0-0.4,0-0.6c0-0.9,0.1-3.9,0.4-4.8
						c0.7-2.6,2.9-3.3,4.8-5.4c0.8-0.9,1.4-1.8,2.2-2.8c0.3-0.3,0.5-0.6,0.7-1C205.5,51.6,205.8,50.9,206,49.9L206,49.9z
						 M185.7,74.3c-1.9-1.4-3.9-3.6-4.9-6.7c-0.6-2-0.2-3.3,0.6-5.2c0.7-1.8,1.5-3.6,1.3-6.2c0.7,1.6,1.9,3.7,2.2,6.2
						c-0.8,0.6-1.5,1.3-2,2.1c-0.9,2.1-0.9,4.2-0.2,6.1c0-0.4,0-0.8,0-1.1c0.1-1.7,0.5-3.1,1.6-4.2c-0.2,1.8,0.3,3.3,0.9,4.4
						c0.2,0.3,0.3,0.6,0.5,0.9c-0.3-0.9-0.4-1.8-0.4-2.6c0-0.9,0.2-1.6,0.5-2.4c0.6-1.4,1.6-2.6,2.9-3.7c3.4-2.7,3.4-5.2,3.6-7.4
						c-0.8,1.9-1.6,3.8-3.7,5.3c-0.3,0.2-0.7,0.5-1.1,0.7c-0.6,0.3-1.2,0.7-1.7,1.1c1.2-3.1,3.2-6.1,5.5-7.9
						c0.9-0.7,1.7-1.6,2.6-2.4c0.5-0.4,1-0.9,1.4-1.3c2.6-2.8,3.1-5.6,3.8-8.4c0.4,3.1,1.1,6.5-3.1,11.2c-1.1,1.4-2,2.8-2.6,4.3
						c-0.6,1.6-0.2,2,0.3,3.6c0.7,1.8,1.1,3.8,0.9,6.3c-0.4,3.6-1.9,5.5-3.6,7c-0.6,0-1.2,0-1.9,0l0,0c-0.8,0-1.5,0.1-2.3,0.1
						C186.7,74.3,186.2,74.3,185.7,74.3C185.7,74.3,185.7,74.3,185.7,74.3L185.7,74.3z M197.4,74.3c4.9-3.2,8.9-8.4,2.7-13.6
						c0.9,4.7-2.1,10.3-6.1,13.4C195.2,74.1,196.3,74.2,197.4,74.3L197.4,74.3z"/>
				</defs>
				<clipPath id="SVGID_20_">
					<use xlink:href="#SVGID_19_"  style="overflow:visible;"/>
				</clipPath>
				<g class="ufc8">
					<defs>
						<rect id="SVGID_21_" x="180.2" y="41.6" width="26.1" height="32.7"/>
					</defs>
					<clipPath id="SVGID_22_">
						<use xlink:href="#SVGID_21_"  style="overflow:visible;"/>
					</clipPath>
					<g style="clip-path:url(#SVGID_22_);">
						
							<image style="overflow:visible;" width="28" height="30" xlink:href="FEAE2943.png"  transform="matrix(1.3007 0 0 -1.3007 176.8295 78.0304)">
						</image>
					</g>
				</g>
			</g>
			<g>
				<defs>
					<path id="SVGID_23_" d="M242,49.9c-1.9,3.3-6.9,3.9-9.1,7.1c-2,2.8-1.3,7.3,0.3,9.9c0-0.2,0-0.4,0-0.6c0-0.9,0.1-3.9,0.4-4.8
						c0.7-2.6,2.9-3.3,4.8-5.4c0.8-0.9,1.4-1.8,2.2-2.8c0.3-0.3,0.5-0.6,0.7-1C241.6,51.6,241.8,50.9,242,49.9L242,49.9z
						 M221.8,74.3c-1.9-1.4-3.9-3.6-4.9-6.7c-0.6-2-0.2-3.3,0.6-5.2c0.7-1.8,1.5-3.6,1.3-6.2c0.7,1.6,1.9,3.7,2.2,6.2
						c-0.8,0.6-1.5,1.3-2,2.1c-0.9,2.1-0.9,4.2-0.2,6.1c0-0.4,0-0.8,0-1.1c0.1-1.7,0.5-3.1,1.6-4.2c-0.2,1.8,0.3,3.3,0.9,4.4
						c0.2,0.3,0.3,0.6,0.5,0.9c-0.3-0.9-0.4-1.8-0.4-2.6c0-0.9,0.2-1.6,0.5-2.4c0.6-1.4,1.6-2.6,2.9-3.7c3.4-2.7,3.4-5.2,3.6-7.4
						c-0.8,1.9-1.6,3.8-3.7,5.3c-0.3,0.2-0.7,0.5-1.1,0.7c-0.6,0.3-1.2,0.7-1.7,1.1c1.2-3.1,3.2-6.1,5.5-7.9
						c0.9-0.7,1.7-1.6,2.6-2.4c0.5-0.4,1-0.9,1.4-1.3c2.6-2.8,3.1-5.6,3.8-8.4c0.4,3.1,1.1,6.5-3.1,11.2c-1.1,1.4-2,2.8-2.6,4.3
						c-0.6,1.6-0.2,2,0.3,3.6c0.7,1.8,1.1,3.8,0.9,6.3c-0.4,3.6-1.9,5.5-3.6,7c-0.6,0-1.2,0-1.9,0l0,0c-0.8,0-1.5,0.1-2.3,0.1
						C222.7,74.3,222.2,74.3,221.8,74.3C221.8,74.3,221.8,74.3,221.8,74.3L221.8,74.3z M233.5,74.3c4.9-3.2,8.9-8.4,2.7-13.6
						c0.9,4.7-2.1,10.3-6.1,13.4C231.2,74.1,232.3,74.2,233.5,74.3L233.5,74.3z"/>
				</defs>
				<clipPath id="SVGID_24_">
					<use xlink:href="#SVGID_23_"  style="overflow:visible;"/>
				</clipPath>
				<g class="ufc9">
					<defs>
						<rect id="SVGID_25_" x="216.2" y="41.6" width="26.1" height="32.7"/>
					</defs>
					<clipPath id="SVGID_26_">
						<use xlink:href="#SVGID_25_"  style="overflow:visible;"/>
					</clipPath>
					<g style="clip-path:url(#SVGID_26_);">
						
							<image style="overflow:visible;" width="28" height="30" xlink:href="FEAE294D.png"  transform="matrix(1.3007 0 0 -1.3007 212.4771 78.0304)">
						</image>
					</g>
				</g>
			</g>
			<g>
				<defs>
					<path id="SVGID_27_" d="M237.5,89.5l-0.3,10.3c-1.3-0.1-2.5-0.3-3.8-0.4l0.1-5.7c0-0.8,0.7-1.4,1.5-1.4l0,0c0.1,0,0.2,0,0.4,0
						c-0.2-0.6-0.8-1.1-1.5-1.1l0,0c-0.8,0-1.5,0.6-1.5,1.4l-0.1,6.6c-1.5-0.2-3-0.3-4.5-0.5l0-5.1c0-0.8,0.7-1.4,1.5-1.4l0,0
						c0.1,0,0.2,0,0.4,0c-0.2-0.6-0.8-1.1-1.5-1.1l0,0c-0.8,0-1.5,0.6-1.5,1.4l0,6c-1.5-0.1-3-0.3-4.6-0.4l-0.1-4.6
						c0-0.8,0.7-1.4,1.5-1.4l0,0c0.1,0,0.2,0,0.4,0c-0.2-0.6-0.8-1.1-1.5-1.1l0,0c-0.8,0-1.5,0.6-1.5,1.4l0.1,5.5
						c-0.7-0.1-1.5-0.1-2.2-0.2l-0.2-8.5C224.8,88.8,231.2,88.8,237.5,89.5L237.5,89.5z M234.1,208l-0.2,5.5
						c-0.1,0.1-0.2,0.2-0.4,0.3c-0.4,0.3-0.9,0.6-1.3,0.9l0.1-5.1C233,209.1,233.6,208.6,234.1,208L234.1,208z M233.2,241.7
						l-0.3,10.2c-0.1,0-0.1,0.1-0.2,0.1l-0.1-0.2c-0.3-0.5-0.6-0.9-1-1.3l0.2-8.2C232.2,242.1,232.7,241.9,233.2,241.7L233.2,241.7z
						 M231,210.7l-0.1,4.9c-0.8,0.5-1.6,1-2.4,1.4l0-4.7C229.4,211.8,230.2,211.3,231,210.7L231,210.7z M230.7,242.7l-0.1,7
						c-0.6-0.4-1.2-0.6-1.9-0.8l0-5.5C229.4,243.1,230,242.9,230.7,242.7L230.7,242.7z M227.4,213.1l0,4.6c-0.7,0.4-1.4,0.7-2.2,1
						l-0.1-4.4C225.9,213.9,226.6,213.5,227.4,213.1L227.4,213.1z M227.6,243.7l0,5.1c-0.7,0.2-1.3,0.4-1.9,0.8l-0.1-5.2
						C226.3,244.1,226.9,243.9,227.6,243.7L227.6,243.7z M223.7,214.9l0.1,4.4c-0.5,0.2-1,0.4-1.5,0.6l-0.1-4.3
						C222.7,215.4,223.2,215.2,223.7,214.9L223.7,214.9z M224.4,244.7l0.1,5.8c-0.3,0.3-0.6,0.7-0.8,1.2l-0.1,0.2
						c-0.1-0.1-0.2-0.1-0.4-0.2l-0.2-6.7C223.5,245,223.9,244.8,224.4,244.7L224.4,244.7z M236.3,77l-0.4-0.6
						c-0.8-1-14.7-1.1-15.6-0.1l-0.5,0.7c2.8-0.3,5.6-0.5,8.4-0.5C230.9,76.5,233.6,76.7,236.3,77L236.3,77z M215.9,78.6
						c4.1-0.7,8.2-1,12.2-1c4,0,8.1,0.3,12.2,1c3.5,0.9,3.7,6.4,0,7.6c-4-0.7-8.1-0.9-12.2-0.9c-4.1,0-8.2,0.2-12.2,0.9
						C212.2,85,212.4,79.6,215.9,78.6L215.9,78.6z M217.7,88.5c6.9-0.8,13.8-0.8,20.7,0c1.2,0.1,1.1-0.5,1.1-1.3
						c-3.7-0.6-7.5-0.8-11.3-0.7c-3.9,0-7.7,0.2-11.5,0.8C216.6,88,216.5,88.6,217.7,88.5L217.7,88.5z"/>
				</defs>
				<clipPath id="SVGID_28_">
					<use xlink:href="#SVGID_27_"  style="overflow:visible;"/>
				</clipPath>
				<g class="ufc10">
					<defs>
						<rect id="SVGID_29_" x="212.2" y="75.3" width="31.9" height="176.6"/>
					</defs>
					<clipPath id="SVGID_30_">
						<use xlink:href="#SVGID_29_"  style="overflow:visible;"/>
					</clipPath>
					<g style="clip-path:url(#SVGID_30_);">
						
							<image style="overflow:visible;" width="32" height="140" xlink:href="FEAE294E.png"  transform="matrix(1.3007 0 0 -1.3007 209.271 255.2449)">
						</image>
					</g>
				</g>
			</g>
			<g>
				<defs>
					<path id="SVGID_31_" d="M218.7,253.1c5-0.1,3.9,0.4,6.9,3.4c0.2-0.2,0.5-0.3,0.7-0.5c-0.6-1-0.9-2.2-1.1-3.4
						c0.7-1.3,1.8-1.8,2.9-2.1c1.1,0.2,2.2,0.8,2.9,2.1c-0.2,1.3-0.6,2.4-1.1,3.4c0.2,0.2,0.5,0.3,0.7,0.5c3-3,1.9-3.5,6.9-3.4
						c-0.1,2.3-2.6,1.7-3.7,3.6c-0.8,1.3,0.1,3-0.8,3.8c-0.2,0.2-0.5,0.3-0.8,0.3c-0.2-2-2.2-3.2-4.1-3.2c-1.9,0-3.9,1.2-4.1,3.2
						c-0.3-0.1-0.6-0.2-0.8-0.3c-0.9-0.8,0-2.5-0.8-3.8C221.3,254.8,218.8,255.4,218.7,253.1L218.7,253.1z M228.1,258.8
						c1.6,0,2.9,1.1,2.9,2.4c0,1.3-1.3,2.4-2.9,2.4s-2.9-1.1-2.9-2.4C225.2,259.9,226.5,258.8,228.1,258.8L228.1,258.8z"/>
				</defs>
				<clipPath id="SVGID_32_">
					<use xlink:href="#SVGID_31_"  style="overflow:visible;"/>
				</clipPath>
				<g class="ufc11">
					<defs>
						<rect id="SVGID_33_" x="218.7" y="250.5" width="18.8" height="13.1"/>
					</defs>
					<clipPath id="SVGID_34_">
						<use xlink:href="#SVGID_33_"  style="overflow:visible;"/>
					</clipPath>
					<g style="clip-path:url(#SVGID_34_);">
						
							<image style="overflow:visible;" width="20" height="14" xlink:href="FEAE294C.png"  transform="matrix(1.3007 0 0 -1.3007 215.773 267.3943)">
						</image>
					</g>
				</g>
			</g>
			<g>
				<defs>
					<path id="SVGID_35_" d="M201.4,89.5l-0.2,7.7c-1.3,0-2.6-0.1-3.8-0.1l0-3.4c0-0.8,0.7-1.4,1.5-1.4l0,0c0.1,0,0.2,0,0.4,0
						c-0.2-0.6-0.8-1.1-1.5-1.1l0,0c-0.8,0-1.5,0.6-1.5,1.4l-0.1,4.4c-1.1,0-2.3,0-3.4,0c-0.4,0-0.8,0-1.2,0l0-3.3
						c0-0.8,0.7-1.4,1.5-1.4l0,0c0.1,0,0.2,0,0.4,0c-0.2-0.6-0.8-1.1-1.5-1.1l0,0c-0.8,0-1.5,0.6-1.5,1.4l0,4.4c-1.5,0-3.1,0-4.6,0
						l-0.1-3.4c0-0.8,0.7-1.4,1.5-1.4l0,0c0.1,0,0.2,0,0.4,0c-0.2-0.6-0.8-1.1-1.5-1.1l0,0c-0.8,0-1.5,0.6-1.5,1.4l0.1,4.4
						c-0.7,0-1.5,0-2.2,0l-0.2-7.6C188.7,88.8,195.1,88.8,201.4,89.5L201.4,89.5z M197.6,220.2l-0.1,4c-0.5,0-1,0-1.4,0l0-4
						C196.6,220.3,197.1,220.3,197.6,220.2L197.6,220.2z M196.8,248.6l-0.2,6.6c0,0.2,0,0.3,0,0.5l-0.1,0l-0.1-0.2
						c-0.3-0.5-0.7-1-1.1-1.4l0.1-5.4C195.9,248.6,196.4,248.6,196.8,248.6L196.8,248.6z M194.8,220.3l0,4c-0.8,0-1.5,0-2.2,0l0-4
						C193.2,220.4,194,220.3,194.8,220.3L194.8,220.3z M194.5,248.6l-0.1,4.7c-0.6-0.3-1.2-0.6-1.9-0.8l0-3.9h1.5v0L194.5,248.6
						L194.5,248.6z M191.3,220.4l0,4c-0.7,0-1.4,0-2.1,0l-0.1-4C189.8,220.3,190.5,220.4,191.3,220.4L191.3,220.4z M191.4,248.7
						l0,3.9c-0.7,0.2-1.3,0.4-1.9,0.7l-0.1-4.6l0.4,0v0H191.4L191.4,248.7z M187.7,220.3l0.1,4c-0.5,0-1,0-1.5,0l-0.1-4
						C186.6,220.3,187.1,220.3,187.7,220.3L187.7,220.3z M188.3,248.6l0.1,5.6c-0.3,0.4-0.7,0.8-0.9,1.3l-0.1,0.2
						c-0.1,0-0.2-0.1-0.3-0.1c0-0.1,0-0.2,0-0.4l-0.2-6.6C187.4,248.6,187.9,248.6,188.3,248.6L188.3,248.6z M200.1,77l-0.4-0.6
						c-0.8-1-14.7-1.1-15.6-0.1l-0.5,0.7c2.8-0.3,5.6-0.5,8.4-0.5C194.7,76.5,197.4,76.7,200.1,77L200.1,77z M179.7,78.6
						c4.1-0.7,8.2-1,12.2-1c4,0,8.1,0.3,12.2,1c3.5,0.9,3.7,6.4,0,7.6c-4-0.7-8.1-0.9-12.2-0.9c-4.1,0-8.2,0.2-12.2,0.9
						C176,85,176.2,79.6,179.7,78.6L179.7,78.6z M181.5,88.5c6.9-0.8,13.8-0.8,20.7,0c1.2,0.1,1.1-0.5,1.1-1.3
						c-3.7-0.6-7.5-0.8-11.3-0.7c-3.9,0-7.7,0.2-11.5,0.8C180.5,88,180.4,88.6,181.5,88.5L181.5,88.5z"/>
				</defs>
				<clipPath id="SVGID_36_">
					<use xlink:href="#SVGID_35_"  style="overflow:visible;"/>
				</clipPath>
				<g class="ufc12">
					<defs>
						<rect id="SVGID_37_" x="176" y="75.3" width="31.9" height="180.4"/>
					</defs>
					<clipPath id="SVGID_38_">
						<use xlink:href="#SVGID_37_"  style="overflow:visible;"/>
					</clipPath>
					<g transform="matrix(1 0 0 1 -1.525879e-05 0)" style="clip-path:url(#SVGID_38_);">
						
							<image style="overflow:visible;" width="32" height="143" xlink:href="CF2BF641.png"  transform="matrix(1.3007 0 0 -1.3007 172.2576 258.818)">
						</image>
					</g>
				</g>
			</g>
			<g>
				<defs>
					<path id="SVGID_39_" d="M182.6,256.8c5-0.1,3.9,0.4,6.9,3.4c0.2-0.2,0.5-0.3,0.7-0.5c-0.6-1-0.9-2.2-1.1-3.4
						c0.7-1.3,1.8-1.8,2.9-2.1c1.1,0.2,2.2,0.8,2.9,2.1c-0.2,1.3-0.6,2.4-1.1,3.4c0.2,0.2,0.5,0.3,0.7,0.5c3-3,1.9-3.5,6.9-3.4
						c-0.1,2.3-2.6,1.7-3.7,3.6c-0.8,1.3,0.1,3-0.8,3.8c-0.2,0.2-0.5,0.3-0.8,0.3c-0.2-2-2.2-3.2-4.1-3.2c-1.9,0-3.9,1.2-4.1,3.2
						c-0.3-0.1-0.6-0.2-0.8-0.3c-0.9-0.8,0-2.5-0.8-3.8C185.1,258.5,182.7,259.2,182.6,256.8L182.6,256.8z M192,262.5
						c1.6,0,2.9,1.1,2.9,2.4c0,1.3-1.3,2.4-2.9,2.4c-1.6,0-2.9-1.1-2.9-2.4C189,263.6,190.3,262.5,192,262.5L192,262.5z"/>
				</defs>
				<clipPath id="SVGID_40_">
					<use xlink:href="#SVGID_39_"  style="overflow:visible;"/>
				</clipPath>
				<g class="ufc13">
					<defs>
						<rect id="SVGID_41_" x="182.6" y="254.2" width="18.8" height="13.1"/>
					</defs>
					<clipPath id="SVGID_42_">
						<use xlink:href="#SVGID_41_"  style="overflow:visible;"/>
					</clipPath>
					<g transform="matrix(1 0 0 1 -1.525879e-05 0)" style="clip-path:url(#SVGID_42_);">
						
							<image style="overflow:visible;" width="20" height="14" xlink:href="CF2BF647.png"  transform="matrix(1.3007 0 0 -1.3007 178.7597 270.6311)">
						</image>
					</g>
				</g>
			</g>
			<g>
				<defs>
					<path id="SVGID_43_" d="M165.2,89.5L165,98c-1.3,0.1-2.6,0.2-3.8,0.3l0-4.6c0-0.8,0.7-1.4,1.5-1.4l0,0c0.1,0,0.2,0,0.4,0
						c-0.2-0.6-0.8-1.1-1.5-1.1l0,0c-0.8,0-1.5,0.6-1.5,1.4l-0.1,5.7c-1.5,0.1-3,0.3-4.6,0.4l0-5.1c0-0.8,0.7-1.4,1.5-1.4l0,0
						c0.1,0,0.2,0,0.4,0c-0.2-0.6-0.8-1.1-1.5-1.1l0,0c-0.8,0-1.5,0.6-1.5,1.4l0,6.2c-1.5,0.2-3,0.3-4.5,0.5l-0.1-5.7
						c0-0.8,0.7-1.4,1.5-1.4l0,0c0.1,0,0.2,0,0.4,0c-0.2-0.6-0.8-1.1-1.5-1.1l0,0c-0.8,0-1.5,0.6-1.5,1.4l0.2,6.9
						c-0.7,0.1-1.5,0.2-2.2,0.3l-0.3-10.3C152.5,88.8,158.9,88.8,165.2,89.5L165.2,89.5z M161.6,215.5l-0.1,4.3
						c-0.5-0.2-1-0.4-1.5-0.6l0-4.4C160.5,215.1,161.1,215.3,161.6,215.5L161.6,215.5z M160.7,245l-0.2,6.8c-0.1,0-0.1,0.1-0.2,0.1
						l-0.1-0.2c-0.3-0.5-0.6-0.9-1-1.3l0.1-5.7C159.9,244.8,160.3,244.9,160.7,245L160.7,245z M158.7,214.2l-0.1,4.5
						c-0.8-0.4-1.6-0.7-2.4-1.1l0-4.6C157,213.4,157.9,213.8,158.7,214.2L158.7,214.2z M158.3,244.4l-0.1,5.3
						c-0.6-0.4-1.2-0.6-1.9-0.8l0-5.1C157.1,244,157.7,244.2,158.3,244.4L158.3,244.4z M155,212.2l0,4.7c-0.8-0.4-1.5-0.9-2.3-1.4
						l-0.1-5l0.1,0.1C153.5,211.1,154.3,211.7,155,212.2L155,212.2z M155.2,243.4l0,5.5c-0.7,0.2-1.3,0.4-1.9,0.8l-0.1-6.9
						C153.9,242.9,154.6,243.1,155.2,243.4L155.2,243.4z M151.2,209.3l0.1,5.2c-0.4-0.2-0.7-0.5-1-0.8c-0.2-0.1-0.4-0.3-0.6-0.4
						l-0.2-5.5C150.1,208.3,150.7,208.8,151.2,209.3L151.2,209.3z M152,242.2l0.2,8.4c-0.3,0.3-0.6,0.7-0.8,1.2l-0.1,0.2
						c-0.1-0.1-0.2-0.1-0.4-0.2l-0.3-10.2C151.1,241.8,151.5,242,152,242.2L152,242.2z M143.6,78.6c4.1-0.7,8.2-1,12.2-1
						c4,0,8.1,0.3,12.2,1c3.5,0.9,3.7,6.4,0,7.6c-4-0.7-8.1-0.9-12.2-0.9c-4.1,0-8.2,0.2-12.2,0.9C139.9,85,140.1,79.6,143.6,78.6
						L143.6,78.6z M164,77l-0.4-0.6c-0.8-1-14.7-1.1-15.6-0.1l-0.5,0.7c2.8-0.3,5.6-0.5,8.4-0.5C158.5,76.5,161.3,76.7,164,77
						L164,77z M145.4,88.5c6.9-0.8,13.8-0.8,20.7,0c1.2,0.1,1.1-0.5,1.1-1.3c-3.7-0.6-7.5-0.8-11.3-0.7c-3.9,0-7.7,0.2-11.5,0.8
						C144.3,88,144.2,88.6,145.4,88.5L145.4,88.5z"/>
				</defs>
				<clipPath id="SVGID_44_">
					<use xlink:href="#SVGID_43_"  style="overflow:visible;"/>
				</clipPath>
				<g class="ufc14">
					<defs>
						<rect id="SVGID_45_" x="139.9" y="75.3" width="31.9" height="176.6"/>
					</defs>
					<clipPath id="SVGID_46_">
						<use xlink:href="#SVGID_45_"  style="overflow:visible;"/>
					</clipPath>
					<g style="clip-path:url(#SVGID_46_);">
						
							<image style="overflow:visible;" width="32" height="140" xlink:href="CF2BF640.png"  transform="matrix(1.3007 0 0 -1.3007 136.5454 255.2449)">
						</image>
					</g>
				</g>
			</g>
			<g>
				<defs>
					<path id="SVGID_47_" d="M146.4,253.1c5-0.1,3.9,0.4,6.9,3.4c0.2-0.2,0.5-0.3,0.7-0.5c-0.6-1-0.9-2.2-1.1-3.4
						c0.7-1.3,1.8-1.8,2.9-2.1c1.1,0.2,2.2,0.8,2.9,2.1c-0.2,1.3-0.6,2.4-1.1,3.4c0.2,0.2,0.5,0.3,0.7,0.5c3-3,1.9-3.5,6.9-3.4
						c-0.1,2.3-2.6,1.7-3.7,3.6c-0.8,1.3,0.1,3-0.8,3.8c-0.2,0.2-0.5,0.3-0.8,0.3c-0.2-2-2.2-3.2-4.1-3.2c-1.9,0-3.9,1.2-4.1,3.2
						c-0.3-0.1-0.6-0.2-0.8-0.3c-0.9-0.8,0-2.5-0.8-3.8C149,254.8,146.5,255.4,146.4,253.1L146.4,253.1z M155.8,258.8
						c1.6,0,2.9,1.1,2.9,2.4c0,1.3-1.3,2.4-2.9,2.4c-1.6,0-2.9-1.1-2.9-2.4C152.9,259.9,154.2,258.8,155.8,258.8L155.8,258.8z"/>
				</defs>
				<clipPath id="SVGID_48_">
					<use xlink:href="#SVGID_47_"  style="overflow:visible;"/>
				</clipPath>
				<g class="ufc15">
					<defs>
						<rect id="SVGID_49_" x="146.4" y="250.5" width="18.8" height="13.1"/>
					</defs>
					<clipPath id="SVGID_50_">
						<use xlink:href="#SVGID_49_"  style="overflow:visible;"/>
					</clipPath>
					<g style="clip-path:url(#SVGID_50_);">
						
							<image style="overflow:visible;" width="20" height="14" xlink:href="CF2BF643.png"  transform="matrix(1.3007 0 0 -1.3007 143.0474 267.3943)">
						</image>
					</g>
				</g>
			</g>
			<g>
				<defs>
					<path id="SVGID_51_" d="M168.3,99.8c25.2-1.6,50-0.6,75.8,2.9l-3.2,72.6l-9-10.5L227,169l-6.9-8l4.9-4.2l-10.5-12.3l-4.9,4.2
						l-6.9-8l4.9-4.2l-10.5-12.3l-4.9,4.2l-6.9-8l4.9-4.2l-10.5-12.3l-4.9,4.2l-6.9-8L168.3,99.8L168.3,99.8
						C168.3,99.8,168.3,99.8,168.3,99.8L168.3,99.8z M240.8,178.6l-0.3,6.3l-3-3.5L240.8,178.6L240.8,178.6z M213,216.2
						C213,216.2,212.9,216.2,213,216.2c-5.8,1.3-12.8,2-21,2c-37.2,0-47.8-15-48.4-29.9l-2.1-47.9l8.6,10.1l4.9-4.2l6.9,8l-4.9,4.2
						l10.5,12.3l4.9-4.2l6.9,8l-4.9,4.2l10.5,12.3l4.9-4.2l6.9,8l-4.9,4.2l10.5,12.3l4.9-4.2l6.9,8c-0.3,0.3-0.6,0.5-0.9,0.8
						C213.1,216.2,213,216.2,213,216.2L213,216.2z M141.5,140.3l-1.6-37.5L141,130l3.5,4.1l-3.2,2.7L141.5,140.3L141.5,140.3z"/>
				</defs>
				<clipPath id="SVGID_52_">
					<use xlink:href="#SVGID_51_"  style="overflow:visible;"/>
				</clipPath>
				<g class="ufc16">
					<defs>
						<rect id="SVGID_53_" x="139.8" y="98.2" width="104.3" height="120.1"/>
					</defs>
					<clipPath id="SVGID_54_">
						<use xlink:href="#SVGID_53_"  style="overflow:visible;"/>
					</clipPath>
					<g style="clip-path:url(#SVGID_54_);">
						
							<image style="overflow:visible;" width="88" height="96" xlink:href="CF2BF65F.png"  transform="matrix(1.3007 0 0 -1.3007 137.137 221.2237)">
						</image>
					</g>
				</g>
			</g>
			<path class="ufc17" d="M139.8,102.7c8.7-1.2,17.3-2.1,25.8-2.7l9.1,10.6l4.9-4.2l8.2,9.6l-4.9,4.2l9.2,10.7l4.9-4.2l8.2,9.6
				l-4.9,4.2l9.2,10.7l4.9-4.2l8.2,9.6l-4.9,4.2l8.1,9.5l1,1.2l4.9-4.2l8.2,9.6l0,0l-4.9,4.2l5.4,6.3l0,1c-0.4,10.9-6.2,21.9-24,27
				l-8-9.3l-1-1.2l-4.9,4.2l-8.2-9.6l0,0l4.9-4.2l-9.2-10.7l0.6-0.5l-5.5,4.7l-8.2-9.6l4.9-4.2l-9.2-10.7l-4.9,4.2l-8.2-9.6l4.9-4.2
				l-9.2-10.7l-4.9,4.2l-8.2-9.6l4.9-4.2l-6.1-7.2L139.8,102.7L139.8,102.7z M206.7,195.2c-0.1,0-0.2,0-0.3,0
				c-0.9,0-1.8-0.1-2.6-0.2c-0.7-0.1-1.5-0.2-2.3-0.4c-0.1,0-0.1,0-0.2,0c-0.3-0.1-0.6-0.4-0.6-0.8c0-0.4,0.3-0.6,0.7-0.7
				c0.1,0,0.1,0,0.2,0c0.7-0.1,1.5-0.2,2.2-0.3c0.9-0.1,1.9-0.2,2.8-0.3c-0.4-0.1-0.8-0.2-1.2-0.3c-1-0.2-1.9-0.4-2.9-0.7
				c-0.8-0.2-1.6-0.5-2.4-0.9c0,0-0.1,0-0.1,0c-0.3-0.1-0.5-0.5-0.5-0.8c0.1-0.4,0.4-0.6,0.8-0.6c0.1,0,0.1,0,0.1,0
				c0.8,0,1.6,0.1,2.4,0.2c0.8,0.1,1.6,0.1,2.4,0.2c0,0,0,0-0.1,0c-1-0.4-2-0.7-2.9-1.1c-0.8-0.3-1.6-0.7-2.4-1.2
				c-0.3-0.2-0.7-0.4-0.5-1c0.1-0.4,0.5-0.6,0.8-0.5c0.1,0,0.1,0,0.2,0c0.8,0.1,1.7,0.3,2.5,0.5c0.7,0.2,1.5,0.4,2.2,0.5
				c-0.8-0.4-1.7-0.9-2.5-1.4c-0.8-0.5-1.6-0.9-2.3-1.5c-0.3-0.2-0.6-0.5-0.4-1.1c0.1-0.2,0.3-0.3,0.4-0.4c0.3-0.1,0.4,0,0.7,0
				c0.9,0.2,1.7,0.5,2.6,0.9c0.7,0.3,1.4,0.5,2.1,0.8c-0.7-0.5-1.4-1-2.1-1.6c-0.8-0.6-1.5-1.2-2.2-1.8c-0.3-0.3-0.6-0.6-0.2-1.1
				c0.2-0.3,0.5-0.4,0.8-0.3c0.1,0,0.1,0,0.1,0c0.1,0,0.1,0,0.1,0.1c0.9,0.3,1.7,0.8,2.6,1.2c0.6,0.3,1.3,0.7,1.9,1
				c-0.6-0.6-1.2-1.1-1.7-1.7c-0.7-0.7-1.4-1.4-2-2.2c-0.2-0.3-0.5-0.7-0.1-1.1c0.3-0.3,0.7-0.3,0.7-0.2c0.1,0,0.1,0,0.2,0
				c0.1,0,0.1,0,0.1,0.1c0,0,0.1,0,0.1,0.1c0.9,0.5,1.7,1.1,2.5,1.6c0.8,0.6,1.5,1.1,2.2,1.7c-0.6-0.7-1.1-1.5-1.7-2.2
				c-0.6-0.8-1.2-1.7-1.7-2.6c0-0.1-0.1-0.1-0.1-0.2c-0.2-0.3-0.2-0.7,0.1-1c0.3-0.3,0.7-0.2,1,0c0.1,0,0.1,0.1,0.2,0.1
				c0.8,0.6,1.6,1.3,2.3,2c0.6,0.6,1.2,1.2,1.9,1.9c-0.4-0.8-0.9-1.6-1.3-2.4c-0.4-0.8-0.9-1.7-1.2-2.6c0-0.1,0-0.1-0.1-0.2
				c0-0.1,0,0,0-0.1c0,0,0-0.1,0-0.2c0,0,0-0.4,0.3-0.6c0.5-0.3,0.8,0,1.1,0.3c0.7,0.7,1.3,1.5,1.8,2.3c0.5,0.6,0.9,1.3,1.4,1.9
				c-0.3-0.7-0.5-1.3-0.7-2c-0.3-0.9-0.6-1.8-0.8-2.7c0-0.1,0-0.2,0-0.2c0-0.1,0-0.1,0-0.2c0-0.3,0.2-0.6,0.5-0.7
				c0.6-0.2,0.8,0.2,1,0.5c0.5,0.8,1,1.6,1.5,2.5c0.4,0.7,0.8,1.5,1.2,2.3c-0.2-0.7-0.3-1.4-0.5-2.2c-0.2-0.9-0.4-1.8-0.5-2.7
				c0-0.1,0-0.1,0-0.2c0-0.1,0,0,0-0.1c0-0.3,0.2-0.6,0.5-0.7c0.6-0.2,0.8,0.2,1,0.6c0.4,0.8,0.8,1.7,1.1,2.5
				c0.3,0.9,0.6,1.8,0.9,2.6c-0.1-0.7-0.1-1.5-0.2-2.3c-0.1-0.8-0.1-1.7-0.1-2.5c0-0.1,0-0.1,0-0.2c0-0.4,0.2-0.7,0.6-0.8
				c0.6-0.1,0.7,0.3,0.9,0.7c0.3,0.8,0.6,1.7,0.8,2.5c0.3,1,0.5,2,0.7,3.1c0,0,0,0,0,0c0-0.8,0.1-1.6,0.1-2.3c0-0.8,0.1-1.6,0.2-2.4
				c0-0.1,0-0.1,0-0.2c0-0.4,0.3-0.7,0.7-0.7c0.4,0,0.7,0.2,0.8,0.6c0,0,0,0.1,0,0.1c0.2,0.8,0.4,1.6,0.5,2.5c0.1,1,0.2,1.9,0.3,2.9
				c0,0.4,0,0.8,0.1,1.2c0.2-0.9,0.5-1.8,0.7-2.7c0.2-0.7,0.4-1.4,0.6-2.1c0-0.1,0-0.1,0.1-0.2c0.1-0.3,0.4-0.6,0.8-0.5
				c0.4,0.1,0.6,0.4,0.6,0.7c0,0.1,0,0.1,0,0.1c0.1,0.7,0.1,1.5,0.1,2.3c0,0.9-0.1,1.8-0.2,2.6c0,0.1,0,0.2,0,0.3
				c0.2-0.5,0.5-1,0.7-1.6c0.3-0.6,0.5-1.1,0.8-1.7c0.2-0.4,0.5-0.7,1-0.5c0.3,0.1,0.5,0.4,0.5,0.8c0,0,0,0.1,0,0.1
				c0,0.7-0.1,1.6-0.3,2.3c-0.2,0.9-0.5,1.8-0.7,2.7c0,0.1,0,0.1,0,0.2c0.3-0.4,0.6-0.8,1-1.2c0.3-0.4,0.7-0.8,1-1.2
				c0.3-0.3,0.5-0.5,1-0.3c0.3,0.1,0.5,0.5,0.4,0.8c0,0.1,0,0.1,0,0.2c-0.1,1.2-0.9,2.8-1.5,3.9c-0.2,0.4-0.4,0.8-0.6,1.1
				c0.5-0.4,0.9-0.7,1.4-1.1c0.3-0.3,0.7-0.6,1-0.8c0.3-0.2,0.6-0.3,0.9,0c0.2,0.2,0.3,0.4,0.3,0.7c0,0,0,0.1,0,0.1
				c-0.1,1-1.4,2.6-2.7,4l2-0.8l0.1,0c0,0,0.1,0,0.1,0c0.3,0,0.6,0.1,0.8,0.3c0.2,0.4,0.1,0.7-0.1,1c-2.2,3.3-5.9,4.5-9.8,4.4
				c-0.3,0-0.6,0-0.9,0.1l6.9,7.5c0.2,0.3,0.4,0.5,0.3,0.9c-0.1,0.3-0.3,0.4-0.6,0.5c-0.2,0.1-0.3,0.2-0.4,0.4
				c-0.1,0.3-0.4,0.5-0.7,0.5c-0.4,0-0.6-0.2-0.8-0.5l-6.4-7.9c-0.1,0.3-0.2,0.6-0.2,0.8c-0.5,3.8-2.4,7.1-5.8,8.9
				c-0.3,0.2-0.7,0.3-1,0c-0.2-0.2-0.3-0.6-0.2-0.8c0,0,0-0.1,0.1-0.1l0-0.1l1-1.8c-1.5,1-3.3,2-4.3,2c0,0-0.1,0-0.1,0
				c-0.3,0-0.5-0.2-0.7-0.4c-0.2-0.4,0-0.7,0.2-0.9c0.3-0.3,0.6-0.6,0.9-0.9c0.4-0.4,0.9-0.8,1.3-1.2c-0.4,0.1-0.8,0.3-1.2,0.4
				c-1.2,0.4-2.9,0.9-4.1,0.9c0,0-0.1,0-0.1,0c-0.3,0-0.6-0.2-0.7-0.5c-0.1-0.4,0.1-0.7,0.4-0.9c0.4-0.3,0.9-0.6,1.4-0.9
				c0.5-0.3,0.9-0.5,1.4-0.8c-0.1,0-0.1,0-0.2,0c-0.9,0.1-1.8,0.3-2.8,0.3c-0.7,0-1.6,0.1-2.3-0.1c-0.1,0-0.1,0-0.2,0
				c-0.3-0.1-0.6-0.3-0.6-0.7c0-0.4,0.2-0.6,0.5-0.8c0.1,0,0.1,0,0.2-0.1c0.6-0.2,1.2-0.4,1.8-0.6
				C205.6,195.5,206.1,195.4,206.7,195.2L206.7,195.2z M180.2,164.3c-0.1,0-0.2,0-0.3,0c-0.9,0-1.8-0.1-2.6-0.2
				c-0.7-0.1-1.5-0.2-2.3-0.4c-0.1,0-0.1,0-0.2,0c-0.3-0.1-0.6-0.4-0.6-0.8c0-0.4,0.3-0.6,0.7-0.7c0.1,0,0.1,0,0.2,0
				c0.7-0.1,1.5-0.2,2.2-0.3c0.9-0.1,1.9-0.2,2.8-0.3c-0.4-0.1-0.8-0.2-1.2-0.3c-1-0.2-1.9-0.4-2.9-0.7c-0.8-0.2-1.6-0.5-2.4-0.9
				c0,0-0.1,0-0.1,0c-0.3-0.1-0.5-0.5-0.5-0.8c0.1-0.4,0.4-0.6,0.8-0.6c0.1,0,0.1,0,0.1,0c0.8,0,1.6,0.1,2.4,0.2
				c0.8,0.1,1.6,0.1,2.4,0.2c0,0,0,0-0.1,0c-1-0.4-2-0.7-2.9-1.1c-0.8-0.3-1.6-0.7-2.4-1.2c-0.3-0.2-0.7-0.4-0.5-1
				c0.1-0.4,0.5-0.6,0.8-0.5c0.1,0,0.1,0,0.2,0c0.8,0.1,1.7,0.3,2.5,0.5c0.7,0.2,1.5,0.4,2.2,0.5c-0.8-0.4-1.7-0.9-2.5-1.4
				c-0.8-0.5-1.6-0.9-2.3-1.5c-0.3-0.2-0.6-0.5-0.4-1.1c0.1-0.2,0.3-0.3,0.4-0.4c0.3-0.1,0.4,0,0.7,0c0.9,0.2,1.7,0.5,2.6,0.9
				c0.7,0.3,1.4,0.5,2.1,0.8c-0.7-0.5-1.4-1-2.1-1.6c-0.8-0.6-1.5-1.2-2.2-1.8c-0.3-0.3-0.6-0.6-0.2-1.1c0.2-0.3,0.5-0.4,0.8-0.3
				c0.1,0,0.1,0,0.1,0c0.1,0,0.1,0,0.1,0.1c0.9,0.3,1.7,0.8,2.6,1.2c0.6,0.3,1.3,0.7,1.9,1c-0.6-0.6-1.2-1.1-1.7-1.7
				c-0.7-0.7-1.4-1.4-2-2.2c-0.2-0.3-0.5-0.7-0.1-1.1c0.3-0.3,0.7-0.3,0.7-0.2c0.1,0,0.1,0,0.2,0.1c0.1,0,0.1,0,0.1,0.1
				c0,0,0.1,0.1,0.1,0.1c0.9,0.5,1.7,1.1,2.5,1.6c0.8,0.6,1.5,1.1,2.2,1.7c-0.6-0.7-1.1-1.5-1.7-2.2c-0.6-0.8-1.2-1.7-1.7-2.6
				c0-0.1-0.1-0.1-0.1-0.2c-0.2-0.3-0.2-0.7,0.1-1c0.3-0.3,0.7-0.2,1,0c0.1,0,0.1,0.1,0.2,0.1c0.8,0.6,1.6,1.3,2.3,2
				c0.6,0.6,1.2,1.2,1.9,1.9c-0.4-0.8-0.9-1.6-1.3-2.4c-0.4-0.8-0.9-1.7-1.2-2.6c0-0.1,0-0.1-0.1-0.2c0-0.1,0,0,0-0.1
				c0,0,0-0.1,0-0.2c0,0,0-0.4,0.3-0.6c0.5-0.3,0.8,0,1.1,0.3c0.7,0.7,1.3,1.5,1.8,2.3c0.5,0.6,0.9,1.3,1.4,1.9
				c-0.3-0.7-0.5-1.3-0.7-2c-0.3-0.9-0.6-1.8-0.8-2.7c0-0.1,0-0.2,0-0.2c0-0.1,0-0.1,0-0.2c0-0.3,0.2-0.6,0.5-0.7
				c0.6-0.2,0.8,0.2,1,0.5c0.5,0.8,1,1.6,1.5,2.5c0.4,0.7,0.8,1.5,1.2,2.3c-0.2-0.7-0.3-1.4-0.5-2.2c-0.2-0.9-0.4-1.8-0.5-2.7
				c0-0.1,0-0.1,0-0.2c0-0.1,0,0,0-0.1c0-0.3,0.2-0.6,0.5-0.7c0.6-0.2,0.8,0.2,1,0.6c0.4,0.8,0.8,1.7,1.1,2.5
				c0.3,0.9,0.6,1.8,0.9,2.6c-0.1-0.8-0.1-1.5-0.2-2.3c-0.1-0.8-0.1-1.7-0.1-2.5c0-0.1,0-0.1,0-0.2c0-0.4,0.2-0.7,0.6-0.8
				c0.6-0.1,0.7,0.3,0.9,0.7c0.3,0.8,0.6,1.7,0.8,2.5c0.3,1,0.5,2,0.7,3.1c0,0,0,0,0,0c0-0.8,0.1-1.6,0.1-2.3
				c0.1-0.8,0.1-1.6,0.2-2.4c0-0.1,0-0.1,0-0.2c0.1-0.4,0.3-0.7,0.7-0.7c0.4,0,0.7,0.2,0.8,0.6c0,0.1,0,0.1,0,0.1
				c0.2,0.8,0.4,1.6,0.5,2.5c0.1,1,0.2,1.9,0.3,2.9c0,0.4,0.1,0.8,0.1,1.2c0.2-0.9,0.5-1.8,0.7-2.7c0.2-0.7,0.4-1.4,0.6-2.1
				c0-0.1,0-0.1,0.1-0.2c0.1-0.3,0.4-0.6,0.8-0.5c0.4,0.1,0.6,0.4,0.6,0.7c0,0,0,0.1,0,0.1c0.1,0.7,0.1,1.5,0.1,2.3
				c0,0.9-0.1,1.8-0.2,2.6c0,0.1,0,0.2,0,0.3c0.2-0.5,0.5-1,0.7-1.6c0.3-0.6,0.5-1.1,0.8-1.7c0.2-0.4,0.5-0.6,1-0.5
				c0.3,0.1,0.5,0.4,0.5,0.8c0,0,0,0.1,0,0.1c0,0.7-0.1,1.6-0.3,2.3c-0.2,0.9-0.5,1.8-0.7,2.7c0,0.1,0,0.1,0,0.2
				c0.3-0.4,0.6-0.8,1-1.2c0.3-0.4,0.7-0.9,1-1.2c0.3-0.3,0.5-0.5,1-0.3c0.3,0.1,0.5,0.5,0.4,0.8c0,0.1,0,0.1,0,0.2
				c-0.1,1.2-0.9,2.8-1.5,3.9c-0.2,0.4-0.4,0.8-0.6,1.1c0.5-0.4,0.9-0.7,1.4-1.1c0.3-0.3,0.7-0.6,1-0.8c0.3-0.2,0.6-0.3,0.9,0
				c0.2,0.2,0.3,0.4,0.3,0.7c0,0,0,0.1,0,0.1c-0.1,1-1.4,2.6-2.7,4l2-0.8l0.1,0c0.1,0,0.1,0,0.1,0c0.3,0,0.6,0.1,0.8,0.3
				c0.2,0.4,0.1,0.7-0.1,1c-2.2,3.3-5.9,4.5-9.8,4.4c-0.3,0-0.6,0-0.9,0.1l6.9,7.5c0.2,0.3,0.4,0.5,0.3,0.9
				c-0.1,0.3-0.3,0.4-0.6,0.5c-0.2,0.1-0.3,0.2-0.4,0.4c-0.1,0.3-0.4,0.5-0.7,0.5c-0.4,0-0.6-0.2-0.8-0.5l-6.4-7.9
				c-0.1,0.3-0.2,0.6-0.2,0.8c-0.5,3.8-2.4,7.1-5.8,8.9c-0.3,0.2-0.7,0.3-1,0c-0.2-0.2-0.3-0.6-0.2-0.8c0,0,0-0.1,0-0.1l0-0.1l1-1.8
				c-1.5,1-3.3,2-4.3,2c0,0-0.1,0-0.1,0c-0.3,0-0.5-0.2-0.7-0.4c-0.2-0.4,0-0.7,0.2-0.9c0.3-0.3,0.6-0.6,0.9-0.9
				c0.4-0.4,0.9-0.8,1.3-1.2c-0.4,0.2-0.8,0.3-1.2,0.4c-1.2,0.4-2.9,0.9-4.1,0.9c0,0-0.1,0-0.1,0c-0.3,0-0.6-0.2-0.7-0.5
				c-0.1-0.4,0.1-0.7,0.4-0.9c0.4-0.3,0.9-0.6,1.4-0.8c0.5-0.3,0.9-0.5,1.4-0.8c-0.1,0-0.1,0-0.2,0c-0.9,0.1-1.8,0.2-2.8,0.3
				c-0.7,0-1.6,0.1-2.3-0.1c-0.1,0-0.1,0-0.2,0c-0.3-0.1-0.6-0.3-0.6-0.7c0-0.4,0.2-0.6,0.5-0.8c0.1,0,0.1,0,0.2-0.1
				c0.6-0.2,1.2-0.4,1.8-0.6C179.1,164.6,179.7,164.5,180.2,164.3L180.2,164.3z M153.7,133.5c-0.1,0-0.2,0-0.3,0
				c-0.9,0-1.8-0.1-2.6-0.2c-0.7-0.1-1.5-0.2-2.3-0.4c-0.1,0-0.1,0-0.2,0c-0.3-0.1-0.6-0.4-0.6-0.8c0-0.4,0.3-0.6,0.7-0.7
				c0.1,0,0.1,0,0.2,0c0.7-0.1,1.5-0.2,2.2-0.3c0.9-0.1,1.9-0.2,2.8-0.3c-0.4-0.1-0.8-0.2-1.2-0.3c-1-0.2-1.9-0.4-2.9-0.7
				c-0.8-0.2-1.6-0.5-2.4-0.9c0,0-0.1,0-0.1,0c-0.3-0.1-0.5-0.5-0.5-0.8c0.1-0.4,0.4-0.6,0.8-0.6c0,0,0.1,0,0.1,0
				c0.8,0,1.6,0.1,2.4,0.2c0.8,0.1,1.6,0.1,2.4,0.2c0,0,0,0-0.1,0c-1-0.4-2-0.7-2.9-1.1c-0.8-0.3-1.6-0.7-2.4-1.2
				c-0.3-0.2-0.7-0.4-0.5-1c0.1-0.4,0.5-0.6,0.8-0.5c0.1,0,0.1,0,0.2,0c0.8,0.1,1.7,0.3,2.5,0.5c0.7,0.2,1.5,0.4,2.2,0.5
				c-0.8-0.4-1.7-0.9-2.5-1.4c-0.8-0.5-1.6-0.9-2.3-1.5c-0.3-0.2-0.6-0.6-0.4-1.1c0.1-0.2,0.3-0.3,0.4-0.4c0.3-0.1,0.4,0,0.7,0
				c0.9,0.2,1.7,0.5,2.6,0.9c0.7,0.3,1.4,0.5,2.1,0.8c-0.7-0.5-1.4-1-2.1-1.6c-0.8-0.6-1.5-1.2-2.2-1.8c-0.3-0.3-0.6-0.6-0.2-1.1
				c0.2-0.3,0.5-0.4,0.8-0.3c0.1,0,0.1,0,0.1,0c0.1,0,0.1,0,0.1,0.1c0.9,0.3,1.7,0.8,2.6,1.2c0.6,0.3,1.3,0.7,1.9,1
				c-0.6-0.6-1.2-1.1-1.7-1.7c-0.7-0.7-1.4-1.4-2-2.2c-0.2-0.3-0.5-0.7-0.1-1.1c0.3-0.3,0.7-0.3,0.7-0.2c0.1,0,0.1,0,0.2,0
				c0.1,0,0.1,0,0.1,0.1c0,0,0.1,0.1,0.1,0.1c0.9,0.5,1.7,1.1,2.5,1.6c0.8,0.6,1.5,1.1,2.2,1.7c-0.6-0.7-1.1-1.5-1.7-2.2
				c-0.6-0.8-1.2-1.7-1.7-2.6c0-0.1-0.1-0.1-0.1-0.2c-0.2-0.3-0.2-0.7,0.1-1c0.3-0.3,0.7-0.2,1,0c0.1,0,0.1,0.1,0.2,0.1
				c0.8,0.6,1.6,1.3,2.3,2c0.6,0.6,1.2,1.2,1.9,1.9c-0.4-0.8-0.9-1.6-1.3-2.4c-0.4-0.8-0.9-1.7-1.2-2.6c0-0.1,0-0.1-0.1-0.2
				c0-0.1,0,0,0-0.1c0,0,0-0.1,0-0.2c0,0,0-0.4,0.4-0.6c0.5-0.3,0.8,0,1.1,0.3c0.7,0.7,1.3,1.5,1.8,2.3c0.5,0.6,0.9,1.3,1.4,1.9
				c-0.3-0.7-0.5-1.3-0.7-2c-0.3-0.9-0.6-1.8-0.8-2.7c0-0.1,0-0.2,0-0.2c0-0.1,0-0.1,0-0.2c0-0.3,0.2-0.6,0.5-0.7
				c0.6-0.2,0.8,0.2,1,0.5c0.5,0.8,1,1.6,1.5,2.5c0.4,0.7,0.8,1.5,1.2,2.3c-0.2-0.7-0.3-1.4-0.5-2.2c-0.2-0.9-0.4-1.8-0.5-2.7
				c0-0.1,0-0.1,0-0.2c0-0.1,0,0,0-0.1c0-0.3,0.2-0.6,0.5-0.7c0.6-0.2,0.8,0.2,1,0.6c0.4,0.8,0.8,1.7,1.1,2.5c0.3,0.9,0.6,1.8,1,2.6
				c-0.1-0.8-0.1-1.5-0.2-2.3c-0.1-0.8-0.1-1.7-0.1-2.5c0-0.1,0-0.1,0-0.2c0-0.4,0.2-0.7,0.6-0.8c0.6-0.1,0.7,0.3,0.9,0.7
				c0.3,0.8,0.6,1.7,0.8,2.5c0.2,1,0.5,2,0.7,3.1c0,0,0,0,0,0c0-0.8,0.1-1.6,0.1-2.3c0.1-0.8,0.1-1.6,0.2-2.4c0-0.1,0-0.1,0-0.2
				c0-0.4,0.3-0.7,0.7-0.7c0.4,0,0.7,0.2,0.8,0.6c0,0,0,0.1,0,0.1c0.2,0.8,0.4,1.6,0.5,2.5c0.1,1,0.2,1.9,0.3,2.9
				c0,0.4,0.1,0.8,0.1,1.2c0.2-0.9,0.5-1.8,0.7-2.7c0.2-0.7,0.4-1.4,0.6-2.1c0-0.1,0-0.1,0.1-0.2c0.1-0.3,0.4-0.6,0.8-0.5
				c0.4,0.1,0.6,0.4,0.7,0.7c0,0,0,0.1,0,0.1c0.1,0.7,0.1,1.5,0.1,2.3c0,0.9-0.1,1.8-0.2,2.6c0,0.1,0,0.2,0,0.3
				c0.2-0.5,0.5-1,0.7-1.6c0.3-0.6,0.5-1.1,0.8-1.7c0.2-0.4,0.5-0.6,1-0.5c0.3,0.1,0.5,0.4,0.5,0.8c0,0,0,0.1,0,0.1
				c0,0.7-0.1,1.6-0.3,2.3c-0.2,0.9-0.5,1.8-0.7,2.7c0,0.1,0,0.1,0,0.2c0.3-0.4,0.6-0.8,1-1.2c0.3-0.4,0.7-0.8,1-1.2
				c0.3-0.3,0.5-0.5,1-0.3c0.3,0.1,0.5,0.5,0.4,0.8c0,0.1,0,0.1,0,0.2c-0.1,1.2-0.9,2.8-1.5,3.9c-0.2,0.4-0.4,0.8-0.6,1.1
				c0.5-0.4,0.9-0.7,1.4-1.1c0.3-0.3,0.7-0.6,1-0.8c0.3-0.2,0.6-0.3,0.9,0c0.2,0.2,0.3,0.4,0.3,0.7c0,0,0,0.1,0,0.1
				c-0.1,1-1.4,2.6-2.7,4l2-0.8l0.1,0c0.1,0,0.1,0,0.1,0c0.3,0,0.6,0.1,0.8,0.3c0.2,0.4,0.1,0.7-0.1,1c-2.2,3.3-5.9,4.5-9.8,4.4
				c-0.2,0-0.6,0-0.9,0.1l6.9,7.5c0.2,0.3,0.4,0.5,0.3,0.9c-0.1,0.3-0.3,0.4-0.6,0.5c-0.2,0.1-0.3,0.2-0.4,0.4
				c-0.1,0.3-0.4,0.5-0.7,0.5c-0.4,0-0.6-0.2-0.8-0.5l-6.4-7.9c-0.1,0.3-0.2,0.6-0.2,0.8c-0.5,3.8-2.4,7.1-5.8,8.9
				c-0.3,0.2-0.7,0.3-1,0c-0.2-0.2-0.3-0.6-0.2-0.8c0,0,0-0.1,0-0.1l0-0.1l1-1.8c-1.5,1-3.3,2-4.3,2c0,0-0.1,0-0.1,0
				c-0.3,0-0.5-0.2-0.7-0.4c-0.2-0.4,0-0.7,0.2-0.9c0.3-0.3,0.6-0.6,0.9-0.9c0.4-0.4,0.9-0.8,1.3-1.2c-0.4,0.2-0.8,0.3-1.2,0.4
				c-1.2,0.4-2.9,0.9-4.1,0.9c-0.1,0-0.1,0-0.1,0c-0.3,0-0.6-0.2-0.7-0.5c-0.1-0.4,0.1-0.7,0.4-0.9c0.4-0.3,0.9-0.6,1.4-0.8
				c0.5-0.3,0.9-0.5,1.4-0.8c-0.1,0-0.1,0-0.2,0c-0.9,0.1-1.8,0.3-2.8,0.3c-0.7,0-1.6,0.1-2.3-0.1c-0.1,0-0.1,0-0.2,0
				c-0.3-0.1-0.6-0.3-0.6-0.7c0-0.4,0.2-0.6,0.5-0.8c0.1,0,0.1,0,0.2-0.1c0.6-0.2,1.2-0.4,1.8-0.6
				C152.7,133.8,153.2,133.6,153.7,133.5L153.7,133.5z"/>
			<g>
				<defs>
					<path id="SVGID_55_" d="M127.1,177.6c2.5-9.2,4-17.7-0.3-28.1c-0.7-1.3-0.6-0.6-0.6,0.3c-0.3,9.6-4.2,13.5-6.8,21
						c-1.7-4.8-6.6-9.2-10.3-11.9c-1.5-1.2-1.2-1.1-0.6,0.4c7,18.2-12.3,44.2-2.2,44.1l0,0c2.7,0,3.3-4.7,3.6-10.1
						c0.2-3.3,0.2-11.7,3.6-14.2c0.7-0.4,1.4-0.5,2.2-0.6l1.4-0.1l9.6-0.8l0.1,0l0.1,0L127.1,177.6L127.1,177.6L127.1,177.6z"/>
				</defs>
				<clipPath id="SVGID_56_">
					<use xlink:href="#SVGID_55_"  style="overflow:visible;"/>
				</clipPath>
				<g class="ufc18">
					<defs>
						<rect id="SVGID_57_" x="96.2" y="148.2" width="35" height="55.2"/>
					</defs>
					<clipPath id="SVGID_58_">
						<use xlink:href="#SVGID_57_"  style="overflow:visible;"/>
					</clipPath>
					<g style="clip-path:url(#SVGID_58_);">
						
							<image style="overflow:visible;" width="32" height="47" xlink:href="CF2BF642.png"  transform="matrix(1.3007 0 0 -1.3007 92.506 206.9526)">
						</image>
					</g>
				</g>
			</g>
			<g>
				<defs>
					<path id="SVGID_59_" d="M114,189.9L114,189.9L114,189.9L114,189.9L114,189.9L114,189.9L114,189.9L114,189.9L114,189.9
						L114,189.9L114,189.9L114,189.9L114,189.9L114,189.9l0-0.1v0v0l0,0v0v0v0l0,0l0,0v0l0,0v0v0v0v0l0-0.1l-0.4-8.7l0,0l0,0l0,0
						l0,0l0,0l0,0l0,0l0,0l0,0h0l0,0l0,0h0l0,0l0,0l0,0l0,0h0l0,0l0,0.1l0,0l0,0l0,0l0,0l0,0l0,0l0,0l0,0l0,0h0v0h0l0,0l0,0h0v0h0
						l0,0l0,0l0,0l0,0l0,0l0,0h0v0l0,0h0v0l0,0h0h0v0l0,0c0,0,0,0.1-0.1,0.1l0,0c0,0-0.1,0.1-0.1,0.1l0,0c0,0-0.1,0.1-0.1,0.1v0l0,0
						h0h0v0l0,0l0,0l0,0l0,0l0,0l0,0v0h0l0,0h0l0,0l0,0v0c0,0,0,0.1-0.1,0.1l0,0l0,0v0l0,0.1l0,0l0,0l0,0.1l0,0l0,0h0l0,0l0,0l0,0
						l0,0.1l0,0l0,0l0,0.1l0,0l0,0l0,0l0,0.1l0,0l0,0l0,0l0,0l0,0l-0.1,0.1l0,0c-0.2,0.4-0.3,0.8-0.4,1.3v0l0,0l0,0l0,0l0,0l0,0l0,0
						l0,0l0,0l0,0l0,0l0,0c-0.1,0.5-0.2,0.9-0.3,1.4v0l0,0l0,0l0,0.3l0,0l0,0l0,0c-0.1,0.6-0.2,1.2-0.3,1.8v0l0,0v0l0,0v0l0,0l0,0.1
						v0l0,0.1v0l0,0.1l0,0c-0.1,0.9-0.2,1.9-0.2,2.7v0l0,0l0,0v0v0v0l0,0l0,0.1v0l0,0v0l0,0v0l0,0.1v0v0l0,0.2l0,0v0l0,0v0v0v0
						l0,0.1l0,0v0l0,0l0,0v0h0l0,0v0l0,0c0,0.9-0.1,1.8-0.1,2.4c-0.1,2.2-0.3,4.5-0.8,6.7c-0.3,1.2-0.8,2.6-1.6,3.5l7.6,0.6
						C115,199.7,114.2,194.9,114,189.9L114,189.9z"/>
				</defs>
				<clipPath id="SVGID_60_">
					<use xlink:href="#SVGID_59_"  style="overflow:visible;"/>
				</clipPath>
				<g class="ufc19">
					<defs>
						<rect id="SVGID_61_" x="108.8" y="180.9" width="7.6" height="23.3"/>
					</defs>
					<clipPath id="SVGID_62_">
						<use xlink:href="#SVGID_61_"  style="overflow:visible;"/>
					</clipPath>
					<g style="clip-path:url(#SVGID_62_);">
						
							<image style="overflow:visible;" width="12" height="22" xlink:href="CF2BF645.png"  transform="matrix(1.3007 0 0 -1.3007 104.9614 207.8542)">
						</image>
					</g>
				</g>
			</g>
			<g>
				<defs>
					<path id="SVGID_63_" d="M256.8,177.6c-2.5-9.2-4-17.7,0.3-28.1c0.7-1.3,0.6-0.6,0.6,0.3c0.3,9.6,4.2,13.5,6.8,21
						c1.7-4.8,6.6-9.2,10.3-11.9c1.5-1.2,1.2-1.1,0.6,0.4c-7,18.2,12.3,44.2,2.2,44.1l0,0c-2.7,0-3.3-4.7-3.6-10.1
						c-0.2-3.3-0.2-11.7-3.6-14.2c-0.7-0.4-1.4-0.5-2.2-0.6l-1.4-0.1l-9.6-0.8l-0.1,0l-0.1,0L256.8,177.6L256.8,177.6L256.8,177.6z"
						/>
				</defs>
				<clipPath id="SVGID_64_">
					<use xlink:href="#SVGID_63_"  style="overflow:visible;"/>
				</clipPath>
				<g class="ufc20">
					<defs>
						<rect id="SVGID_65_" x="252.8" y="148.2" width="35" height="55.2"/>
					</defs>
					<clipPath id="SVGID_66_">
						<use xlink:href="#SVGID_65_"  style="overflow:visible;"/>
					</clipPath>
					<g style="clip-path:url(#SVGID_66_);">
						
							<image style="overflow:visible;" width="32" height="47" xlink:href="CF2BF646.png"  transform="matrix(1.3007 0 0 -1.3007 249.4055 206.9526)">
						</image>
					</g>
				</g>
			</g>
			<path class="ufc21" d="M193.2,246.6c18.8-0.1,38.5-3.5,53.8-15.1c13.4-10.2,20.9-25.1,21.6-41.9l0.4-8.7c0-0.8,0.1-0.9-0.3-0.9
				l-0.3,0c-0.1,0-0.2,0-0.3,0c-6.1-0.5-12.1-1-18.2-1.6c-1.1-0.1-0.9-0.1-1,0.9c-0.1,3.1-0.3,6.3-0.4,9.4
				c-0.4,10.8-5,20.1-13.7,26.7c-11.8,9-27.8,11-42.2,11c-0.4,0-0.8,0-1.2,0c-14.5,0-30.5-2-42.4-11c-8.6-6.6-13.3-15.9-13.7-26.7
				c-0.1-3.1-0.3-6.3-0.4-9.4c0-1.1,0.1-1-1-0.9c-6.1,0.5-12.1,1-18.2,1.6c-0.1,0-0.2,0-0.3,0l-0.3,0c-0.4,0-0.4,0.2-0.3,0.9
				l0.4,8.7c0.7,16.8,8.2,31.7,21.6,41.9c15.5,11.8,35.3,15,54.2,15.1C191.8,246.6,192.5,246.6,193.2,246.6L193.2,246.6z
				 M124.7,197.2l5.6,0.5c0.3,0,0.6,0.1,0.9,0.1c0.3,0,0.7,0,1,0l0,0l0,0c0,0.2,0,0.3,0,0.5c0,0.1,0,0.2,0,0.3c0,0.1,0,0.2,0.1,0.3
				c0,0.2,0.1,0.3,0.2,0.5l0,0.1l-0.1,0c-0.5-0.1-1-0.2-1.5-0.3c-0.4-0.1-0.9-0.1-1.3-0.2l-5.7-0.7c-0.4-0.1-0.9-0.1-1.3-0.1
				c-0.5,0-1-0.1-1.5-0.1l0,0l0,0c0-0.1,0-0.3,0-0.4c0-0.1,0-0.2,0-0.3c0-0.1,0-0.2-0.1-0.3c0-0.1-0.1-0.3-0.1-0.4l0,0l0,0
				c0.8-0.4,1.6-0.8,2.3-1.2c0,0,0.1-0.1,0.1-0.1l7.5-4.1l0,0.1c0,0.3,0.1,0.5,0.1,0.8c0,0.2,0.1,0.4,0.1,0.5c0,0.1,0,0.2,0.1,0.3
				c0.1,0.3,0.1,0.5,0.2,0.8l0,0l0,0c-0.3,0.1-0.7,0.3-1,0.4c-0.3,0.1-0.5,0.3-0.8,0.4L124.7,197.2L124.7,197.2z M122.9,204.6
				c0.8-0.2,1.5-0.5,2.3-0.7c0.9-0.3,1.9-0.7,2.8-1c0.9-0.3,1.8-0.7,2.6-1.1c0.8-0.3,1.6-0.7,2.3-1l0,0l0,0.1
				c0.1,0.3,0.1,0.5,0.2,0.8c0,0.2,0.1,0.3,0.1,0.5c0,0.1,0.1,0.2,0.2,0.3c0.1,0.2,0.2,0.5,0.4,0.7l0,0l-0.1,0
				c-0.8,0.2-1.5,0.5-2.3,0.8c-0.9,0.3-1.9,0.7-2.8,1l-0.6,0.2c-0.8,0.3-1.6,0.6-2.4,0.9c-0.7,0.3-1.3,0.6-2,0.9l0,0l0-0.1
				c-0.1-0.2-0.1-0.5-0.2-0.7c-0.1-0.2-0.1-0.3-0.2-0.5c0-0.1-0.1-0.2-0.1-0.3C123.1,205.2,123,204.9,122.9,204.6L122.9,204.6
				L122.9,204.6L122.9,204.6z M132.5,212.3c-0.6,0.8-1.1,1.7-1.6,2.6c-0.5,0.9-1,1.7-1.5,2.6l0,0.1l0-0.1c-0.1-0.3-0.3-0.5-0.4-0.8
				c-0.1-0.2-0.2-0.3-0.3-0.5c-0.1-0.2-0.2-0.3-0.3-0.5c-0.1-0.2-0.3-0.4-0.4-0.6l0,0l0,0c0.5-0.6,0.9-1.2,1.3-1.9
				c0.6-0.9,1.1-1.8,1.6-2.7l-1.6,1c-0.5,0.3-0.9,0.5-1.3,0.8c-0.4,0.3-0.8,0.5-1.2,0.8l0,0l0,0c-0.1-0.2-0.2-0.4-0.3-0.6
				c-0.1-0.1-0.1-0.3-0.2-0.4c-0.1-0.1-0.2-0.3-0.2-0.4c-0.1-0.2-0.3-0.4-0.4-0.6l0,0l0,0c0.6-0.3,1.3-0.7,1.9-1
				c0.8-0.4,1.5-0.9,2.3-1.3l0.5-0.3c0.9-0.5,1.7-1,2.6-1.6c0.7-0.4,1.3-0.9,2-1.3l0,0l0,0.1c0,0,0,0.1,0,0.1
				c0.1,0.3,0.3,0.5,0.4,0.8c0.2,0.3,0.5,0.7,0.7,1c0.3,0.4,0.5,0.8,0.7,1.1c0.4,0.7,0.7,1.5,0.6,2.3c-0.2,0.8-0.8,1.3-1.5,1.7
				c-0.6,0.3-1.2,0.6-1.9,0.5C133.4,213.1,132.9,212.8,132.5,212.3L132.5,212.3z M131.8,210.1L131.8,210.1c0.3,0.5,0.7,0.9,1.2,1.1
				c0.5,0.1,1.1-0.1,1.6-0.4c0.4-0.2,0.9-0.6,1-1.1c0.1-0.5-0.1-0.9-0.3-1.3c0,0,0-0.1-0.1-0.1c0-0.1-0.1-0.1-0.1-0.1
				c-0.2,0.1-0.4,0.2-0.6,0.3c-0.3,0.2-0.6,0.3-0.9,0.5L131.8,210.1L131.8,210.1z M141,216.5c-0.2,0.2-0.4,0.4-0.7,0.6
				c-0.3,0.3-0.6,0.6-0.9,0.9l-0.5,0.5c-1,1-2,1.9-2.9,2.9c-0.6,0.6-1.1,1.2-1.7,1.8l0,0l0,0c-0.2-0.2-0.3-0.4-0.5-0.6
				c-0.1-0.1-0.2-0.2-0.3-0.3c-0.1-0.1-0.2-0.2-0.3-0.3c-0.2-0.2-0.4-0.3-0.6-0.5l0,0l0,0c0.6-0.5,1.2-1,1.8-1.5
				c0.7-0.7,1.5-1.4,2.2-2.1c0.4-0.4,0.9-0.9,1.3-1.3c0.5-0.5,1-1,1.6-1.6c-0.3-0.3-0.5-0.5-0.8-0.8c-0.3-0.3-0.6-0.5-0.9-0.7l0,0
				l0.1-0.1c0.2-0.2,0.4-0.3,0.6-0.5c0.1-0.1,0.2-0.2,0.3-0.3c0.1-0.1,0.1-0.1,0.2-0.2l0,0l0,0c0.5,0.5,1,1.1,1.4,1.6
				c0.3,0.3,0.6,0.6,0.9,0.9c0.3,0.3,0.6,0.6,0.9,0.9c0.5,0.5,1.1,1,1.6,1.5l0,0l0,0c-0.1,0.1-0.2,0.2-0.3,0.3
				c-0.1,0.1-0.1,0.1-0.2,0.2c-0.1,0.1-0.2,0.2-0.3,0.3c-0.1,0.1-0.2,0.2-0.3,0.3l0,0l0,0c-0.2-0.3-0.5-0.6-0.7-0.9
				C141.5,217,141.2,216.7,141,216.5L141,216.5z M143.8,226.3l4.3-3.6c0.2-0.2,0.5-0.4,0.7-0.6c0.2-0.2,0.5-0.5,0.7-0.7l0,0l0,0
				c0.1,0.1,0.2,0.2,0.4,0.3c0.1,0.1,0.1,0.1,0.2,0.2c0.1,0.1,0.2,0.1,0.3,0.2c0.1,0.1,0.3,0.2,0.4,0.2l0.1,0l-0.1,0
				c-0.4,0.3-0.8,0.6-1.2,0.8c-0.4,0.3-0.7,0.5-1,0.8l-4.5,3.5c-0.3,0.3-0.7,0.5-1,0.8c-0.4,0.3-0.7,0.7-1.1,1l0,0l0,0
				c-0.1-0.1-0.2-0.2-0.3-0.3c-0.1-0.1-0.2-0.1-0.2-0.2c-0.1-0.1-0.2-0.1-0.2-0.1c-0.1-0.1-0.3-0.1-0.4-0.2l0,0l0,0
				c0.3-0.8,0.6-1.7,0.8-2.5c0-0.1,0-0.1,0-0.2l2.4-8.2l0.1,0c0.2,0.2,0.4,0.3,0.6,0.5c0.1,0.1,0.3,0.2,0.4,0.3
				c0.1,0.1,0.2,0.1,0.3,0.2c0.2,0.1,0.5,0.3,0.7,0.4l0,0l0,0c-0.1,0.3-0.3,0.7-0.4,1c-0.1,0.3-0.2,0.6-0.3,0.8L143.8,226.3
				L143.8,226.3z M156.8,225.8c-0.2,0.3-0.5,0.5-0.7,0.8c-0.2,0.3-0.4,0.6-0.6,0.9l0,0l-0.2-0.1l0,0c0.1-0.5,0.1-1-0.1-1.4
				c-0.2-0.4-0.4-0.6-0.8-0.8c-0.3-0.2-0.7-0.2-1.1-0.1c-0.4,0.1-0.6,0.4-0.7,0.7c-0.3,0.7,0.3,1.6,0.7,2.1c0.1,0.1,0.2,0.3,0.3,0.4
				c0.4,0.6,1,1.5,1.1,2.2c0.1,0.6-0.1,1.2-0.3,1.8c-0.4,0.9-1,1.7-2,2c-1,0.4-2,0.2-2.9-0.2c-0.4-0.2-0.7-0.4-1.1-0.6
				c-0.3-0.2-0.6-0.5-0.8-0.8l0,0l0,0c0.2-0.3,0.4-0.6,0.6-0.9c0.3-0.4,0.5-0.8,0.8-1.3l0,0l0.3,0.1l0,0c-0.1,0.5-0.2,1.1,0,1.6
				c0.2,0.5,0.5,0.8,1,0.9c0.4,0.2,0.8,0.2,1.2,0.1c0.4-0.2,0.7-0.5,0.8-0.8c0.1-0.3,0.2-0.6,0.1-0.9c-0.1-0.4-0.6-1.1-0.9-1.5
				c-0.4-0.6-1-1.5-1.2-2.2c-0.1-0.6,0-1.2,0.3-1.8c0.4-0.8,1-1.6,1.8-1.9c0.9-0.3,1.8-0.2,2.6,0.2c0.4,0.2,0.8,0.4,1.1,0.7
				C156.3,225.1,156.5,225.4,156.8,225.8L156.8,225.8L156.8,225.8L156.8,225.8z M166.1,235.8l2.7-4.9c0.1-0.3,0.3-0.5,0.4-0.8
				c0.1-0.3,0.3-0.6,0.4-0.9l0,0l0,0c0.1,0.1,0.3,0.1,0.4,0.2c0.1,0,0.2,0.1,0.3,0.1c0.1,0,0.2,0,0.3,0c0.2,0,0.3,0,0.5,0l0.1,0
				l0,0.1c-0.3,0.4-0.5,0.8-0.8,1.2c-0.2,0.4-0.5,0.7-0.7,1.1l-2.9,5c-0.2,0.4-0.4,0.8-0.6,1.2c-0.2,0.4-0.4,0.9-0.6,1.3l0,0l0,0
				c-0.1-0.1-0.3-0.1-0.4-0.1c-0.1,0-0.2-0.1-0.3-0.1c-0.1,0-0.2,0-0.3,0c-0.1,0-0.3,0-0.4,0h0l0,0c0-0.9-0.1-1.7-0.2-2.6
				c0-0.1,0-0.1,0-0.2l-0.9-8.5l0.1,0c0.3,0.1,0.5,0.2,0.8,0.2c0.2,0,0.3,0.1,0.5,0.1c0.1,0,0.2,0,0.3,0.1c0.3,0,0.6,0.1,0.8,0.1
				l0,0v0c0,0.4,0,0.7,0,1.1c0,0.3,0,0.6,0.1,0.9L166.1,235.8L166.1,235.8z M179.3,237.5l0.3-2.8c0.1-0.7,0.1-1.4,0.2-2.2
				c0-0.6,0.1-1.2,0.1-1.8l0-0.1l0.1,0c0.1,0,0.3,0.1,0.4,0.1c0.1,0,0.2,0,0.3,0c0.1,0,0.2,0,0.3,0c0.1,0,0.2,0,0.4,0h0.1l0,0.1
				c-0.2,0.8-0.3,1.5-0.4,2.3c-0.2,1.4-0.3,2.9-0.5,4.3l-0.1,0.7c-0.1,0.6-0.1,1.3-0.2,1.9c0,0.5-0.1,0.9-0.1,1.4l0,0.1l-0.1,0
				c-0.2,0-0.3-0.1-0.5-0.1c-0.1,0-0.2,0-0.3,0c-0.1,0-0.2,0-0.3,0c-0.2,0-0.3,0-0.5,0l0,0l0,0c-0.7-1.3-1.3-2.6-2.1-3.8
				c-0.7-1.2-1.4-2.5-2.2-3.7l-0.4,4.2c0,0.4-0.1,0.8-0.1,1.2c0,0.5-0.1,1.1-0.1,1.6l0,0.1l-0.1,0c-0.1,0-0.3-0.1-0.4-0.1
				c-0.1,0-0.2,0-0.3-0.1c-0.1,0-0.1,0-0.2,0c-0.1,0-0.3,0-0.4,0l-0.1,0l0-0.1c0.1-0.8,0.3-1.6,0.4-2.4c0.1-1,0.2-2,0.3-2.9
				c0.1-0.8,0.2-1.6,0.2-2.4c0.1-1,0.2-2,0.2-3l0-0.1l0.1,0c0.2,0,0.3,0.1,0.5,0.1c0.1,0,0.2,0,0.3,0c0.1,0,0.2,0,0.3,0
				c0.2,0,0.3,0,0.5,0l0,0l0,0c0.6,1.3,1.3,2.6,2,3.8C177.8,235.1,178.5,236.3,179.3,237.5L179.3,237.5z M184.6,241.9
				c0.1-0.8,0.2-1.6,0.2-2.4c0.1-1,0.1-2,0.1-3c0-0.9,0.1-1.9,0.1-2.8c0-0.9,0-1.7,0-2.5l0-0.1l0.1,0c0.3,0,0.5,0.1,0.8,0.1
				c0.2,0,0.3,0,0.5,0c0.1,0,0.3,0,0.4,0c0.3,0,0.5,0,0.8-0.1l0.1,0l0,0.1c-0.1,0.8-0.1,1.6-0.2,2.4c-0.1,1-0.1,2-0.1,3l0,0.6
				c0,0.9-0.1,1.7-0.1,2.6c0,0.7,0,1.5,0,2.2l0,0.1l-0.1,0c-0.3,0-0.5-0.1-0.8-0.1c-0.2,0-0.3,0-0.5,0c-0.1,0-0.2,0-0.3,0
				C185.2,241.9,184.9,241.9,184.6,241.9L184.6,241.9L184.6,241.9L184.6,241.9z M195.6,232.6c0,0.3,0,0.6,0,0.9c0,0.4,0,0.9,0,1.3
				v0.6c0,1.4,0,2.8,0,4.1c0,0.8,0.1,1.6,0.1,2.4l0,0.1l-0.1,0c-0.3,0-0.5,0-0.8-0.1c-0.1,0-0.3,0-0.4,0c-0.2,0-0.3,0-0.5,0
				c-0.2,0-0.5,0-0.7,0.1l-0.1,0l0-0.1c0.1-0.8,0.1-1.6,0.1-2.3c0-1,0-2,0-3c0-0.6,0-1.2,0-1.8c0-0.7,0-1.5,0-2.2
				c-0.4,0-0.8,0-1.1,0.1c-0.4,0-0.8,0.1-1.2,0.1l-0.1,0l0-0.1c0-0.3,0-0.5,0-0.8c0-0.1,0-0.3,0-0.4c0-0.1,0-0.2,0-0.3l0-0.1l0,0
				c0.7,0,1.4,0.1,2.2,0.1c0.4,0,0.9,0,1.3,0c0.4,0,0.8,0,1.2,0c0.7,0,1.5-0.1,2.2-0.1l0,0l0,0.1c0,0.1,0,0.3,0,0.4
				c0,0.1,0,0.2,0,0.3c0,0.1,0,0.3,0,0.4c0,0.1,0,0.3,0,0.4l0,0.1l-0.1,0c-0.4-0.1-0.8-0.1-1.2-0.1
				C196.3,232.6,195.9,232.6,195.6,232.6L195.6,232.6z M204.5,238.5c-0.2,0-0.4,0-0.6,0c-0.3,0-0.5,0-0.8,0.1c-0.2,0-0.4,0-0.6,0.1
				c-0.3,0-0.5,0.1-0.8,0.1c-0.2,1-0.4,2-0.5,3l0,0.1h0c-0.1,0-0.3,0-0.4,0c-0.1,0-0.2,0-0.2,0c-0.1,0-0.2,0-0.3,0
				c-0.1,0-0.3,0-0.4,0.1l-0.1,0l0-0.1c0.5-1.9,1-3.8,1.4-5.7c0.4-1.9,0.8-3.7,1.2-5.6l0,0l0.1,0c0.2,0,0.4,0,0.6,0
				c0.2,0,0.3-0.1,0.5-0.1c0,0,0.1,0,0.1,0l0,0l0,0c0.7,1.8,1.4,3.6,2.1,5.4c0.7,1.7,1.4,3.5,2.2,5.2l0,0.1l-0.1,0
				c-0.2,0-0.5,0-0.7,0c-0.2,0-0.4,0-0.5,0c-0.2,0-0.4,0-0.6,0.1c-0.2,0-0.5,0.1-0.7,0.1l0,0l0,0c-0.2-0.5-0.3-0.9-0.5-1.4
				C204.9,239.5,204.7,239,204.5,238.5L204.5,238.5z M202.1,237.3C202.1,237.3,202.2,237.3,202.1,237.3c0.4,0,0.7,0,1-0.1
				c0.3,0,0.6-0.1,1-0.1l0,0c-0.2-0.5-0.4-1-0.6-1.5c-0.2-0.5-0.4-1-0.7-1.5c-0.1,0.6-0.3,1.1-0.4,1.7
				C202.3,236.2,202.2,236.8,202.1,237.3L202.1,237.3z M217.3,229.9c0,0.3,0.1,0.6,0.2,0.9c0.1,0.4,0.2,0.9,0.3,1.3l0.2,0.8
				c0.4-0.1,0.8-0.2,1.2-0.3c0.5-0.1,1-0.3,1.5-0.4l0.1,0l0,0.1c0,0.1,0,0.2,0,0.2c0,0.2,0,0.3,0.1,0.5c0,0.1,0.1,0.3,0.1,0.4
				c0,0.1,0.1,0.2,0.1,0.3l0,0.1l-0.1,0c-0.5,0.1-1,0.1-1.5,0.2c-0.4,0.1-0.8,0.1-1.3,0.2l0.6,2.8c0.1,0.4,0.2,0.8,0.3,1.1
				c0.1,0.3,0.2,0.7,0.3,1l0,0.1l-0.1,0c-0.2,0-0.5,0.1-0.7,0.1c-0.2,0-0.3,0.1-0.5,0.1c-0.2,0-0.3,0.1-0.5,0.1
				c-0.2,0.1-0.4,0.1-0.6,0.2l-0.1,0l0-0.1c-0.1-0.6-0.2-1.2-0.3-1.8c-0.1-0.8-0.3-1.6-0.5-2.4l-0.4-1.7c-0.2-0.9-0.4-1.8-0.6-2.7
				c-0.2-0.6-0.3-1.3-0.5-1.9l0-0.1l0.1,0c0.6-0.1,1.2-0.2,1.8-0.3c0.2,0,0.5-0.1,0.7-0.1c0.4-0.1,0.7-0.2,1.1-0.2
				c0.5-0.1,1.1-0.3,1.6-0.4l0,0l0,0.1c0,0.1,0,0.3,0.1,0.4c0,0.1,0,0.2,0.1,0.3c0,0.1,0,0.2,0.1,0.3c0,0.1,0.1,0.3,0.1,0.4l0,0.1
				l-0.1,0c-0.3,0-0.7,0.1-1,0.1c-0.3,0.1-0.7,0.1-1,0.2c-0.2,0-0.3,0.1-0.5,0.1C217.5,229.8,217.4,229.9,217.3,229.9L217.3,229.9z
				 M223.6,232.6c-0.5-1.4-0.8-3-0.3-4.5c0.5-1.4,1.6-2.3,3-2.8c1.3-0.5,2.6-0.6,3.9,0c1.3,0.7,2.1,1.9,2.6,3.3
				c0.5,1.4,0.8,3,0.3,4.5c-0.5,1.4-1.6,2.3-3,2.8c-1.3,0.5-2.6,0.6-3.9,0C224.9,235.2,224.1,233.9,223.6,232.6L223.6,232.6z
				 M225.8,231.6c0.4,1,1,2.1,1.8,2.8c0.7,0.5,1.4,0.7,2.2,0.4c0.8-0.3,1.2-1,1.3-1.8c0.2-1.1-0.1-2.3-0.5-3.3c-0.4-1-1-2.2-1.8-2.9
				c-0.7-0.5-1.4-0.7-2.2-0.4c-0.8,0.3-1.2,1-1.3,1.8C225.1,229.3,225.4,230.5,225.8,231.6L225.8,231.6z M239.3,224.8
				c0.9,0.5,1.7,1.1,2.6,1.6c0.9,0.5,1.7,1,2.6,1.4l0.1,0l-0.1,0c-0.3,0.1-0.5,0.3-0.8,0.4c-0.1,0.1-0.3,0.2-0.4,0.3
				c-0.2,0.1-0.3,0.2-0.5,0.3c-0.2,0.1-0.4,0.3-0.6,0.4l0,0l0,0c-0.6-0.5-1.2-0.9-1.9-1.3c-0.9-0.6-1.8-1.1-2.7-1.6l1,1.6
				c0.3,0.4,0.6,0.9,0.9,1.3c0.3,0.4,0.5,0.8,0.8,1.2l0,0l0,0c-0.2,0.1-0.4,0.2-0.6,0.3c-0.1,0.1-0.3,0.1-0.4,0.2
				c-0.1,0.1-0.3,0.2-0.4,0.3c-0.2,0.1-0.4,0.3-0.6,0.4l0,0l0,0c-0.3-0.6-0.7-1.3-1-1.9c-0.4-0.8-0.9-1.5-1.4-2.3l-0.3-0.5
				c-0.5-0.9-1.1-1.7-1.6-2.5c-0.4-0.7-0.9-1.3-1.4-1.9l0,0l0.1,0c0,0,0.1,0,0.1-0.1c0.3-0.1,0.5-0.3,0.8-0.4c0.3-0.2,0.7-0.5,1-0.7
				c0.4-0.3,0.7-0.5,1.1-0.8c0.7-0.4,1.5-0.8,2.3-0.6c0.8,0.2,1.3,0.8,1.7,1.5c0.4,0.6,0.6,1.2,0.5,1.9
				C240,224,239.8,224.5,239.3,224.8L239.3,224.8z M237.1,225.6L237.1,225.6c0.5-0.3,0.9-0.7,1-1.2c0.1-0.5-0.1-1.1-0.4-1.6
				c-0.2-0.4-0.6-0.8-1.1-1c-0.5-0.1-0.9,0.1-1.3,0.3c0,0-0.1,0-0.1,0.1c0,0-0.1,0.1-0.1,0.1c0.1,0.2,0.2,0.4,0.4,0.6
				c0.2,0.3,0.3,0.6,0.5,0.9L237.1,225.6L237.1,225.6z M243.4,216c0.2,0.2,0.4,0.5,0.6,0.7c0.3,0.3,0.6,0.6,0.9,0.9l0.4,0.5
				c1,1,1.9,2,2.9,2.9c0.6,0.6,1.2,1.1,1.8,1.7l0,0l0,0c-0.2,0.2-0.4,0.3-0.6,0.5c-0.1,0.1-0.2,0.2-0.3,0.3
				c-0.1,0.1-0.2,0.2-0.3,0.3c-0.2,0.2-0.3,0.4-0.5,0.6l0,0l0,0c-0.5-0.6-1-1.2-1.5-1.8c-0.7-0.7-1.4-1.5-2.1-2.2
				c-0.4-0.4-0.9-0.9-1.3-1.3c-0.5-0.5-1-1-1.6-1.6c-0.3,0.3-0.5,0.5-0.8,0.8c-0.3,0.3-0.5,0.6-0.7,0.9l0,0l-0.1-0.1
				c-0.2-0.2-0.3-0.4-0.5-0.6c-0.1-0.1-0.2-0.2-0.3-0.3c-0.1-0.1-0.1-0.1-0.2-0.2l0,0l0,0c0.5-0.5,1.1-1,1.6-1.4
				c0.3-0.3,0.6-0.6,0.9-0.9c0.3-0.3,0.6-0.6,0.9-0.9c0.5-0.5,1-1.1,1.5-1.6l0,0l0,0c0.1,0.1,0.2,0.2,0.3,0.3
				c0.1,0.1,0.1,0.1,0.2,0.2c0.1,0.1,0.2,0.2,0.3,0.3c0.1,0.1,0.2,0.2,0.3,0.3l0,0l0,0c-0.3,0.2-0.6,0.5-0.9,0.7
				C244,215.5,243.7,215.8,243.4,216L243.4,216z M245.2,211.7c0.2-0.2,0.4-0.4,0.5-0.6c0.1-0.1,0.2-0.2,0.3-0.4
				c0.1-0.1,0.1-0.2,0.2-0.3c0.1-0.2,0.3-0.5,0.4-0.7l0,0l0,0c0.6,0.5,1.2,1,1.9,1.5c0.8,0.6,1.6,1.2,2.4,1.8l0.5,0.4
				c0.7,0.5,1.4,1,2.1,1.5c0.6,0.4,1.2,0.8,1.8,1.2l0,0l0,0c-0.2,0.2-0.3,0.4-0.5,0.6c-0.1,0.1-0.2,0.3-0.3,0.4
				c-0.1,0.1-0.1,0.2-0.2,0.3c-0.1,0.2-0.3,0.5-0.4,0.7l0,0l0,0c-0.6-0.5-1.2-1-1.9-1.5c-0.8-0.6-1.6-1.2-2.4-1.8
				c-0.8-0.6-1.5-1.1-2.3-1.6C246.6,212.7,245.9,212.2,245.2,211.7L245.2,211.7L245.2,211.7L245.2,211.7z M252.9,210.6
				c-1.4-0.6-2.7-1.5-3.4-2.9c-0.6-1.3-0.5-2.7,0.1-4.1c0.5-1.3,1.4-2.3,2.7-2.8c1.4-0.5,2.8-0.2,4.2,0.4c1.4,0.6,2.8,1.5,3.5,2.9
				c0.7,1.3,0.5,2.7-0.1,4.1c-0.5,1.3-1.4,2.3-2.7,2.8C255.7,211.5,254.2,211.2,252.9,210.6L252.9,210.6z M253.7,208.3
				c1,0.4,2.2,0.8,3.3,0.7c0.8-0.1,1.5-0.5,1.8-1.3c0.3-0.8,0.1-1.5-0.4-2.2c-0.7-0.9-1.8-1.5-2.8-1.9c-1-0.4-2.2-0.8-3.3-0.7
				c-0.8,0.1-1.5,0.5-1.8,1.3c-0.3,0.8-0.1,1.5,0.4,2.2C251.6,207.3,252.7,207.9,253.7,208.3L253.7,208.3z M258,194.1
				c1-0.3,2-0.5,2.9-0.8c1-0.3,1.9-0.6,2.8-0.9l0.1,0l0,0.1c-0.1,0.3-0.2,0.6-0.2,0.9c0,0.2-0.1,0.3-0.1,0.5c0,0.2-0.1,0.4-0.1,0.5
				c0,0.2-0.1,0.5-0.1,0.7l0,0l0,0c-0.8,0.1-1.5,0.3-2.2,0.5c-1,0.3-2,0.6-3,0.9l1.9,0.4c0.5,0.1,1,0.2,1.6,0.3
				c0.5,0.1,0.9,0.1,1.4,0.2l0.1,0l0,0c-0.1,0.2-0.1,0.4-0.2,0.7c0,0.1-0.1,0.3-0.1,0.4c0,0.1-0.1,0.3-0.1,0.4
				c0,0.2-0.1,0.5-0.1,0.7l0,0.1l-0.1,0c-0.7-0.2-1.4-0.4-2.1-0.5c-0.9-0.2-1.7-0.4-2.6-0.5l-0.5-0.1c-1-0.2-2-0.4-3-0.5
				c-0.8-0.1-1.6-0.2-2.3-0.3l-0.1,0l0-0.1c0,0,0-0.1,0-0.1c0.1-0.3,0.2-0.6,0.2-0.8c0.1-0.4,0.1-0.8,0.2-1.2
				c0.1-0.4,0.1-0.9,0.2-1.3c0.1-0.8,0.4-1.6,1.1-2.1c0.6-0.5,1.5-0.4,2.2-0.3c0.7,0.1,1.3,0.4,1.7,0.9
				C257.9,192.9,258,193.5,258,194.1L258,194.1z M257,196.2L257,196.2c0.1-0.5,0.1-1.1-0.2-1.6c-0.3-0.5-0.9-0.7-1.4-0.8
				c-0.5-0.1-1-0.1-1.4,0.1c-0.4,0.2-0.6,0.7-0.7,1.2c0,0,0,0.1,0,0.1c0,0.1,0,0.1,0,0.2c0.2,0.1,0.5,0.1,0.7,0.2
				c0.3,0.1,0.7,0.1,1,0.2L257,196.2L257,196.2z"/>
			<path class="ufc22" d="M166.6,133c-0.4,3.5-2.2,6.6-5.4,8.4c-0.2,0.1-0.2,0.1-0.1-0.1l2.3-4.2c0-0.1-0.1-0.1-0.2,0
				c-1.6,1.1-4.8,3.4-6.1,3.4c-0.2,0-0.2,0-0.1-0.1c0.4-0.5,3.2-2.7,4.1-4c0-0.2-0.1-0.2-0.3-0.2c-1.7,0.7-5.5,2.3-7.4,2.2
				c-0.2,0-0.2,0,0-0.1c1-0.8,4.4-2.4,5.8-3.4c0.1-0.1,0-0.1-0.1-0.2l0,0c-2.4,0.4-6.7,1.2-8.5,0.8c-0.3-0.1-0.3,0,0-0.1
				c1.5-0.6,5.5-1.6,7.5-2.2c0.1-0.1,0.1-0.1-0.1-0.2c-2.4,0-7,0.1-9.2-0.6c-0.3-0.1-0.3-0.1,0-0.1c1.2-0.2,4.4-0.4,6.9-0.7
				c0.6-0.1,1.2-0.2,1.8-0.2c0.1-0.1,0.2-0.2-0.1-0.3c-2.7-0.5-7.6-1.4-9.9-2.5c-0.2-0.1-0.2-0.1,0-0.1c2.2,0.1,7.1,0.7,9.8,0.8
				c0.1-0.1,0.2-0.1,0-0.2c-2.7-0.9-7.8-2.5-10.1-3.9c-0.2-0.1-0.3-0.1,0-0.1c2.4,0.4,7.5,1.8,10.3,2.5c0.2,0,0.2-0.1,0-0.2
				c-2.7-1.4-7.7-3.8-9.9-5.4c-0.1-0.1-0.2-0.1-0.2-0.1c0,0,0.1,0,0.2,0.1c2.5,0.7,7.6,2.9,10.3,4.1c0.1,0,0.1-0.1,0.1-0.1
				c-2.6-1.9-7.4-5.1-9.4-7c-0.2-0.2-0.2-0.2,0.1-0.1c2.4,1,7.3,3.9,10,5.7c0.1,0.1,0.2,0,0.1-0.1c-2.4-2.3-6.8-6.1-8.5-8.3
				c-0.2-0.2-0.2-0.2,0.1-0.1c2.4,1.4,6.9,5.2,9.5,7.3c0.1,0,0.1,0,0.1-0.1c-2.3-2.8-6.1-7.5-7.2-9.6c-0.2-0.3-0.2-0.3,0.1-0.1
				c1.9,1.5,6,5.9,8.4,8.6c0.1,0,0.1,0,0.1-0.1c-1.6-2.8-4.7-7.8-5.7-10.4c-0.1-0.3-0.1-0.3,0.1-0.1c1.9,2,5,7,6.9,9.7
				c0.1,0,0.1,0,0.1-0.1c-1.3-2.9-3.5-8.3-4.1-10.8c-0.1-0.4,0-0.2,0.1,0c1.5,2.2,4,7.4,5.4,10.3c0.1,0,0.1,0,0.1,0
				c-0.8-2.9-2.3-8.3-2.5-10.8c0-0.3,0-0.3,0.1,0c1.2,2.4,2.9,7.7,3.8,10.6c0.1,0.1,0.1,0.1,0.2,0c-0.3-2.9-0.9-8.1-0.9-10.5
				c0-0.3,0-0.2,0.1,0c1,2.4,1.8,7.7,2.3,10.5c0.1,0.1,0.1,0.1,0.2,0c0.3-2.7,0.5-7.6,0.7-9.8c0-0.3,0-0.2,0.1,0
				c0.7,2.5,0.8,7.5,1,10.1c0.1,0.1,0.1,0.1,0.2,0.1c0.9-2.6,1.8-7,2.3-8.5c0.1-0.3,0.1-0.2,0.1,0c0.3,2.3-0.5,6.9-0.8,9.2
				c0,0.1,0.1,0.2,0.2,0.1c0.9-1.8,2.6-5.7,3.4-7.1c0.2-0.3,0.1-0.1,0.1,0.1c0.1,1.8-1.3,5.9-2.1,8.2c0,0.1,0,0.2,0.1,0.2
				c1.1-1.3,3.3-4.4,4.2-5.2c0.2-0.2,0.2-0.2,0.1,0.1c-0.2,1.9-2.3,5.4-3.3,7c-0.1,0.2,0,0.3,0.1,0.3c1.4-0.7,4.1-3,4.6-3.4
				c0.2-0.1,0.2-0.1,0.1,0.1c-0.1,1.3-2.9,4.1-4.3,5.5c-0.1,0.1-0.1,0.2,0,0.3l4.6-1.7c0.2,0,0.2-0.1,0.1,0.1
				c-2.1,3.1-5.6,4.2-9.1,4.1c0,0,0,0-0.1,0c1.3-0.5,2.7-0.8,3.7-1.7c0.2-0.2,0-0.5-0.2-0.3c-1,0.9-2.5,1.2-3.7,1.7
				c1.3-1,2.6-2.1,3.5-3.5c0.1-0.3-0.2-0.4-0.3-0.2c-0.9,1.5-2.3,2.6-3.7,3.7c1.3-1.5,2.4-3.2,3-5.2c0.1-0.3-0.3-0.4-0.3-0.1
				c-0.6,1.9-1.7,3.6-3,5.1c1-1.9,1.7-4,2.1-6.1c0.1-0.3-0.3-0.4-0.4-0.1c-0.4,2.1-1.1,4.2-2.1,6.1c0.7-2.2,1-4.5,0.9-6.8
				c0-0.3-0.4-0.3-0.4,0c0,2.2-0.2,4.4-0.9,6.5c0.2-2.3,0.1-4.6-0.4-6.8c-0.1-0.3-0.4-0.2-0.4,0.1c0.4,2.2,0.6,4.4,0.4,6.6
				c-0.2-2.3-0.7-4.5-1.4-6.7c-0.1-0.3-0.4-0.2-0.3,0.1c0.7,2.2,1.2,4.3,1.4,6.6c-0.6-2.2-1.3-4.4-2.3-6.5c-0.1-0.3-0.5-0.1-0.3,0.2
				c1,2.2,1.8,4.2,2.3,6.5c-1-2.1-2-4.2-3.3-6.1c-0.2-0.2-0.5,0-0.3,0.2c1.3,2,2.3,4,3.3,6.1c-1.3-1.9-2.7-3.8-4.2-5.6
				c-0.2-0.2-0.5,0-0.3,0.2c1.5,1.9,2.8,3.7,4.2,5.7c-1.7-1.6-3.3-3.2-5-5c-0.2-0.2-0.5,0-0.3,0.3c1.6,1.7,3.2,3.4,4.9,5
				c-1.9-1.3-3.8-2.6-5.5-4.2c-0.2-0.2-0.5,0.1-0.2,0.3c1.8,1.6,3.6,2.9,5.6,4.2c-2.1-0.9-4.1-2-6.1-3.3c-0.2-0.2-0.4,0.1-0.2,0.3
				c2,1.3,3.9,2.4,6.1,3.3c-2.2-0.5-4.3-1.3-6.3-2.4c-0.3-0.1-0.4,0.2-0.2,0.3c2,1.1,4.1,1.9,6.4,2.4c-2.2-0.1-4.4-0.6-6.4-1.4
				c-0.3-0.1-0.4,0.2-0.1,0.3c2.1,0.8,4.4,1.3,6.7,1.4c-2.2,0.3-4.4,0.3-6.6-0.1c-0.3-0.1-0.4,0.3-0.1,0.4c2.3,0.4,4.6,0.5,6.8,0.1
				c-2,0.7-4.2,1.1-6.3,1.1c-0.3,0-0.3,0.4,0,0.4c2.1,0,4.3-0.4,6.4-1.1c-1.7,1-3.5,1.8-5.5,2.2c-0.3,0.1-0.2,0.4,0.1,0.4
				c2-0.4,3.8-1.2,5.6-2.2c-1.2,1.2-2.6,2.4-4.2,3.1c-0.3,0.1-0.1,0.5,0.1,0.3c1.5-0.6,2.8-1.8,4-2.9c-0.7,1.1-1.2,2.5-2.2,3.4
				c-0.2,0.2,0,0.5,0.2,0.3C165.4,135.4,165.9,134.1,166.6,133C166.6,132.9,166.6,132.9,166.6,133L166.6,133z M167.8,131.3l6.7,8.3
				c0.2,0.2,0.2,0.3,0.2,0.1c0.2-0.3,0.5-0.6,0.8-0.7c0.2-0.1,0.2,0,0-0.2l-7.2-7.9C168,130.5,167.5,130.9,167.8,131.3L167.8,131.3z
				"/>
			<path class="ufc22" d="M193.1,163.8c-0.4,3.5-2.2,6.6-5.4,8.4c-0.2,0.1-0.2,0.1-0.1-0.1l2.3-4.2c0-0.1-0.1-0.1-0.2,0
				c-1.6,1.1-4.8,3.4-6.1,3.4c-0.2,0-0.2,0-0.1-0.1c0.4-0.5,3.2-2.7,4.1-4c0-0.2-0.1-0.2-0.3-0.2c-1.7,0.7-5.5,2.3-7.4,2.2
				c-0.2,0-0.2,0,0-0.1c1-0.8,4.4-2.4,5.8-3.4c0.1-0.1,0-0.1-0.1-0.2l0,0c-2.4,0.4-6.7,1.2-8.5,0.8c-0.3-0.1-0.3,0,0-0.1
				c1.5-0.6,5.5-1.6,7.5-2.2c0.1-0.1,0.1-0.1-0.1-0.2c-2.4,0-7,0.1-9.2-0.6c-0.3-0.1-0.3-0.1,0-0.1c1.2-0.2,4.4-0.4,6.9-0.7
				c0.6-0.1,1.2-0.2,1.8-0.2c0.1-0.1,0.2-0.2,0-0.3c-2.7-0.5-7.6-1.4-9.9-2.5c-0.2-0.1-0.2-0.1,0-0.1c2.2,0.1,7.1,0.7,9.8,0.8
				c0.1-0.1,0.2-0.1,0-0.2c-2.7-0.9-7.8-2.5-10.1-3.9c-0.2-0.1-0.3-0.1,0-0.1c2.4,0.4,7.5,1.8,10.3,2.5c0.2,0,0.2-0.1,0-0.2
				c-2.7-1.4-7.7-3.8-9.9-5.4c-0.1-0.1-0.2-0.1-0.2-0.1c0,0,0.1,0,0.2,0.1c2.5,0.7,7.6,2.9,10.3,4.1c0.1,0,0.1-0.1,0.1-0.1
				c-2.6-1.9-7.4-5.1-9.4-7c-0.2-0.2-0.2-0.2,0.1-0.1c2.4,1,7.3,3.9,10,5.7c0.1,0.1,0.2,0,0.1-0.1c-2.4-2.3-6.8-6.1-8.5-8.3
				c-0.2-0.2-0.2-0.2,0.1-0.1c2.4,1.4,6.9,5.2,9.5,7.3c0.1,0,0.1,0,0.1-0.1c-2.3-2.8-6.1-7.5-7.2-9.6c-0.2-0.3-0.2-0.3,0.1-0.1
				c1.9,1.5,6,5.9,8.4,8.6c0.1,0,0.1,0,0.1-0.1c-1.6-2.8-4.7-7.8-5.7-10.4c-0.1-0.3-0.1-0.3,0.1-0.1c1.9,2,5,7,6.9,9.7
				c0.1,0,0.1,0,0.1-0.1c-1.3-2.9-3.5-8.3-4.1-10.8c-0.1-0.4,0-0.2,0.1,0c1.5,2.2,4,7.4,5.4,10.3c0.1,0,0.1,0,0.1,0
				c-0.8-2.9-2.3-8.3-2.5-10.8c0-0.3,0-0.3,0.1,0c1.2,2.4,2.8,7.7,3.8,10.6c0.1,0.1,0.1,0.1,0.2,0c-0.3-2.9-0.9-8.1-0.9-10.5
				c0-0.3,0-0.2,0.1,0c1,2.4,1.8,7.7,2.3,10.5c0.1,0.1,0.1,0.1,0.2,0c0.3-2.7,0.5-7.7,0.7-9.8c0-0.3,0-0.2,0.1,0
				c0.7,2.5,0.8,7.5,1,10.1c0.1,0.1,0.1,0.1,0.2,0.1c0.9-2.6,1.8-7,2.3-8.5c0.1-0.3,0.1-0.2,0.1,0c0.3,2.3-0.5,6.9-0.8,9.2
				c0,0.1,0.1,0.2,0.2,0.1c0.9-1.8,2.6-5.7,3.4-7.1c0.2-0.3,0.1-0.1,0.1,0.1c0.1,1.8-1.3,5.9-2.1,8.2c0,0.1,0,0.2,0.1,0.2
				c1.1-1.3,3.3-4.4,4.2-5.2c0.2-0.2,0.2-0.2,0.1,0.1c-0.2,1.9-2.3,5.3-3.3,7c-0.1,0.2,0,0.3,0.1,0.3c1.4-0.7,4-3,4.6-3.4
				c0.2-0.1,0.2-0.1,0.1,0.1c-0.1,1.2-2.9,4.1-4.3,5.5c-0.1,0.1-0.1,0.2,0,0.3l4.6-1.7c0.2,0,0.2-0.1,0.1,0.1
				c-2.1,3.1-5.6,4.2-9.1,4.1c0,0,0,0-0.1,0c1.3-0.5,2.7-0.8,3.7-1.7c0.2-0.2,0-0.5-0.2-0.3c-1,0.9-2.5,1.2-3.7,1.7
				c1.3-1,2.6-2.1,3.5-3.6c0.1-0.3-0.2-0.4-0.3-0.2c-0.9,1.5-2.3,2.6-3.7,3.7c1.3-1.5,2.4-3.2,3-5.2c0.1-0.3-0.3-0.4-0.3-0.1
				c-0.6,1.9-1.7,3.6-3,5.1c1-1.9,1.7-4,2.1-6.1c0.1-0.3-0.3-0.4-0.4-0.1c-0.4,2.1-1.1,4.2-2.1,6.1c0.7-2.2,1-4.5,0.9-6.8
				c0-0.3-0.4-0.3-0.4,0c0,2.2-0.2,4.4-0.9,6.5c0.2-2.3,0.1-4.6-0.4-6.8c-0.1-0.3-0.4-0.2-0.4,0.1c0.4,2.2,0.6,4.4,0.4,6.6
				c-0.2-2.3-0.7-4.5-1.4-6.7c-0.1-0.3-0.4-0.2-0.3,0.1c0.7,2.2,1.2,4.3,1.4,6.6c-0.6-2.2-1.3-4.4-2.3-6.5c-0.1-0.3-0.5-0.1-0.3,0.2
				c1,2.1,1.8,4.2,2.3,6.5c-1-2.1-2-4.2-3.3-6.1c-0.2-0.2-0.5,0-0.3,0.2c1.3,2,2.3,4,3.3,6.1c-1.3-1.9-2.7-3.8-4.2-5.6
				c-0.2-0.2-0.5,0-0.3,0.2c1.5,1.9,2.8,3.7,4.2,5.7c-1.7-1.6-3.3-3.2-5-5c-0.2-0.2-0.5,0-0.3,0.3c1.6,1.7,3.2,3.4,4.9,5
				c-1.9-1.3-3.8-2.6-5.5-4.2c-0.2-0.2-0.5,0.1-0.2,0.3c1.8,1.6,3.6,2.9,5.6,4.2c-2.1-0.9-4.1-2-6.1-3.3c-0.2-0.2-0.4,0.1-0.2,0.3
				c2,1.3,3.9,2.4,6.1,3.3c-2.2-0.5-4.3-1.3-6.3-2.4c-0.3-0.1-0.4,0.2-0.2,0.3c2,1.1,4.1,1.9,6.4,2.4c-2.2-0.1-4.4-0.6-6.4-1.4
				c-0.3-0.1-0.4,0.2-0.1,0.3c2.1,0.8,4.4,1.3,6.7,1.4c-2.2,0.3-4.4,0.3-6.6-0.1c-0.3-0.1-0.4,0.3-0.1,0.4c2.3,0.4,4.5,0.5,6.8,0.1
				c-2,0.7-4.2,1.1-6.3,1.1c-0.3,0-0.3,0.4,0,0.4c2.1,0,4.3-0.4,6.4-1.1c-1.7,1-3.5,1.8-5.5,2.2c-0.3,0.1-0.2,0.4,0.1,0.4
				c2-0.4,3.8-1.2,5.6-2.2c-1.2,1.2-2.6,2.4-4.2,3.1c-0.3,0.1-0.1,0.5,0.1,0.3c1.5-0.6,2.8-1.8,4-2.9c-0.7,1.1-1.2,2.5-2.2,3.4
				c-0.2,0.2,0,0.5,0.2,0.3C191.9,166.3,192.4,165,193.1,163.8C193.1,163.8,193.1,163.8,193.1,163.8L193.1,163.8z M194.3,162.2
				l6.7,8.3c0.2,0.2,0.2,0.3,0.2,0.1c0.2-0.3,0.5-0.6,0.8-0.7c0.2-0.1,0.2,0,0-0.2l-7.2-7.9C194.5,161.4,194,161.8,194.3,162.2
				L194.3,162.2z"/>
			<path class="ufc22" d="M219.6,194.7c-0.4,3.5-2.2,6.6-5.4,8.4c-0.2,0.1-0.2,0.1-0.1-0.1l2.3-4.2c0-0.1-0.1-0.1-0.2,0
				c-1.6,1.1-4.8,3.4-6.1,3.4c-0.2,0-0.2,0-0.1-0.1c0.4-0.5,3.2-2.7,4.1-4c0-0.2-0.1-0.2-0.3-0.2c-1.7,0.7-5.5,2.3-7.4,2.2
				c-0.2,0-0.2,0,0-0.1c1-0.8,4.4-2.4,5.8-3.4c0.1-0.1,0-0.2-0.1-0.2l0,0c-2.4,0.4-6.7,1.2-8.5,0.8c-0.3-0.1-0.3,0,0-0.1
				c1.5-0.6,5.5-1.6,7.5-2.2c0.1-0.1,0.1-0.1-0.1-0.2c-2.4,0-7,0.1-9.2-0.6c-0.3-0.1-0.3-0.1,0-0.1c1.2-0.2,4.4-0.4,6.9-0.7
				c0.6-0.1,1.2-0.2,1.8-0.2c0.1-0.1,0.2-0.2-0.1-0.3c-2.7-0.6-7.6-1.4-9.9-2.5c-0.2-0.1-0.2-0.1,0-0.1c2.2,0.1,7.1,0.7,9.8,0.8
				c0.1-0.1,0.2-0.1,0-0.2c-2.7-0.9-7.8-2.5-10.1-3.9c-0.2-0.1-0.3-0.1,0-0.1c2.4,0.4,7.5,1.8,10.3,2.5c0.2,0,0.2-0.1,0-0.2
				c-2.7-1.4-7.7-3.8-9.9-5.4c-0.1-0.1-0.2-0.1-0.2-0.1c0,0,0.1,0,0.2,0.1c2.5,0.7,7.6,2.9,10.3,4.1c0.1,0,0.1-0.1,0.1-0.1
				c-2.6-1.9-7.4-5.1-9.4-7c-0.2-0.2-0.2-0.2,0.1-0.1c2.4,1,7.3,3.9,10,5.7c0.1,0.1,0.2,0,0.1-0.1c-2.4-2.3-6.8-6.1-8.5-8.3
				c-0.2-0.2-0.2-0.2,0.1-0.1c2.4,1.4,6.9,5.2,9.5,7.3c0.1,0,0.1,0,0.1-0.1c-2.3-2.8-6.1-7.5-7.2-9.6c-0.2-0.3-0.2-0.3,0.1-0.1
				c1.9,1.5,6,5.9,8.4,8.6c0.1,0,0.1,0,0.1-0.1c-1.6-2.8-4.7-7.8-5.7-10.4c-0.1-0.3-0.1-0.3,0.1-0.1c1.9,2,5,7,6.9,9.7
				c0.1,0,0.1,0,0.1-0.1c-1.3-2.9-3.5-8.3-4.1-10.8c-0.1-0.4,0-0.2,0.1,0c1.5,2.2,4,7.4,5.4,10.3c0.1,0,0.1,0,0.1,0
				c-0.8-2.9-2.3-8.3-2.5-10.8c0-0.3,0-0.3,0.1,0c1.2,2.4,2.8,7.7,3.8,10.6c0.1,0.1,0.1,0.1,0.2,0c-0.3-2.9-0.9-8.1-0.9-10.5
				c0-0.3,0-0.2,0.1,0c1,2.4,1.8,7.7,2.3,10.5c0.1,0.1,0.1,0.1,0.2,0c0.3-2.7,0.5-7.7,0.7-9.8c0-0.3,0-0.2,0.1,0
				c0.7,2.5,0.8,7.5,1,10.1c0.1,0.1,0.1,0.2,0.2,0.1c0.9-2.6,1.8-7,2.3-8.5c0.1-0.3,0.1-0.2,0.1,0c0.3,2.3-0.5,6.9-0.8,9.2
				c0,0.1,0.1,0.2,0.2,0.1c0.9-1.8,2.6-5.7,3.4-7.1c0.2-0.3,0.1-0.1,0.1,0.1c0.1,1.8-1.3,5.9-2.1,8.2c0,0.1,0,0.2,0.1,0.2
				c1.1-1.3,3.3-4.4,4.2-5.2c0.2-0.2,0.2-0.2,0.1,0.1c-0.2,1.9-2.3,5.4-3.3,7c-0.1,0.2,0,0.3,0.1,0.3c1.4-0.7,4-3,4.6-3.4
				c0.2-0.1,0.2-0.1,0.1,0.1c-0.1,1.2-2.9,4.1-4.3,5.5c-0.1,0.1-0.1,0.2,0,0.3l4.6-1.7c0.2,0,0.2-0.1,0.1,0.1
				c-2.1,3.1-5.6,4.2-9.1,4.1c0,0,0,0-0.1,0c1.3-0.5,2.7-0.8,3.7-1.7c0.2-0.2,0-0.5-0.2-0.3c-1,0.9-2.5,1.2-3.7,1.7
				c1.3-1,2.6-2.1,3.5-3.5c0.1-0.3-0.2-0.4-0.3-0.2c-0.9,1.5-2.3,2.6-3.7,3.7c1.3-1.5,2.4-3.2,3-5.2c0.1-0.3-0.3-0.4-0.3-0.1
				c-0.6,1.9-1.7,3.6-3,5.1c1-1.9,1.7-4,2.1-6.1c0.1-0.3-0.3-0.3-0.4-0.1c-0.4,2.1-1.1,4.2-2.1,6.1c0.7-2.2,1-4.5,0.9-6.8
				c0-0.3-0.4-0.3-0.4,0c0,2.2-0.2,4.4-0.9,6.5c0.2-2.3,0.1-4.6-0.4-6.8c-0.1-0.3-0.4-0.2-0.4,0.1c0.4,2.2,0.6,4.4,0.4,6.6
				c-0.2-2.3-0.7-4.5-1.4-6.7c-0.1-0.3-0.4-0.2-0.3,0.1c0.7,2.2,1.2,4.3,1.4,6.6c-0.6-2.2-1.3-4.4-2.3-6.5c-0.1-0.3-0.5-0.1-0.3,0.2
				c1,2.1,1.8,4.2,2.3,6.5c-1-2.1-2-4.2-3.3-6.1c-0.2-0.2-0.5,0-0.3,0.2c1.3,2,2.3,4,3.3,6.1c-1.3-1.9-2.7-3.8-4.2-5.6
				c-0.2-0.2-0.5,0-0.3,0.2c1.5,1.9,2.8,3.7,4.2,5.7c-1.7-1.6-3.3-3.2-5-5c-0.2-0.2-0.5,0-0.3,0.3c1.6,1.7,3.2,3.4,4.9,5
				c-1.9-1.3-3.8-2.6-5.5-4.2c-0.2-0.2-0.5,0.1-0.2,0.3c1.8,1.6,3.6,2.9,5.6,4.2c-2.1-0.9-4.1-2-6.1-3.3c-0.2-0.2-0.4,0.1-0.2,0.3
				c2,1.3,3.9,2.4,6.1,3.3c-2.2-0.5-4.3-1.3-6.3-2.4c-0.3-0.1-0.4,0.2-0.2,0.3c2,1.1,4.1,1.9,6.4,2.4c-2.2-0.1-4.4-0.6-6.4-1.4
				c-0.3-0.1-0.4,0.2-0.1,0.3c2.1,0.8,4.4,1.3,6.7,1.4c-2.2,0.3-4.4,0.3-6.6-0.1c-0.3-0.1-0.4,0.3-0.1,0.4c2.3,0.4,4.5,0.5,6.8,0.1
				c-2,0.7-4.2,1.1-6.3,1.1c-0.3,0-0.3,0.4,0,0.4c2.1,0,4.3-0.4,6.4-1.1c-1.7,1-3.5,1.8-5.5,2.2c-0.3,0.1-0.2,0.4,0.1,0.4
				c2-0.4,3.8-1.2,5.6-2.2c-1.2,1.2-2.6,2.4-4.2,3.1c-0.3,0.1-0.1,0.5,0.1,0.3c1.5-0.6,2.8-1.8,4-2.9c-0.7,1.1-1.2,2.5-2.2,3.4
				c-0.2,0.2,0,0.5,0.2,0.3C218.3,197.2,218.9,195.9,219.6,194.7C219.6,194.7,219.6,194.7,219.6,194.7L219.6,194.7z M220.7,193.1
				l6.7,8.3c0.2,0.2,0.2,0.3,0.2,0.1c0.2-0.3,0.5-0.6,0.8-0.7c0.2-0.1,0.2,0,0-0.2l-7.2-7.9C220.9,192.3,220.4,192.7,220.7,193.1
				L220.7,193.1z"/>
		</g>
		<g>
			<defs>
				<path id="SVGID_67_" d="M270,189.9L270,189.9L270,189.9L270,189.9L270,189.9L270,189.9L270,189.9L270,189.9L270,189.9L270,189.9
					L270,189.9L270,189.9L270,189.9L270,189.9l0-0.1v0v0l0,0v0v0v0l0,0l0,0v0v0l0,0v0v0v0l0-0.1l0.4-8.7l0,0h0l0,0v0h0l0,0l0,0l0,0
					l0,0h0l0,0l0,0h0l0,0l0,0l0,0l0,0l0,0h0l0,0.1h0l0,0h0l0,0l0,0l0,0h0l0,0h0l0,0l0,0l0,0l0,0v0h0v0h0l0,0h0l0,0l0,0v0h0h0l0,0v0
					h0l0,0v0h0l0,0l0,0l0,0c0,0,0,0.1,0.1,0.1l0,0c0,0,0.1,0.1,0.1,0.1l0,0c0,0,0.1,0.1,0.1,0.1l0,0v0h0h0v0l0,0h0l0,0v0l0,0l0,0v0
					h0l0,0h0h0v0v0c0,0,0,0.1,0.1,0.1l0,0l0,0v0l0,0.1l0,0l0,0l0,0.1l0,0l0,0h0l0,0l0,0l0,0l0,0.1l0,0l0,0l0,0.1l0,0l0,0l0,0l0,0.1
					v0l0,0l0,0l0,0l0,0l0.1,0.1l0,0c0.2,0.4,0.3,0.8,0.4,1.3l0,0l0,0l0,0l0,0l0,0l0,0l0,0l0,0l0,0l0,0v0l0,0
					c0.1,0.5,0.2,0.9,0.3,1.4v0l0,0l0,0l0,0.3l0,0l0,0l0,0c0.1,0.6,0.2,1.2,0.3,1.8l0,0l0,0l0,0l0,0l0,0v0l0,0.1v0l0,0.1l0,0l0,0.1
					l0,0c0.1,0.9,0.2,1.9,0.2,2.7l0,0l0,0l0,0v0v0l0,0v0l0,0.1v0v0l0,0l0,0v0l0,0.1l0,0v0l0,0.2l0,0l0,0v0v0v0l0,0l0,0.1v0l0,0l0,0
					v0v0l0,0l0,0l0,0v0c0,0.9,0.1,1.8,0.1,2.4c0.1,2.2,0.3,4.5,0.8,6.7c0.3,1.2,0.8,2.6,1.6,3.5l-7.6,0.6
					C268.9,199.7,269.8,194.9,270,189.9L270,189.9z"/>
			</defs>
			<clipPath id="SVGID_68_">
				<use xlink:href="#SVGID_67_"  style="overflow:visible;"/>
			</clipPath>
			<g class="ufc23">
				<defs>
					<rect id="SVGID_69_" x="267.6" y="180.9" width="7.6" height="23.3"/>
				</defs>
				<clipPath id="SVGID_70_">
					<use xlink:href="#SVGID_69_"  style="overflow:visible;"/>
				</clipPath>
				<g style="clip-path:url(#SVGID_70_);">
					
						<image style="overflow:visible;" width="12" height="22" xlink:href="CF2BF644.png"  transform="matrix(1.3007 0 0 -1.3007 264.267 207.8542)">
					</image>
				</g>
			</g>
		</g>
	</g>
	
		<linearGradient id="SVGID_71_" gradientUnits="userSpaceOnUse" x1="-1440.113" y1="243.7499" x2="-1440.113" y2="351.083" gradientTransform="matrix(-0.8922 0 0 1 -1086.098 0)">
		<stop  offset="0" style="stop-color:#FFFFFF"/>
		<stop  offset="1" style="stop-color:#D4D7EB"/>
	</linearGradient>
	<path class="ufc24" d="M134.1,267.4c1,0,1.9,0.1,2.9,0.3c5.1-6.9,12.1-11.2,19.7-11.2c3.4,0,6.7,0.8,9.7,2.4c1.9,0.4,3.8,1.1,5.6,2
		c4.4-10.2,12.4-17.1,21.5-17.1c7,0,13.4,4,17.9,10.6c3.6-3.2,7.9-5.1,12.4-5.1c12.3,0,22.3,13.4,23.2,30.3
		c4.1-5.3,9.6-8.5,15.6-8.5c12.8,0,23.3,14.7,23.3,32.7s-10.4,32.7-23.3,32.7c-5.2,0-10.1-2.5-14-6.6c-4.8,9.5-12.7,15.7-21.6,15.7
		c-6.5,0-12.4-3.3-17-8.8c-4.4,5.4-10.2,8.8-16.5,8.8c-4.4,0-8.5-1.6-12.1-4.3c-5.6,6.1-12.6,9.8-20.2,9.8c-11.2,0-21.2-7.9-27.1-20
		c0,0,0,0,0,0c-12.5,0-22.6-14.3-22.6-31.8C111.5,281.7,121.6,267.4,134.1,267.4z"/>
</g>
</svg>
